<?xml version="1.0" encoding="UTF-8" standalone="no"?>
<svg width="117px" height="31px" viewBox="0 0 117 31" version="1.1" xmlns="http://www.w3.org/2000/svg" xmlns:xlink="http://www.w3.org/1999/xlink" xmlns:sketch="http://www.bohemiancoding.com/sketch/ns">
    <!-- Generator: Sketch 3.1 (8751) - http://www.bohemiancoding.com/sketch -->
    <title>eamy_logo</title>
    <desc>Created with Sketch.</desc>
    <defs></defs>
    <g id="Page-1" stroke="none" stroke-width="1" fill="none" fill-rule="evenodd" sketch:type="MSPage">
        <g id="eamy_logo" sketch:type="MSLayerGroup" transform="translate(1.000000, 0.000000)">
            <g id="Group" sketch:type="MSShapeGroup">
                <path d="M17.3542535,26.4681081 L17.8697183,26.4681081 L17.8697183,30.282973 L17.3158592,30.282973 L17.3158592,27.3154054 L16.1346197,28.7894595 L16.032507,28.7894595 L14.8373803,27.3154054 L14.8373803,30.282973 L14.2867887,30.282973 L14.2867887,26.4681081 L14.8071549,26.4681081 L16.0847887,28.0345946 L17.3542535,26.4681081 L17.3542535,26.4681081 Z M20.9453521,26.4681081 L23.1240282,26.4681081 L23.1240282,26.9545946 L21.4951268,26.9545946 L21.4951268,28.1189189 L23.0684789,28.1189189 L23.0684789,28.6078378 L21.4951268,28.6078378 L21.4951268,29.7940541 L23.1763099,29.7940541 L23.1763099,30.2805405 L20.9453521,30.2805405 L20.9453521,26.4681081 L20.9453521,26.4681081 Z M26.0223944,30.2789189 L26.0223944,26.4681081 L27.318,26.4681081 C27.8408169,26.4681081 28.2549859,26.5467568 28.5588732,26.7008108 C28.8643944,26.8564865 29.1045634,27.0867568 29.2859155,27.39 C29.4656338,27.6908108 29.5563099,28.0208108 29.5563099,28.3767568 C29.5563099,28.6321622 29.505662,28.8754054 29.4068169,29.1097297 C29.3087887,29.3424324 29.1674648,29.5467568 28.9828451,29.7243243 C28.7957746,29.9059459 28.5784789,30.0445946 28.3317746,30.1362162 C28.1863662,30.1937838 28.0540282,30.2302703 27.9331268,30.2513514 C27.8122254,30.2683784 27.5802254,30.2797297 27.2395775,30.2797297 L26.0223944,30.2797297 L26.0223944,30.2789189 Z M27.2608169,26.9537838 L26.5729859,26.9537838 L26.5729859,29.7924324 L27.2779718,29.7924324 C27.5532676,29.7924324 27.7672958,29.7721622 27.9192394,29.7356757 C28.072,29.6975676 28.1986197,29.6513514 28.2999155,29.5937838 C28.4012113,29.5362162 28.494338,29.4648649 28.5792958,29.3813514 C28.850507,29.1089189 28.9869296,28.7627027 28.9869296,28.3467568 C28.9869296,27.9364865 28.8472394,27.6040541 28.5686761,27.3454054 C28.4665634,27.2481081 28.3472958,27.1678378 28.2149577,27.107027 C28.0818028,27.0454054 27.956,27.0040541 27.8359155,26.9845946 C27.715831,26.9651351 27.525493,26.9537838 27.2608169,26.9537838 L27.2608169,26.9537838 Z M32.4971549,26.4681081 L33.0469296,26.4681081 L33.0469296,30.282973 L32.4971549,30.282973 L32.4971549,26.4681081 L32.4971549,26.4681081 Z M39.4677746,29.3983784 L39.4677746,30 C39.0642254,30.2181081 38.5985915,30.3259459 38.0700563,30.3259459 C37.6403662,30.3259459 37.2760282,30.2416216 36.9770423,30.0705405 C36.6788732,29.8994595 36.4419718,29.6627027 36.2671549,29.3627027 C36.092338,29.0627027 36.0057465,28.7375676 36.0057465,28.3881081 C36.0057465,27.8327027 36.2050704,27.3656757 36.6037183,26.987027 C37.0023662,26.6083784 37.4949577,26.4186486 38.0798592,26.4186486 C38.4834085,26.4186486 38.9318873,26.5232432 39.4252958,26.7340541 L39.4252958,27.3210811 C38.9751831,27.0664865 38.536507,26.9383784 38.1068169,26.9383784 C37.666507,26.9383784 37.3013521,27.0754054 37.0113521,27.3527027 C36.7205352,27.6283784 36.5751268,27.972973 36.5751268,28.3881081 C36.5751268,28.8072973 36.7189014,29.1502703 37.0048169,29.4194595 C37.2915493,29.6894595 37.6558873,29.8240541 38.1019155,29.8240541 C38.5683662,29.8240541 39.0241972,29.6837838 39.4677746,29.3983784 L39.4677746,29.3983784 Z M43.6192676,26.447027 L44.005662,26.447027 L45.7293239,30.2821622 L45.1664789,30.2821622 L44.6542817,29.1510811 L43.0139437,29.1510811 L42.5344225,30.2821622 L41.9683099,30.2821622 L43.6192676,26.447027 L43.6192676,26.447027 Z M44.428,28.6662162 L43.8079718,27.2845946 L43.2328732,28.6662162 L44.428,28.6662162 L44.428,28.6662162 Z M48.4038592,26.4681081 L48.9544507,26.4681081 L48.9544507,29.7867568 L50.6854648,29.7867568 L50.6854648,30.282973 L48.4038592,30.282973 L48.4038592,26.4681081 L48.4038592,26.4681081 Z M57.9787606,28.6856757 L57.5596901,28.4335135 C57.2974648,28.2737838 57.1103944,28.1172973 56.9992958,27.9624324 C56.8881972,27.8091892 56.8334648,27.6332432 56.8334648,27.432973 C56.8334648,27.1313514 56.9380282,26.8881081 57.1487887,26.7008108 C57.3587324,26.5135135 57.6315775,26.4186486 57.966507,26.4186486 C58.2883662,26.4186486 58.5816338,26.5078378 58.8495775,26.6862162 L58.8495775,27.3064865 C58.5726479,27.042973 58.2752958,26.9116216 57.9558873,26.9116216 C57.7753521,26.9116216 57.627493,26.9521622 57.5123099,27.0340541 C57.3971268,27.1159459 57.3391268,27.2213514 57.3391268,27.3527027 C57.3391268,27.4662162 57.3824225,27.5724324 57.4665634,27.672973 C57.552338,27.7727027 57.6879437,27.8772973 57.8774648,27.9875676 L58.2973521,28.2348649 C58.7662535,28.5121622 58.9998873,28.8664865 58.9998873,29.2954054 C58.9998873,29.6018919 58.8977746,29.8508108 58.6902817,30.0413514 C58.4844225,30.2327027 58.215662,30.3283784 57.8864507,30.3283784 C57.5074085,30.3283784 57.1602254,30.2132432 56.8489859,29.9813514 L56.8489859,29.2872973 C57.146338,29.6618919 57.4902535,29.8467568 57.8807324,29.8467568 C58.0539155,29.8467568 58.1960563,29.7997297 58.3120563,29.7040541 C58.4264225,29.6091892 58.4827887,29.4908108 58.4827887,29.3472973 C58.4844225,29.1121622 58.3161408,28.8940541 57.9787606,28.6856757 L57.9787606,28.6856757 Z M63.7469014,26.4137838 C64.3416056,26.4137838 64.8366479,26.5994595 65.2312113,26.9724324 C65.6257746,27.3462162 65.8226479,27.8140541 65.8226479,28.3751351 C65.8226479,28.9378378 65.6249577,29.4056757 65.2246761,29.7737838 C64.8268451,30.1410811 64.3244507,30.3259459 63.717493,30.3259459 C63.1383099,30.3259459 62.6538873,30.1410811 62.2699437,29.7737838 C61.8827324,29.4056757 61.6915775,28.9427027 61.6915775,28.3872973 C61.6915775,27.8172973 61.8851831,27.3462162 62.2740282,26.9724324 C62.6628732,26.6002703 63.153831,26.4137838 63.7469014,26.4137838 L63.7469014,26.4137838 Z M63.7689577,26.9327027 C63.3286479,26.9327027 62.9683944,27.0689189 62.6841127,27.3413514 C62.4014648,27.6154054 62.2593239,27.9648649 62.2593239,28.3881081 C62.2593239,28.8008108 62.4022817,29.1413514 62.6849296,29.4154054 C62.9692113,29.6886486 63.3253803,29.8248649 63.7526197,29.8248649 C64.1806761,29.8248649 64.5392958,29.6854054 64.8252113,29.4072973 C65.1127606,29.1283784 65.2549014,28.7813514 65.2549014,28.3662162 C65.2549014,27.9632432 65.1119437,27.6210811 64.8252113,27.3462162 C64.5401127,27.0697297 64.1880282,26.9327027 63.7689577,26.9327027 L63.7689577,26.9327027 Z M68.7594085,26.4681081 L70.8090141,26.4681081 L70.8090141,26.9545946 L69.3116338,26.9545946 L69.3116338,28.0208108 L70.8090141,28.0208108 L70.8090141,28.5056757 L69.3116338,28.5056757 L69.3116338,30.282973 L68.7594085,30.282973 L68.7594085,26.4681081 L68.7594085,26.4681081 Z M73.3250704,26.4624324 L76.5371268,26.4624324 L76.5371268,26.9489189 L75.1957746,26.9489189 L75.1957746,30.282973 L74.6427324,30.282973 L74.6427324,26.9489189 L73.3250704,26.9489189 L73.3250704,26.4624324 L73.3250704,26.4624324 Z M84.2061972,26.4681081 L84.7559718,26.4681081 L83.2014085,30.3016216 L83.0813239,30.3016216 L81.8241127,27.1978378 L80.5530141,30.3016216 L80.4361972,30.3016216 L78.8865352,26.4681081 L79.4403944,26.4681081 L80.5007324,29.0967568 L81.5676056,26.4681081 L82.0887887,26.4681081 L83.1589296,29.0967568 L84.2061972,26.4681081 L84.2061972,26.4681081 Z M88.4540845,26.447027 L88.8404789,26.447027 L90.5657746,30.2821622 L90.0021127,30.2821622 L89.4899155,29.1510811 L87.8487606,29.1510811 L87.3692394,30.2821622 L86.8047606,30.2821622 L88.4540845,26.447027 L88.4540845,26.447027 Z M89.2636338,28.6662162 L88.6436056,27.2845946 L88.068507,28.6662162 L89.2636338,28.6662162 L89.2636338,28.6662162 Z M93.255831,30.282973 L93.255831,26.4681081 L94.2197746,26.4681081 C94.6094366,26.4681081 94.9165915,26.5637838 95.1453239,26.7551351 C95.3724225,26.9464865 95.4892394,27.2051351 95.4892394,27.5318919 C95.4892394,27.7524324 95.4336901,27.9454054 95.3201408,28.1075676 C95.2082254,28.2689189 95.0472958,28.3905405 94.8389859,28.4708108 C94.962338,28.5510811 95.0816056,28.6589189 95.1992394,28.7975676 C95.3176901,28.9354054 95.4827042,29.177027 95.6934648,29.5208108 C95.8274366,29.7389189 95.9352676,29.9027027 96.0161408,30.0105405 L96.2211831,30.282973 L95.5652113,30.282973 L95.3977465,30.0316216 C95.3912113,30.0218919 95.3805915,30.0072973 95.3642535,29.9854054 L95.2564225,29.8337838 L95.0856901,29.5564865 L94.9018873,29.2572973 C94.788338,29.1016216 94.6845915,28.9759459 94.5881972,28.8835135 C94.4958873,28.7910811 94.4092958,28.7245946 94.3333239,28.6824324 C94.2573521,28.6427027 94.1282817,28.6224324 93.9485634,28.6224324 L93.8064225,28.6224324 L93.8064225,30.2821622 L93.255831,30.2821622 L93.255831,30.282973 Z M93.9722535,26.9327027 L93.8080563,26.9327027 L93.8080563,28.1367568 L94.0163662,28.1367568 C94.2949296,28.1367568 94.4869014,28.1124324 94.5890141,28.0654054 C94.6935775,28.0175676 94.7744507,27.947027 94.8332676,27.8513514 C94.8904507,27.7556757 94.9182254,27.6462162 94.9182254,27.5254054 C94.9182254,27.4045946 94.8871831,27.2959459 94.821831,27.1986486 C94.7581127,27.1013514 94.6674366,27.0324324 94.5514366,26.9918919 C94.4346197,26.9521622 94.2410141,26.9327027 93.9722535,26.9327027 L93.9722535,26.9327027 Z M98.8916338,26.4681081 L101.071127,26.4681081 L101.071127,26.9545946 L99.4422254,26.9545946 L99.4422254,28.1189189 L101.015577,28.1189189 L101.015577,28.6078378 L99.4422254,28.6078378 L99.4422254,29.7940541 L101.122592,29.7940541 L101.122592,30.2805405 L98.8924507,30.2805405 L98.8924507,26.4681081 L98.8916338,26.4681081 Z" id="Shape" fill="#000000"></path>
                <path d="M-0.186253521,17.2127027 L27.3408732,17.2127027 L27.3408732,22.5016216 L-0.186253521,22.5016216 L-0.186253521,17.2127027 L-0.186253521,17.2127027 Z M-0.186253521,0.0210810811 L-0.186253521,5.31081081 L27.3408732,5.31081081 L27.3408732,0.0210810811 L-0.186253521,0.0210810811 L-0.186253521,0.0210810811 Z M-0.186253521,13.9062162 L27.3408732,13.9062162 L27.3408732,8.6172973 L-0.186253521,8.6172973 L-0.186253521,13.9062162 L-0.186253521,13.9062162 Z M29.2311831,0.0210810811 L29.2311831,5.31081081 L51.429662,5.31081081 L51.429662,17.2127027 L34.5606479,17.2127027 L34.5606479,13.9062162 L48.1857465,13.9062162 L48.1857465,8.61648649 L29.2311831,8.61648649 L29.2311831,22.5016216 L56.7591268,22.5016216 L56.7591268,0.0202702703 L29.2311831,0.0202702703 L29.2311831,0.0210810811 Z M86.1781972,0.0210810811 L58.6494366,0.0210810811 L58.6494366,22.5016216 L63.9780845,22.5016216 L63.9780845,5.31081081 L69.7486761,5.31081081 L69.7486761,22.5016216 L75.0781408,22.5016216 L75.0781408,5.31081081 L80.8487324,5.31081081 L80.8487324,22.5016216 L86.1773803,22.5016216 L86.1781972,0.0210810811 L86.1781972,0.0210810811 Z M110.264535,0.0210810811 L110.264535,8.6172973 L93.3987887,8.6172973 L93.3987887,0.0210810811 L88.068507,0.0210810811 L88.068507,13.9062162 L99.1669296,13.9062162 L99.1669296,22.5016216 L104.497211,22.5016216 L104.497211,13.9062162 L115.595634,13.9062162 L115.595634,0.0210810811 L110.264535,0.0210810811 L110.264535,0.0210810811 Z" id="Shape" fill="#1CA78B"></path>
            </g>
        </g>
    </g>
</svg>