<?xml version="1.0" encoding="UTF-8" standalone="no"?>
<svg width="634px" height="510px" viewBox="0 0 634 510" version="1.1" xmlns="http://www.w3.org/2000/svg" xmlns:xlink="http://www.w3.org/1999/xlink" xmlns:sketch="http://www.bohemiancoding.com/sketch/ns">
    <!-- Generator: Sketch 3.1 (8751) - http://www.bohemiancoding.com/sketch -->
    <title>Rectangle 1 + approach_architecture_capabilities_FIN</title>
    <desc>Created with Sketch.</desc>
    <defs></defs>
    <g id="Page-1" stroke="none" stroke-width="1" fill="none" fill-rule="evenodd" sketch:type="MSPage">
        <g id="Rectangle-1-+-approach_architecture_capabilities_FIN" sketch:type="MSLayerGroup">
            <rect id="Rectangle-1" stroke="#FFFFFF" fill="#FFFFFF" sketch:type="MSShapeGroup" x="0" y="0" width="634" height="510"></rect>
            <g id="approach_architecture_capabilities_FIN" transform="translate(1.000000, 77.000000)" sketch:type="MSShapeGroup">
                <g id="Group" transform="translate(501.793978, 218.579882)" fill="#4C5655">
                    <path d="M6.93497306,37.5138462 C5.42057686,37.5990138 3.73490967,37.6841815 2.44186371,37.6320789 L2.44186371,37.700213 C3.71688114,37.9567179 5.08103962,38.2633215 6.4251664,38.6200237 L11.8046783,40.0338067 L11.8046783,40.8684497 L6.64651664,42.2140986 C5.18320127,42.5888363 3.77096672,42.9295069 2.44286529,43.1509428 L2.44286529,43.2020434 C3.78699208,43.2020434 5.38652298,43.2701775 7.02211094,43.3393136 L11.8737876,43.5607495 L11.8737876,44.7360631 L0.398630745,44.0547219 L0.398630745,42.6409389 L5.64292868,41.2952899 C7.15732488,40.9025168 8.2821046,40.6139487 9.5921775,40.3754793 L9.5921775,40.3243787 C8.28110301,40.1019408 7.19238035,39.8474398 5.64292868,39.4717002 L0.398630745,38.1781538 L0.398630745,36.7132702 L11.8737876,36.0489625 L11.8737876,37.2753767 L6.93497306,37.5138462 L6.93497306,37.5138462 Z" id="Shape"></path>
                    <path d="M8.4333439,32.9989586 L11.8727861,33.7664694 L11.8727861,35.0269507 L0.39762916,32.404789 L0.39762916,30.9569389 L11.8727861,28.4019093 L11.8727861,29.6964576 L8.4333439,30.4629665 L8.4333439,32.9989586 L8.4333439,32.9989586 Z M7.37867512,30.6312978 L4.46606656,31.2274714 C3.65077655,31.3978067 2.69526466,31.5511085 1.84491918,31.6873767 L1.84491918,31.7555108 C2.71329319,31.8927811 3.70185737,32.0631164 4.46606656,32.2154162 L7.37867512,32.8115897 L7.37867512,30.6312978 L7.37867512,30.6312978 Z" id="Shape"></path>
                    <path d="M11.8727861,26.9690888 L0.39762916,26.9690888 L0.39762916,25.726643 L5.77914422,23.6144852 C7.00408241,23.1375464 8.53550555,22.5413728 9.77947385,22.1496016 L9.77947385,22.1165365 C7.97361648,22.2187377 6.49327417,22.2688363 4.50112203,22.2688363 L0.396627575,22.2688363 L0.396627575,21.0935227 L11.8717845,21.0935227 L11.8717845,22.3369704 L6.35505547,24.5172623 C5.19922662,24.9771677 3.88614897,25.4701381 2.4558859,25.8789428 L2.4558859,25.9130099 C3.9893122,25.8098067 5.45262758,25.7767416 7.90350555,25.7767416 L11.8707829,25.7767416 L11.8707829,26.9690888 L11.8727861,26.9690888 L11.8727861,26.9690888 Z" id="Shape"></path>
                    <path d="M8.4333439,17.669783 L11.8727861,18.4362919 L11.8727861,19.6967732 L0.39762916,17.0736095 L0.39762916,15.6267613 L11.8727861,13.0717318 L11.8727861,14.3662801 L8.4333439,15.132789 L8.4333439,17.669783 L8.4333439,17.669783 Z M7.37867512,15.3011203 L4.46606656,15.8982959 C3.65077655,16.0686312 2.69526466,16.220931 1.84491918,16.3582012 L1.84491918,16.4253333 C2.71329319,16.5616016 3.70185737,16.7319369 4.46606656,16.8852387 L7.37867512,17.4814122 L7.37867512,15.3011203 L7.37867512,15.3011203 Z" id="Shape"></path>
                    <path d="M11.5823265,6.3244497 C11.7876513,6.81842209 11.9739461,7.63603156 11.9739461,8.36847337 C11.9739461,9.37345168 11.7025166,10.3102959 10.8511696,11.0758028 C9.96677021,11.9114477 8.38226307,12.4735542 6.28895087,12.4555187 C1.82689065,12.4384852 0.295467512,10.1559921 0.295467512,8.13100592 C0.295467512,7.41459566 0.432684628,6.85349112 0.617977813,6.49478501 L1.74275753,6.78435503 C1.59051664,7.09196055 1.47132805,7.50076529 1.47132805,8.11297041 C1.47132805,9.54378698 2.61213312,11.0938383 6.16976228,11.0938383 C9.7103645,11.0938383 10.8511696,9.74818935 10.8511696,8.36847337 C10.8511696,7.92560158 10.7670365,7.67110059 10.7139525,7.56789744 L6.97002853,7.56789744 L6.97002853,9.0498146 L5.88030428,9.0498146 L5.88030428,6.3244497 L11.5823265,6.3244497 L11.5823265,6.3244497 Z" id="Shape"></path>
                    <path d="M6.42416482,0.363715976 L6.42416482,3.24238264 L10.731981,3.24238264 L10.731981,-0.0280552268 L11.8727861,-0.0280552268 L11.8727861,4.55296252 L0.39762916,4.55296252 L0.39762916,0.175345168 L1.53843423,0.175345168 L1.53843423,3.24238264 L5.3194168,3.24238264 L5.3194168,0.363715976 L6.42416482,0.363715976 L6.42416482,0.363715976 Z" id="Shape"></path>
                </g>
                <g id="Group" transform="translate(218.345483, 174.493097)" fill="#4C5655">
                    <path d="M0.11718542,0.366721893 C0.800266244,0.190374753 1.61555626,0.0801577909 2.58509033,0.0801577909 C3.95125198,0.0801577909 5.09706498,0.410808679 5.86828526,1.18332939 C6.59543582,1.88871795 6.97002853,2.96884418 6.97002853,4.24836292 C6.97002853,5.61505325 6.63950555,6.54087574 6.06659905,7.29035108 C5.25130903,8.39352268 3.8841458,8.94360552 2.56205388,8.94360552 C2.27560063,8.94360552 2.05525198,8.94360552 1.81286846,8.92156213 L1.81286846,15.0065404 L0.116183835,15.0065404 L0.116183835,0.366721893 L0.11718542,0.366721893 L0.11718542,0.366721893 Z M1.81487163,7.48773964 C2.01318542,7.53182643 2.18946434,7.55286785 2.47591759,7.55286785 C4.15056735,7.55286785 5.27434548,6.45069822 5.27434548,4.35657594 C5.27434548,2.83558185 4.63533439,1.46889152 2.76237084,1.46889152 C2.36574326,1.46889152 2.03522029,1.5129783 1.81487163,1.57810651 L1.81487163,7.48773964 L1.81487163,7.48773964 Z" id="Shape"></path>
                    <path d="M10.6057813,0.146287968 L10.6057813,15.0055385 L8.90909667,15.0055385 L8.90909667,0.146287968 L10.6057813,0.146287968 L10.6057813,0.146287968 Z" id="Shape"></path>
                    <path d="M13.2940349,0.366721893 C13.9771157,0.190374753 14.7924057,0.0801577909 15.7619398,0.0801577909 C17.1281014,0.0801577909 18.2739144,0.410808679 19.0451347,1.18332939 C19.7722853,1.88871795 20.146878,2.96884418 20.146878,4.24836292 C20.146878,5.61505325 19.816355,6.54087574 19.2434485,7.29035108 C18.4281585,8.39352268 17.0609952,8.94360552 15.7389033,8.94360552 C15.4524501,8.94360552 15.2321014,8.94360552 14.9897179,8.92156213 L14.9897179,15.0065404 L13.2930333,15.0065404 L13.2930333,0.366721893 L13.2940349,0.366721893 L13.2940349,0.366721893 Z M14.9907195,7.48773964 C15.1890333,7.53182643 15.3653122,7.55286785 15.6517655,7.55286785 C17.3264152,7.55286785 18.4501933,6.45069822 18.4501933,4.35657594 C18.4501933,2.83558185 17.8111823,1.46889152 15.9382187,1.46889152 C15.5415911,1.46889152 15.2110681,1.5129783 14.9907195,1.57810651 L14.9907195,7.48773964 L14.9907195,7.48773964 Z" id="Shape"></path>
                    <path d="M27.506523,7.95065089 L23.7826307,7.95065089 L23.7826307,13.5276292 L28.0143265,13.5276292 L28.0143265,15.0055385 L22.0859461,15.0055385 L22.0859461,0.146287968 L27.7499081,0.146287968 L27.7499081,1.62419724 L23.7836323,1.62419724 L23.7836323,6.51783037 L27.5075246,6.51783037 L27.5075246,7.95065089 L27.506523,7.95065089 L27.506523,7.95065089 Z" id="Shape"></path>
                    <path d="M29.8852868,0.146287968 L31.5819715,0.146287968 L31.5819715,13.571716 L35.7685959,13.571716 L35.7685959,15.0055385 L29.8842853,15.0055385 L29.8842853,0.146287968 L29.8852868,0.146287968 L29.8852868,0.146287968 Z" id="Shape"></path>
                    <path d="M39.1629667,0.146287968 L39.1629667,15.0055385 L37.4662821,15.0055385 L37.4662821,0.146287968 L39.1629667,0.146287968 L39.1629667,0.146287968 Z" id="Shape"></path>
                    <path d="M41.8502187,15.0055385 L41.8502187,0.146287968 L43.4587639,0.146287968 L46.1920887,7.11300197 C46.809065,8.70012623 47.5802853,10.6840316 48.0870872,12.2942012 L48.1311569,12.2942012 C47.9989477,9.95659961 47.9328431,8.03882446 47.9328431,5.45974753 L47.9328431,0.146287968 L49.4532488,0.146287968 L49.4532488,15.0055385 L47.8447036,15.0055385 L45.0242409,7.86247732 C44.4292995,6.36352663 43.7902884,4.6661854 43.2614517,2.81353846 L43.2173819,2.81353846 C43.3495911,4.79744379 43.3936609,6.69417751 43.3936609,9.86842604 L43.3936609,15.0055385 L41.8502187,15.0055385 L41.8502187,15.0055385 Z" id="Shape"></path>
                    <path d="M57.5180095,7.95065089 L53.7941173,7.95065089 L53.7941173,13.5276292 L58.025813,13.5276292 L58.025813,15.0055385 L52.0974326,15.0055385 L52.0974326,0.146287968 L57.7613946,0.146287968 L57.7613946,1.62419724 L53.7951189,1.62419724 L53.7951189,6.51783037 L57.5190111,6.51783037 L57.5190111,7.95065089 L57.5180095,7.95065089 L57.5180095,7.95065089 Z" id="Shape"></path>
                </g>
                <path d="M479.034967,331.320813 C479.034967,336.831661 474.527835,341.340536 469.019119,341.340536 L25.0406212,341.340536 C19.5319049,341.340536 15.0247734,336.831661 15.0247734,331.320813 L15.0247734,170.504245 C15.0247734,164.993396 19.5319049,160.484521 25.0406212,160.484521 L469.019119,160.484521 C474.527835,160.484521 479.034967,164.993396 479.034967,170.504245 L479.034967,331.320813 L479.034967,331.320813 Z" id="Shape" stroke="#4C5655"></path>
                <path d="M476.531005,330.819826 C476.531005,335.228505 472.9253,338.835606 468.518326,338.835606 L25.5414136,338.835606 C21.1344406,338.835606 17.5287353,335.228505 17.5287353,330.819826 L17.5287353,171.005231 C17.5287353,166.596552 21.1344406,162.989452 25.5414136,162.989452 L468.518326,162.989452 C472.9253,162.989452 476.531005,166.596552 476.531005,171.005231 L476.531005,330.819826 L476.531005,330.819826 Z" id="Shape" stroke="#4C5655"></path>
                <ellipse id="Oval" fill="#66AC4D" cx="191.302694" cy="240.623274" rx="20.0316957" ry="20.0394477"></ellipse>
                <ellipse id="Oval" fill="#66AC4D" cx="79.1251981" cy="240.623274" rx="20.0316957" ry="20.0394477"></ellipse>
                <ellipse id="Oval" fill="#FF0000" cx="247.391442" cy="306.753452" rx="20.0316957" ry="20.0394477"></ellipse>
                <ellipse id="Oval" fill="#FCB732" cx="303.48019" cy="240.623274" rx="20.0316957" ry="20.0394477"></ellipse>
                <ellipse id="Oval" fill="#66AC4D" cx="415.657686" cy="240.623274" rx="20.0316957" ry="20.0394477"></ellipse>
                <g id="Group" transform="translate(99.156894, 237.617357)">
                    <path d="M-0.464735341,3.02495464 L66.6875182,3.02495464" id="Shape" stroke="#4C5655"></path>
                    <path d="M65.6649002,6.50179882 L71.7184786,3.00491519 L65.6649002,-0.491968442 L65.6649002,6.50179882 L65.6649002,6.50179882 Z" id="Shape" fill="#4C5655"></path>
                </g>
                <g id="Group" transform="translate(243.385103, 268.678501)">
                    <path d="M3.70786688,-0.481948718 L3.70786688,12.519645" id="Shape" stroke="#4C5655" stroke-dasharray="5,5"></path>
                    <path d="M0.231366086,11.4966312 L3.72689699,17.5535542 L7.22342948,11.4966312 L0.231366086,11.4966312 L0.231366086,11.4966312 Z" id="Shape" fill="#4C5655"></path>
                </g>
                <g id="Group" transform="translate(211.334390, 237.617357)">
                    <path d="M-0.39562599,3.02495464 L66.7566276,3.02495464" id="Shape" stroke="#4C5655"></path>
                    <path d="M65.7340095,6.50179882 L71.7885895,3.00491519 L65.7340095,-0.491968442 L65.7340095,6.50179882 L65.7340095,6.50179882 Z" id="Shape" fill="#4C5655"></path>
                </g>
                <g id="Group" transform="translate(187.296355, 390.919132)">
                    <path d="M4.88673217,3.48385799 L114.582301,3.48385799" id="Shape" stroke="#4C5655"></path>
                    <path d="M5.90935024,6.96070217 L-0.145229794,3.46381854 L5.90935024,-0.0330650888 L5.90935024,6.96070217 L5.90935024,6.96070217 Z" id="Shape" fill="#4C5655"></path>
                    <path d="M113.559683,6.96070217 L119.614263,3.46381854 L113.559683,-0.0330650888 L113.559683,6.96070217 L113.559683,6.96070217 Z" id="Shape" fill="#4C5655"></path>
                </g>
                <g id="Group" transform="translate(323.511886, 237.617357)">
                    <path d="M-0.325515055,3.02495464 L66.8267385,3.02495464" id="Shape" stroke="#4C5655"></path>
                    <path d="M65.8031189,6.50179882 L71.8576989,3.00491519 L65.8031189,-0.491968442 L65.8031189,6.50179882 L65.8031189,6.50179882 Z" id="Shape" fill="#4C5655"></path>
                </g>
                <g id="Group" transform="translate(478.757528, 237.617357)">
                    <path d="M15.3002092,3.02495464 L5.30940095,3.02495464" id="Shape" stroke="#4C5655"></path>
                    <path d="M6.33201902,-0.452891519 L0.277438986,3.04399211 L6.33201902,6.54087574 L6.33201902,-0.452891519 L6.33201902,-0.452891519 Z" id="Shape" fill="#4C5655"></path>
                </g>
                <path d="M190.906067,260.681759 L190.906067,264.689649 C190.906067,266.342903 192.258206,267.695566 193.910821,267.695566 L300.148919,267.695566 C301.801534,267.695566 303.153674,266.342903 303.153674,264.689649 L303.153674,260.681759" id="Shape" stroke="#4C5655" stroke-dasharray="4"></path>
                <g id="Group" transform="translate(79.125198, 260.662722)">
                    <path d="M-0.464735341,0.0190374753 L-0.464735341,42.6028639 C-0.464735341,44.2561183 0.88740412,45.6087811 2.54001902,45.6087811 L142.905116,45.6087811" id="Shape" stroke="#4C5655" stroke-dasharray="4,4"></path>
                    <path d="M141.881496,49.0856252 L147.936076,45.5887416 L141.881496,42.091858 L141.881496,49.0856252 L141.881496,49.0856252 Z" id="Shape" fill="#4C5655"></path>
                </g>
                <g id="Group" transform="translate(267.423138, 260.662722)">
                    <path d="M147.978143,0.0190374753 L147.978143,42.6028639 C147.978143,44.2561183 146.626003,45.6087811 144.973388,45.6087811 L4.7334897,45.6087811" id="Shape" stroke="#4C5655" stroke-dasharray="4,4"></path>
                    <path d="M5.75610777,42.1309349 L-0.298472266,45.6278185 L5.75610777,49.1247022 L5.75610777,42.1309349 L5.75610777,42.1309349 Z" id="Shape" fill="#4C5655"></path>
                </g>
                <g id="Group" transform="translate(15.023772, 15.179487)">
                    <path d="M464.012197,122.500142 C464.012197,128.01099 459.505065,132.519866 453.996349,132.519866 L10.0168494,132.519866 C4.50813312,132.519866 0.00100158479,128.01099 0.00100158479,122.500142 L0.00100158479,10.2872505 C0.00100158479,4.77640237 4.50813312,0.267526627 10.0168494,0.267526627 L453.996349,0.267526627 C459.505065,0.267526627 464.012197,4.77640237 464.012197,10.2872505 L464.012197,122.500142 L464.012197,122.500142 Z" id="Shape" fill="#E5E5E5"></path>
                    <path d="M464.012197,122.500142 C464.012197,128.01099 459.505065,132.519866 453.996349,132.519866 L10.0168494,132.519866 C4.50813312,132.519866 0.00100158479,128.01099 0.00100158479,122.500142 L0.00100158479,10.2872505 C0.00100158479,4.77640237 4.50813312,0.267526627 10.0168494,0.267526627 L453.996349,0.267526627 C459.505065,0.267526627 464.012197,4.77640237 464.012197,10.2872505 L464.012197,122.500142 L464.012197,122.500142 Z" id="Shape" stroke="#4C5655"></path>
                </g>
                <g id="Group" transform="translate(209.331220, 30.209073)" fill="#4C5655">
                    <path d="M0.028044374,10.196071 C0.419664025,10.451574 1.10074168,10.6559763 1.6786561,10.6559763 C2.870542,10.6559763 3.58567353,9.87243393 3.58567353,8.71415385 C3.58567353,7.65707298 2.97270365,7.01080079 2.07027575,6.32945957 C1.16784786,5.69921893 -0.0921458003,4.62610651 -0.0921458003,3.14418935 C-0.0921458003,1.40676923 1.11676704,0.129254438 2.93764818,0.129254438 C3.65277971,0.129254438 4.28277655,0.350690335 4.55520761,0.555092702 L4.23169572,1.67930572 C3.94223772,1.47490335 3.46548336,1.28653254 2.86954041,1.28653254 C1.74576228,1.28653254 1.2179271,2.13921105 1.2179271,2.92175148 C1.2179271,4.064 1.81387005,4.50586982 2.90359429,5.28941223 C4.28277655,6.26032347 4.89574643,7.31540039 4.89574643,8.59391716 C4.89574643,10.5698067 3.49953724,11.8122525 1.67765452,11.8122525 C0.894415214,11.8122525 0.0600950872,11.5567495 -0.263416799,11.3192821 L0.028044374,10.196071 L0.028044374,10.196071 Z" id="Shape"></path>
                    <path d="M10.6188019,6.26232742 L7.74124881,6.26232742 L7.74124881,10.5718107 L11.0104216,10.5718107 L11.0104216,11.7130572 L6.43117591,11.7130572 L6.43117591,0.233459566 L10.8070998,0.233459566 L10.8070998,1.37470611 L7.7422504,1.37470611 L7.7422504,5.1561499 L10.6198035,5.1561499 L10.6198035,6.26232742 L10.6188019,6.26232742 L10.6188019,6.26232742 Z" id="Shape"></path>
                    <path d="M12.4577116,0.402792899 C13.0196006,0.250493097 13.7006783,0.181357002 14.3477021,0.181357002 C15.4885071,0.181357002 16.3398542,0.41982643 16.9347956,0.997964497 C17.4966846,1.57710454 17.7350618,2.34461538 17.7350618,3.24639053 C17.7350618,4.71127416 17.0539842,5.66515187 15.8961521,6.19218935 L15.8961521,6.22625641 C16.7474992,6.48175937 17.1901997,7.29936884 17.4456038,8.79831953 C17.7010079,10.3814359 17.9393851,11.3523471 18.0926276,11.7100513 L16.7645261,11.7100513 C16.5942567,11.3693807 16.3729065,10.2792347 16.1515563,8.86545168 C15.8961521,7.29936884 15.4023708,6.70319527 14.2785927,6.70319527 L13.7677845,6.70319527 L13.7677845,11.7100513 L12.45671,11.7100513 L12.45671,0.402792899 L12.4577116,0.402792899 L12.4577116,0.402792899 Z M13.7677845,5.70022091 L14.3126466,5.70022091 C15.5726403,5.70022091 16.4069604,4.78041026 16.4069604,3.40069428 C16.4069604,2.0720789 15.8620983,1.25446943 14.4488621,1.2374359 C14.193458,1.2374359 13.9380539,1.2554714 13.7677845,1.30557002 L13.7677845,5.70022091 L13.7677845,5.70022091 Z" id="Shape"></path>
                    <path d="M21.2936926,11.7120552 L18.6715436,0.232457594 L20.0677528,0.232457594 L21.1915309,5.61505325 C21.463962,6.90859961 21.8045008,8.56085207 22.0088241,10.0257357 L22.0599049,10.0257357 C22.2301743,8.54381854 22.5536862,6.94266667 22.8261173,5.57998422 L23.9158415,0.231455621 L25.3120507,0.231455621 L22.6388209,11.7110533 L21.2936926,11.7110533 L21.2936926,11.7120552 L21.2936926,11.7120552 Z" id="Shape"></path>
                    <path d="M27.9001458,0.232457594 L27.9001458,11.7120552 L26.5890713,11.7120552 L26.5890713,0.232457594 L27.9001458,0.232457594 L27.9001458,0.232457594 Z" id="Shape"></path>
                    <path d="M34.9833534,11.5076529 C34.6257876,11.6960237 34.0638986,11.8142564 33.348767,11.8142564 C31.1012108,11.8142564 29.5006783,10.0087022 29.5006783,6.10902564 C29.5006783,1.57910848 31.7482345,0.131258383 33.5520887,0.131258383 C34.2501933,0.131258383 34.7439746,0.267526627 34.9823518,0.420828402 L34.6928938,1.52700592 C34.4204628,1.4077712 34.1310048,1.28853649 33.5350618,1.28853649 C32.309122,1.28853649 30.878859,2.48088363 30.878859,5.98878895 C30.878859,9.49769625 32.1729065,10.6559763 33.5691157,10.6559763 C34.062897,10.6559763 34.5055975,10.5367416 34.7780285,10.4004734 L34.9833534,11.5076529 L34.9833534,11.5076529 Z" id="Shape"></path>
                    <path d="M40.5171094,6.26232742 L37.6395563,6.26232742 L37.6395563,10.5718107 L40.908729,10.5718107 L40.908729,11.7130572 L36.3294834,11.7130572 L36.3294834,0.233459566 L40.7054073,0.233459566 L40.7054073,1.37470611 L37.6405578,1.37470611 L37.6405578,5.1561499 L40.5181109,5.1561499 L40.5181109,6.26232742 L40.5171094,6.26232742 L40.5171094,6.26232742 Z" id="Shape"></path>
                    <path d="M45.0292488,0.232457594 L46.3403233,0.232457594 L46.3403233,10.6058777 L49.5754422,10.6058777 L49.5754422,11.7120552 L45.0292488,11.7120552 L45.0292488,0.232457594 L45.0292488,0.232457594 Z" id="Shape"></path>
                    <path d="M52.3157781,8.27128205 L51.5495658,11.7120552 L50.2895721,11.7120552 L52.9117211,0.232457594 L54.3590111,0.232457594 L56.9130523,11.7120552 L55.6190048,11.7120552 L54.8527924,8.27128205 L52.3157781,8.27128205 L52.3157781,8.27128205 Z M54.682523,7.21620513 L54.0855784,4.30246943 C53.915309,3.48586193 53.7620666,2.53098225 53.625851,1.68030769 L53.5577433,1.68030769 C53.4215277,2.54801578 53.2512583,3.53696252 53.0980158,4.30246943 L52.5020729,7.21520316 L54.682523,7.21520316 L54.682523,7.21620513 L54.682523,7.21620513 Z" id="Shape"></path>
                    <path d="M59.1265547,11.7120552 L59.1265547,6.85749901 L56.6065674,0.232457594 L57.9857496,0.232457594 L59.0073661,3.11112426 C59.2968241,3.9117002 59.603309,4.81347535 59.8587132,5.70022091 L59.892767,5.70022091 C60.1311442,4.81347535 60.4206022,3.94576726 60.7270872,3.06002367 L61.6976228,0.232457594 L63.0768051,0.232457594 L60.4376292,6.80740039 L60.4376292,11.7130572 L59.1265547,11.7130572 L59.1265547,11.7120552 L59.1265547,11.7120552 Z" id="Shape"></path>
                    <path d="M68.3551569,6.26232742 L65.4776038,6.26232742 L65.4776038,10.5718107 L68.7467765,10.5718107 L68.7467765,11.7130572 L64.1675309,11.7130572 L64.1675309,0.233459566 L68.5434548,0.233459566 L68.5434548,1.37470611 L65.4786054,1.37470611 L65.4786054,5.1561499 L68.3561585,5.1561499 L68.3561585,6.26232742 L68.3551569,6.26232742 L68.3551569,6.26232742 Z" id="Shape"></path>
                    <path d="M70.1940666,0.402792899 C70.7559556,0.250493097 71.4370333,0.181357002 72.0840571,0.181357002 C73.2238605,0.181357002 74.0762092,0.41982643 74.6711506,0.997964497 C75.2330396,1.57710454 75.4714168,2.34461538 75.4714168,3.24639053 C75.4714168,4.71127416 74.7903391,5.66515187 73.6325071,6.19218935 L73.6325071,6.22625641 C74.4848558,6.48175937 74.9275563,7.29936884 75.1819588,8.79831953 C75.4383645,10.3814359 75.6757401,11.3523471 75.8289826,11.7100513 L74.5008811,11.7100513 C74.3306117,11.3693807 74.1092615,10.2792347 73.8889128,8.86545168 C73.6325071,7.29936884 73.1397274,6.70319527 72.0159493,6.70319527 L71.505141,6.70319527 L71.505141,11.7100513 L70.1940666,11.7100513 L70.1940666,0.402792899 L70.1940666,0.402792899 Z M71.5041395,5.70022091 L72.0490016,5.70022091 C73.3089952,5.70022091 74.1423138,4.78041026 74.1423138,3.40069428 C74.1423138,2.0720789 73.5984532,1.25446943 72.1852171,1.2374359 C71.929813,1.2374359 71.6744089,1.2554714 71.5041395,1.30557002 L71.5041395,5.70022091 L71.5041395,5.70022091 Z" id="Shape"></path>
                </g>
                <g id="Group" transform="translate(299.473851, 0.149901)">
                    <path d="M3.68082409,5.04392899 L3.68082409,50.0916055" id="Shape" stroke="#4C5655"></path>
                    <path d="M0.204323296,6.06794477 L3.6998542,0.0110216963 L7.19638669,6.06794477 L0.204323296,6.06794477 L0.204323296,6.06794477 Z" id="Shape" fill="#4C5655"></path>
                    <path d="M0.204323296,49.0685917 L3.6998542,55.1255148 L7.19638669,49.0685917 L0.204323296,49.0685917 L0.204323296,49.0685917 Z" id="Shape" fill="#4C5655"></path>
                </g>
                <g id="Group" transform="translate(75.118859, 0.149901)">
                    <path d="M3.5416038,0.0110216963 L3.5416038,50.0916055" id="Shape" stroke="#4C5655"></path>
                    <path d="M0.0651030111,49.0685917 L3.56063391,55.1255148 L7.05616482,49.0685917 L0.0651030111,49.0685917 L0.0651030111,49.0685917 Z" id="Shape" fill="#4C5655"></path>
                </g>
                <g id="Group" transform="translate(411.651347, 0.149901)">
                    <path d="M3.74993344,5.04392899 L3.74993344,50.0916055" id="Shape" stroke="#4C5655"></path>
                    <path d="M0.273432647,6.06794477 L3.76996513,0.0110216963 L7.26549604,6.06794477 L0.273432647,6.06794477 L0.273432647,6.06794477 Z" id="Shape" fill="#4C5655"></path>
                    <path d="M0.273432647,49.0685917 L3.76996513,55.1255148 L7.26549604,49.0685917 L0.273432647,49.0685917 L0.273432647,49.0685917 Z" id="Shape" fill="#4C5655"></path>
                </g>
                <g id="Group" transform="translate(579.917591, 278.698225)">
                    <path d="M3.8180412,4.67620513 L3.8180412,24.6685602" id="Shape" stroke="#4C5655"></path>
                    <path d="M0.342541997,5.69921893 L3.8380729,-0.35670217 L7.3336038,5.69921893 L0.342541997,5.69921893 L0.342541997,5.69921893 Z" id="Shape" fill="#4C5655"></path>
                    <path d="M0.342541997,23.6455464 L3.8380729,29.7024694 L7.3336038,23.6455464 L0.342541997,23.6455464 L0.342541997,23.6455464 Z" id="Shape" fill="#4C5655"></path>
                </g>
                <g id="Group" transform="translate(579.917591, 172.489152)">
                    <path d="M3.8180412,4.76037081 L3.8180412,24.7527258" id="Shape" stroke="#4C5655"></path>
                    <path d="M0.342541997,5.78338462 L3.8380729,-0.272536489 L7.3336038,5.78338462 L0.342541997,5.78338462 L0.342541997,5.78338462 Z" id="Shape" fill="#4C5655"></path>
                    <path d="M0.342541997,23.729712 L3.8380729,29.7866351 L7.3336038,23.729712 L0.342541997,23.729712 L0.342541997,23.729712 Z" id="Shape" fill="#4C5655"></path>
                </g>
                <path d="M78.6594612,132.421278 L78.6594612,220.602864" id="Shape" stroke="#4C5655"></path>
                <path d="M190.907068,132.421278 L190.907068,220.602864" id="Shape" stroke="#4C5655"></path>
                <g id="Group" transform="translate(423.670365, 132.410256)">
                    <path d="M3.45847227,0.0110216963 L3.45847227,86.9551716" id="Shape" stroke="#4C5655"></path>
                    <path d="M-0.0180285261,85.9321578 L3.47850396,91.9890809 L6.97403487,85.9321578 L-0.0180285261,85.9321578 L-0.0180285261,85.9321578 Z" id="Shape" fill="#4C5655"></path>
                </g>
                <g id="Group" transform="translate(303.480190, 132.410256)">
                    <path d="M-0.325515055,0.0731439842 L-0.325515055,54.3750375 C-0.325515055,57.1304615 1.92805071,59.3848994 4.68240887,59.3848994 L106.913166,59.3848994 C109.667525,59.3848994 111.92109,61.6393373 111.92109,64.3947613 L111.92109,83.1586982" id="Shape" stroke="#4C5655"></path>
                    <path d="M108.44459,82.1356844 L111.941122,88.1926075 L115.436653,82.1356844 L108.44459,82.1356844 L108.44459,82.1356844 Z" id="Shape" fill="#4C5655"></path>
                </g>
                <g id="Group" transform="translate(0.000000, 81.309665)">
                    <path d="M15.1910365,0.0551084813 L5.17518859,0.0551084813 C2.42083043,0.0551084813 0.167264659,2.30954635 0.167264659,5.06497041 L0.167264659,308.083464 C0.167264659,310.838888 2.42083043,313.093325 5.17518859,313.093325 L84.8963296,313.093325" id="Shape" stroke="#4C5655"></path>
                    <path d="M83.8737116,316.57017 L89.9282916,313.073286 L83.8737116,309.576402 L83.8737116,316.57017 L83.8737116,316.57017 Z" id="Shape" fill="#4C5655"></path>
                </g>
                <g id="Group" transform="translate(403.638669, 132.410256)">
                    <path d="M0.4937813,261.992734 L41.4796323,261.992734 C44.2339905,261.992734 46.4875563,259.738296 46.4875563,256.982872 L46.4875563,5.04392899" id="Shape" stroke="#4C5655"></path>
                    <path d="M49.9640571,6.06794477 L46.4685261,0.0110216963 L42.9719937,6.06794477 L49.9640571,6.06794477 L49.9640571,6.06794477 Z" id="Shape" fill="#4C5655"></path>
                </g>
                <path d="M520.099943,240.642312 L535.123715,240.642312" id="Shape" stroke="#4C5655"></path>
            </g>
        </g>
    </g>
</svg>