<?xml version="1.0" encoding="UTF-8" standalone="no"?>
<svg width="633px" height="509px" viewBox="0 0 633 509" version="1.1" xmlns="http://www.w3.org/2000/svg" xmlns:xlink="http://www.w3.org/1999/xlink" xmlns:sketch="http://www.bohemiancoding.com/sketch/ns">
    <!-- Generator: Sketch 3.1 (8751) - http://www.bohemiancoding.com/sketch -->
    <title>approach_architecture_capabilities_FIN</title>
    <desc>Created with Sketch.</desc>
    <defs></defs>
    <g id="Page-1" stroke="none" stroke-width="1" fill="none" fill-rule="evenodd" sketch:type="MSPage">
        <g id="approach_architecture_capabilities_FIN" sketch:type="MSLayerGroup" transform="translate(1.000000, 1.000000)">
            <g id="Group" transform="translate(501.000000, 294.000000)" fill="#4C5655" sketch:type="MSShapeGroup">
                <path d="M6.924,37.44 C5.412,37.525 3.729,37.61 2.438,37.558 L2.438,37.626 C3.711,37.882 5.073,38.188 6.415,38.544 L11.786,39.955 L11.786,40.788 L6.636,42.131 C5.175,42.505 3.765,42.845 2.439,43.066 L2.439,43.117 C3.781,43.117 5.378,43.185 7.011,43.254 L11.855,43.475 L11.855,44.648 L0.398,43.968 L0.398,42.557 L5.634,41.214 C7.146,40.822 8.269,40.534 9.577,40.296 L9.577,40.245 C8.268,40.023 7.181,39.769 5.634,39.394 L0.398,38.103 L0.398,36.641 L11.855,35.978 L11.855,37.202 L6.924,37.44 L6.924,37.44 Z" id="Shape"></path>
                <path d="M8.42,32.934 L11.854,33.7 L11.854,34.958 L0.397,32.341 L0.397,30.896 L11.854,28.346 L11.854,29.638 L8.42,30.403 L8.42,32.934 L8.42,32.934 Z M7.367,30.571 L4.459,31.166 C3.645,31.336 2.691,31.489 1.842,31.625 L1.842,31.693 C2.709,31.83 3.696,32 4.459,32.152 L7.367,32.747 L7.367,30.571 L7.367,30.571 Z" id="Shape"></path>
                <path d="M11.854,26.916 L0.397,26.916 L0.397,25.676 L5.77,23.568 C6.993,23.092 8.522,22.497 9.764,22.106 L9.764,22.073 C7.961,22.175 6.483,22.225 4.494,22.225 L0.396,22.225 L0.396,21.052 L11.853,21.052 L11.853,22.293 L6.345,24.469 C5.191,24.928 3.88,25.42 2.452,25.828 L2.452,25.862 C3.983,25.759 5.444,25.726 7.891,25.726 L11.852,25.726 L11.852,26.916 L11.854,26.916 Z" id="Shape"></path>
                <path d="M8.42,17.635 L11.854,18.4 L11.854,19.658 L0.397,17.04 L0.397,15.596 L11.854,13.046 L11.854,14.338 L8.42,15.103 L8.42,17.635 L8.42,17.635 Z M7.367,15.271 L4.459,15.867 C3.645,16.037 2.691,16.189 1.842,16.326 L1.842,16.393 C2.709,16.529 3.696,16.699 4.459,16.852 L7.367,17.447 L7.367,15.271 L7.367,15.271 Z" id="Shape"></path>
                <path d="M11.564,6.312 C11.769,6.805 11.955,7.621 11.955,8.352 C11.955,9.355 11.684,10.29 10.834,11.054 C9.951,11.888 8.369,12.449 6.279,12.431 C1.824,12.414 0.295,10.136 0.295,8.115 C0.295,7.4 0.432,6.84 0.617,6.482 L1.74,6.771 C1.588,7.078 1.469,7.486 1.469,8.097 C1.469,9.525 2.608,11.072 6.16,11.072 C9.695,11.072 10.834,9.729 10.834,8.352 C10.834,7.91 10.75,7.656 10.697,7.553 L6.959,7.553 L6.959,9.032 L5.871,9.032 L5.871,6.312 L11.564,6.312 L11.564,6.312 Z" id="Shape"></path>
                <path d="M6.414,0.363 L6.414,3.236 L10.715,3.236 L10.715,-0.028 L11.854,-0.028 L11.854,4.544 L0.397,4.544 L0.397,0.175 L1.536,0.175 L1.536,3.236 L5.311,3.236 L5.311,0.363 L6.414,0.363 L6.414,0.363 Z" id="Shape"></path>
            </g>
            <g id="Group" transform="translate(218.000000, 250.000000)" fill="#4C5655" sketch:type="MSShapeGroup">
                <path d="M0.117,0.366 C0.799,0.19 1.613,0.08 2.581,0.08 C3.945,0.08 5.089,0.41 5.859,1.181 C6.585,1.885 6.959,2.963 6.959,4.24 C6.959,5.604 6.629,6.528 6.057,7.276 C5.243,8.377 3.878,8.926 2.558,8.926 C2.272,8.926 2.052,8.926 1.81,8.904 L1.81,14.977 L0.116,14.977 L0.116,0.366 L0.117,0.366 Z M1.812,7.473 C2.01,7.517 2.186,7.538 2.472,7.538 C4.144,7.538 5.266,6.438 5.266,4.348 C5.266,2.83 4.628,1.466 2.758,1.466 C2.362,1.466 2.032,1.51 1.812,1.575 L1.812,7.473 L1.812,7.473 Z" id="Shape"></path>
                <path d="M10.589,0.146 L10.589,14.976 L8.895,14.976 L8.895,0.146 L10.589,0.146 L10.589,0.146 Z" id="Shape"></path>
                <path d="M13.273,0.366 C13.955,0.19 14.769,0.08 15.737,0.08 C17.101,0.08 18.245,0.41 19.015,1.181 C19.741,1.885 20.115,2.963 20.115,4.24 C20.115,5.604 19.785,6.528 19.213,7.276 C18.399,8.377 17.034,8.926 15.714,8.926 C15.428,8.926 15.208,8.926 14.966,8.904 L14.966,14.977 L13.272,14.977 L13.272,0.366 L13.273,0.366 Z M14.967,7.473 C15.165,7.517 15.341,7.538 15.627,7.538 C17.299,7.538 18.421,6.438 18.421,4.348 C18.421,2.83 17.783,1.466 15.913,1.466 C15.517,1.466 15.187,1.51 14.967,1.575 L14.967,7.473 L14.967,7.473 Z" id="Shape"></path>
                <path d="M27.463,7.935 L23.745,7.935 L23.745,13.501 L27.97,13.501 L27.97,14.976 L22.051,14.976 L22.051,0.146 L27.706,0.146 L27.706,1.621 L23.746,1.621 L23.746,6.505 L27.464,6.505 L27.464,7.935 L27.463,7.935 Z" id="Shape"></path>
                <path d="M29.838,0.146 L31.532,0.146 L31.532,13.545 L35.712,13.545 L35.712,14.976 L29.837,14.976 L29.837,0.146 L29.838,0.146 Z" id="Shape"></path>
                <path d="M39.101,0.146 L39.101,14.976 L37.407,14.976 L37.407,0.146 L39.101,0.146 L39.101,0.146 Z" id="Shape"></path>
                <path d="M41.784,14.976 L41.784,0.146 L43.39,0.146 L46.119,7.099 C46.735,8.683 47.505,10.663 48.011,12.27 L48.055,12.27 C47.923,9.937 47.857,8.023 47.857,5.449 L47.857,0.146 L49.375,0.146 L49.375,14.976 L47.769,14.976 L44.953,7.847 C44.359,6.351 43.721,4.657 43.193,2.808 L43.149,2.808 C43.281,4.788 43.325,6.681 43.325,9.849 L43.325,14.976 L41.784,14.976 L41.784,14.976 Z" id="Shape"></path>
                <path d="M57.427,7.935 L53.709,7.935 L53.709,13.501 L57.934,13.501 L57.934,14.976 L52.015,14.976 L52.015,0.146 L57.67,0.146 L57.67,1.621 L53.71,1.621 L53.71,6.505 L57.428,6.505 L57.428,7.935 L57.427,7.935 Z" id="Shape"></path>
            </g>
            <path d="M478.277,406.519 C478.277,412.019 473.777,416.519 468.277,416.519 L25.001,416.519 C19.501,416.519 15.001,412.019 15.001,406.519 L15.001,246.019 C15.001,240.519 19.501,236.019 25.001,236.019 L468.277,236.019 C473.777,236.019 478.277,240.519 478.277,246.019 L478.277,406.519 L478.277,406.519 Z" id="Shape" stroke="#4C5655" sketch:type="MSShapeGroup"></path>
            <path d="M475.777,406.019 C475.777,410.419 472.177,414.019 467.777,414.019 L25.501,414.019 C21.101,414.019 17.501,410.419 17.501,406.019 L17.501,246.519 C17.501,242.119 21.101,238.519 25.501,238.519 L467.777,238.519 C472.177,238.519 475.777,242.119 475.777,246.519 L475.777,406.019 L475.777,406.019 Z" id="Shape" stroke="#4C5655" sketch:type="MSShapeGroup"></path>
            <circle id="Oval" fill="#66AC4D" sketch:type="MSShapeGroup" cx="191" cy="316" r="20"></circle>
            <circle id="Oval" fill="#66AC4D" sketch:type="MSShapeGroup" cx="79" cy="316" r="20"></circle>
            <circle id="Oval" fill="#FF0000" sketch:type="MSShapeGroup" cx="247" cy="382" r="20"></circle>
            <circle id="Oval" fill="#FCB732" sketch:type="MSShapeGroup" cx="303" cy="316" r="20"></circle>
            <circle id="Oval" fill="#66AC4D" sketch:type="MSShapeGroup" cx="415" cy="316" r="20"></circle>
            <g id="Group" transform="translate(99.000000, 313.000000)" sketch:type="MSShapeGroup">
                <path d="M-0.464,3.019 L66.582,3.019" id="Shape" stroke="#4C5655"></path>
                <path d="M65.561,6.489 L71.605,2.999 L65.561,-0.491 L65.561,6.489 Z" id="Shape" fill="#4C5655"></path>
            </g>
            <g id="Group" transform="translate(243.000000, 344.000000)" sketch:type="MSShapeGroup">
                <path d="M3.702,-0.481 L3.702,12.495" id="Shape" stroke="#4C5655" stroke-dasharray="5,5"></path>
                <path d="M0.231,11.474 L3.721,17.519 L7.212,11.474 L0.231,11.474 Z" id="Shape" fill="#4C5655"></path>
            </g>
            <g id="Group" transform="translate(211.000000, 313.000000)" sketch:type="MSShapeGroup">
                <path d="M-0.395,3.019 L66.651,3.019" id="Shape" stroke="#4C5655"></path>
                <path d="M65.63,6.489 L71.675,2.999 L65.63,-0.491 L65.63,6.489 Z" id="Shape" fill="#4C5655"></path>
            </g>
            <g id="Group" transform="translate(187.000000, 466.000000)" sketch:type="MSShapeGroup">
                <path d="M4.879,3.477 L114.401,3.477" id="Shape" stroke="#4C5655"></path>
                <path d="M5.9,6.947 L-0.145,3.457 L5.9,-0.033 L5.9,6.947 Z" id="Shape" fill="#4C5655"></path>
                <path d="M113.38,6.947 L119.425,3.457 L113.38,-0.033 L113.38,6.947 Z" id="Shape" fill="#4C5655"></path>
            </g>
            <g id="Group" transform="translate(323.000000, 313.000000)" sketch:type="MSShapeGroup">
                <path d="M-0.325,3.019 L66.721,3.019" id="Shape" stroke="#4C5655"></path>
                <path d="M65.699,6.489 L71.744,2.999 L65.699,-0.491 L65.699,6.489 Z" id="Shape" fill="#4C5655"></path>
            </g>
            <g id="Group" transform="translate(478.000000, 313.000000)" sketch:type="MSShapeGroup">
                <path d="M15.276,3.019 L5.301,3.019" id="Shape" stroke="#4C5655"></path>
                <path d="M6.322,-0.452 L0.277,3.038 L6.322,6.528 L6.322,-0.452 Z" id="Shape" fill="#4C5655"></path>
            </g>
            <path d="M190.604,336.019 L190.604,340.019 C190.604,341.669 191.954,343.019 193.604,343.019 L299.674,343.019 C301.324,343.019 302.674,341.669 302.674,340.019 L302.674,336.019" id="Shape" stroke="#4C5655" stroke-dasharray="4" sketch:type="MSShapeGroup"></path>
            <g id="Group" transform="translate(79.000000, 336.000000)" sketch:type="MSShapeGroup">
                <path d="M-0.464,0.019 L-0.464,42.519 C-0.464,44.169 0.886,45.519 2.536,45.519 L142.679,45.519" id="Shape" stroke="#4C5655" stroke-dasharray="4,4"></path>
                <path d="M141.657,48.989 L147.702,45.499 L141.657,42.009 L141.657,48.989 Z" id="Shape" fill="#4C5655"></path>
            </g>
            <g id="Group" transform="translate(267.000000, 336.000000)" sketch:type="MSShapeGroup">
                <path d="M147.744,0.019 L147.744,42.519 C147.744,44.169 146.394,45.519 144.744,45.519 L4.726,45.519" id="Shape" stroke="#4C5655" stroke-dasharray="4,4"></path>
                <path d="M5.747,42.048 L-0.298,45.538 L5.747,49.028 L5.747,42.048 Z" id="Shape" fill="#4C5655"></path>
            </g>
            <g id="Group" transform="translate(15.000000, 91.000000)" sketch:type="MSShapeGroup">
                <path d="M463.278,122.259 C463.278,127.759 458.778,132.259 453.278,132.259 L10.001,132.259 C4.501,132.259 0.001,127.759 0.001,122.259 L0.001,10.267 C0.001,4.767 4.501,0.267 10.001,0.267 L453.278,0.267 C458.778,0.267 463.278,4.767 463.278,10.267 L463.278,122.259 L463.278,122.259 Z" id="Shape" fill="#E5E5E5"></path>
                <path d="M463.278,122.259 C463.278,127.759 458.778,132.259 453.278,132.259 L10.001,132.259 C4.501,132.259 0.001,127.759 0.001,122.259 L0.001,10.267 C0.001,4.767 4.501,0.267 10.001,0.267 L453.278,0.267 C458.778,0.267 463.278,4.767 463.278,10.267 L463.278,122.259 L463.278,122.259 Z" id="Shape" stroke="#4C5655"></path>
            </g>
            <g id="Group" transform="translate(254.000000, 132.000000)" sketch:type="MSShapeGroup">
                <g id="Shape">
                    <path d="M97.209,66.011 C97.209,71.511 92.709,76.011 87.209,76.011 L10.141,76.011 C4.641,76.011 0.141,71.511 0.141,66.011 L0.141,10.095 C0.141,4.595 4.641,0.095 10.141,0.095 L87.209,0.095 C92.709,0.095 97.209,4.595 97.209,10.095 L97.209,66.011 L97.209,66.011 Z" fill="#FFFFFF"></path>
                    <path d="M97.209,66.011 C97.209,71.511 92.709,76.011 87.209,76.011 L10.141,76.011 C4.641,76.011 0.141,71.511 0.141,66.011 L0.141,10.095 C0.141,4.595 4.641,0.095 10.141,0.095 L87.209,0.095 C92.709,0.095 97.209,4.595 97.209,10.095 L97.209,66.011 L97.209,66.011 Z" stroke="#4C5655"></path>
                </g>
                <g transform="translate(28.000000, 23.000000)" id="Shape" fill="#4C5655">
                    <path d="M9.132,0.255 C9.694,0.103 10.373,0.034 11.019,0.034 C12.158,0.034 13.008,0.272 13.602,0.849 C14.164,1.427 14.402,2.193 14.402,3.093 C14.402,4.555 13.721,5.507 12.566,6.033 L12.566,6.067 C13.416,6.322 13.858,7.138 14.113,8.634 C14.368,10.214 14.606,11.183 14.759,11.54 L13.433,11.54 C13.263,11.2 13.042,10.112 12.822,8.701 C12.567,7.138 12.074,6.543 10.953,6.543 L10.442,6.543 L10.442,11.54 L9.133,11.54 L9.133,0.255 L9.132,0.255 Z M10.44,5.542 L10.984,5.542 C12.242,5.542 13.075,4.624 13.075,3.247 C13.075,1.921 12.531,1.105 11.121,1.088 C10.865,1.088 10.61,1.106 10.44,1.156 L10.44,5.542 L10.44,5.542 Z"></path>
                    <path d="M20.267,6.103 L17.394,6.103 L17.394,10.404 L20.658,10.404 L20.658,11.543 L16.086,11.543 L16.086,0.086 L20.454,0.086 L20.454,1.225 L17.394,1.225 L17.394,4.999 L20.267,4.999 L20.267,6.103 L20.267,6.103 Z"></path>
                    <path d="M21.848,10.03 C22.239,10.285 22.918,10.489 23.496,10.489 C24.685,10.489 25.4,9.707 25.4,8.551 C25.4,7.496 24.788,6.851 23.886,6.171 C22.986,5.542 21.728,4.471 21.728,2.992 C21.728,1.258 22.935,-0.017 24.753,-0.017 C25.468,-0.017 26.097,0.204 26.368,0.408 L26.045,1.53 C25.756,1.326 25.28,1.138 24.685,1.138 C23.564,1.138 23.037,1.989 23.037,2.77 C23.037,3.91 23.633,4.351 24.721,5.133 C26.098,6.102 26.709,7.155 26.709,8.431 C26.709,10.403 25.314,11.643 23.496,11.643 C22.715,11.643 21.881,11.388 21.558,11.151 L21.848,10.03 L21.848,10.03 Z"></path>
                    <path d="M29.582,1.258 L27.491,1.258 L27.491,0.085 L32.981,0.085 L32.981,1.258 L30.89,1.258 L30.89,11.542 L29.581,11.542 L29.581,1.258 L29.582,1.258 Z"></path>
                    <path d="M0.437,27.03 C0.828,27.285 1.508,27.489 2.085,27.489 C3.275,27.489 3.988,26.707 3.988,25.551 C3.988,24.496 3.377,23.851 2.476,23.171 C1.575,22.542 0.317,21.471 0.317,19.992 C0.317,18.258 1.524,16.983 3.342,16.983 C4.056,16.983 4.685,17.204 4.957,17.408 L4.634,18.53 C4.345,18.326 3.869,18.138 3.275,18.138 C2.153,18.138 1.626,18.989 1.626,19.77 C1.626,20.91 2.221,21.351 3.309,22.133 C4.686,23.102 5.298,24.155 5.298,25.431 C5.298,27.403 3.904,28.643 2.085,28.643 C1.303,28.643 0.471,28.388 0.147,28.151 L0.437,27.03 L0.437,27.03 Z"></path>
                    <path d="M11.01,23.103 L8.137,23.103 L8.137,27.404 L11.401,27.404 L11.401,28.543 L6.829,28.543 L6.829,17.086 L11.198,17.086 L11.198,18.225 L8.137,18.225 L8.137,21.999 L11.01,21.999 L11.01,23.103 L11.01,23.103 Z"></path>
                    <path d="M12.846,17.255 C13.407,17.103 14.086,17.034 14.733,17.034 C15.872,17.034 16.721,17.272 17.317,17.849 C17.878,18.427 18.116,19.193 18.116,20.093 C18.116,21.555 17.436,22.507 16.28,23.033 L16.28,23.067 C17.13,23.322 17.572,24.138 17.827,25.634 C18.082,27.214 18.319,28.183 18.473,28.54 L17.147,28.54 C16.977,28.2 16.756,27.112 16.535,25.701 C16.28,24.138 15.787,23.543 14.665,23.543 L14.155,23.543 L14.155,28.54 L12.846,28.54 L12.846,17.255 L12.846,17.255 Z M14.154,22.542 L14.698,22.542 C15.956,22.542 16.789,21.624 16.789,20.247 C16.789,18.921 16.245,18.105 14.834,18.088 C14.58,18.088 14.324,18.106 14.154,18.156 L14.154,22.542 L14.154,22.542 Z"></path>
                    <path d="M21.668,28.542 L19.051,17.085 L20.446,17.085 L21.567,22.457 C21.838,23.748 22.179,25.397 22.383,26.859 L22.434,26.859 C22.604,25.38 22.926,23.782 23.199,22.422 L24.287,17.084 L25.681,17.084 L23.013,28.541 L21.668,28.541 L21.668,28.542 Z"></path>
                    <path d="M28.264,17.085 L28.264,28.542 L26.955,28.542 L26.955,17.085 L28.264,17.085 L28.264,17.085 Z"></path>
                    <path d="M35.336,28.338 C34.979,28.526 34.418,28.644 33.704,28.644 C31.46,28.644 29.862,26.842 29.862,22.95 C29.862,18.429 32.105,16.984 33.908,16.984 C34.605,16.984 35.097,17.12 35.336,17.273 L35.047,18.377 C34.776,18.258 34.486,18.139 33.891,18.139 C32.667,18.139 31.24,19.329 31.24,22.83 C31.24,26.332 32.532,27.488 33.926,27.488 C34.419,27.488 34.861,27.369 35.133,27.233 L35.336,28.338 L35.336,28.338 Z"></path>
                    <path d="M40.861,23.103 L37.988,23.103 L37.988,27.404 L41.252,27.404 L41.252,28.543 L36.68,28.543 L36.68,17.086 L41.048,17.086 L41.048,18.225 L37.988,18.225 L37.988,21.999 L40.861,21.999 L40.861,23.103 L40.861,23.103 Z"></path>
                </g>
            </g>
            <path d="M631.347,449.56 C631.347,455.06 626.847,459.56 621.347,459.56 L544.279,459.56 C538.779,459.56 534.279,455.06 534.279,449.56 L534.279,393.644 C534.279,388.144 538.779,383.644 544.279,383.644 L621.347,383.644 C626.847,383.644 631.347,388.144 631.347,393.644 L631.347,449.56 L631.347,449.56 Z" id="Shape" fill="#3D9FAC" sketch:type="MSShapeGroup"></path>
            <g id="Group" transform="translate(552.000000, 407.000000)" fill="#FFFFFF" sketch:type="MSShapeGroup">
                <path d="M15.47,-0.195 C16.032,-0.347 16.711,-0.416 17.357,-0.416 C18.496,-0.416 19.346,-0.178 19.94,0.398 C20.502,0.976 20.74,1.742 20.74,2.642 C20.74,4.105 20.059,5.056 18.904,5.583 L18.904,5.616 C19.754,5.872 20.196,6.688 20.451,8.184 C20.706,9.764 20.944,10.733 21.097,11.09 L19.771,11.09 C19.601,10.75 19.38,9.662 19.16,8.25 C18.905,6.688 18.412,6.092 17.291,6.092 L16.78,6.092 L16.78,11.09 L15.471,11.09 L15.471,-0.195 L15.47,-0.195 Z M16.778,5.092 L17.322,5.092 C18.58,5.092 19.413,4.174 19.413,2.797 C19.413,1.471 18.869,0.654 17.459,0.637 C17.203,0.637 16.948,0.655 16.778,0.705 L16.778,5.092 L16.778,5.092 Z" id="Shape"></path>
                <path d="M23.715,-0.365 L23.715,7.319 C23.715,9.376 24.395,10.073 25.278,10.073 C26.248,10.073 26.859,9.325 26.859,7.319 L26.859,-0.365 L28.168,-0.365 L28.168,7.114 C28.168,10.089 26.944,11.227 25.244,11.227 C23.527,11.227 22.406,10.106 22.406,7.268 L22.406,-0.365 L23.715,-0.365 L23.715,-0.365 Z" id="Shape"></path>
                <path d="M30.191,-0.365 L31.5,-0.365 L31.5,9.987 L34.73,9.987 L34.73,11.092 L30.191,11.092 L30.191,-0.365 L30.191,-0.365 Z" id="Shape"></path>
                <path d="M40.221,5.652 L37.348,5.652 L37.348,9.953 L40.612,9.953 L40.612,11.092 L36.04,11.092 L36.04,-0.365 L40.409,-0.365 L40.409,0.774 L37.348,0.774 L37.348,4.547 L40.221,4.547 L40.221,5.652 L40.221,5.652 Z" id="Shape"></path>
                <path d="M41.803,9.578 C42.194,9.834 42.873,10.037 43.451,10.037 C44.64,10.037 45.354,9.256 45.354,8.099 C45.354,7.044 44.742,6.4 43.841,5.72 C42.941,5.091 41.683,4.019 41.683,2.54 C41.683,0.806 42.89,-0.468 44.708,-0.468 C45.422,-0.468 46.051,-0.247 46.323,-0.044 L46,1.08 C45.711,0.875 45.236,0.687 44.641,0.687 C43.52,0.687 42.993,1.539 42.993,2.32 C42.993,3.459 43.588,3.9 44.676,4.683 C46.053,5.652 46.665,6.704 46.665,7.98 C46.665,9.953 45.27,11.193 43.452,11.193 C42.67,11.193 41.837,10.937 41.514,10.701 L41.803,9.578 L41.803,9.578 Z" id="Shape"></path>
                <path d="M5.771,28.092 C5.55,27.785 5.38,27.565 4.989,27.02 C4.377,27.803 3.442,28.227 2.524,28.227 C0.603,28.227 -0.331,26.647 -0.331,25.049 C-0.331,23.809 0.213,22.686 1.42,21.785 L1.42,21.734 C0.927,20.951 0.586,20.119 0.586,19.168 C0.586,17.773 1.453,16.498 2.933,16.498 C3.969,16.498 4.938,17.281 4.938,18.861 C4.938,19.982 4.428,20.9 2.984,21.937 L2.984,21.988 C3.409,22.703 4.276,24.045 5.16,25.236 C5.67,24.181 5.823,22.72 5.856,21.955 L7.012,21.955 C6.893,23.297 6.536,24.947 5.772,26.101 C5.975,26.425 6.418,27.003 7.233,28.091 L5.771,28.091 L5.771,28.092 Z M4.428,26.188 C3.443,24.862 2.644,23.655 1.947,22.584 C1.437,23.076 0.927,23.875 0.927,24.912 C0.927,26.086 1.539,27.189 2.729,27.189 C3.426,27.189 4.004,26.816 4.428,26.188 L4.428,26.188 Z M1.793,19.082 C1.793,19.881 1.998,20.477 2.439,21.174 C3.323,20.51 3.798,19.797 3.798,18.912 C3.798,18.215 3.544,17.467 2.813,17.467 C2.133,17.467 1.793,18.182 1.793,19.082 L1.793,19.082 Z" id="Shape"></path>
                <path d="M11.212,16.805 C11.738,16.668 12.367,16.584 13.115,16.584 C14.17,16.584 15.053,16.838 15.648,17.434 C16.209,17.977 16.498,18.811 16.498,19.797 C16.498,20.85 16.243,21.565 15.801,22.143 C15.172,22.993 14.119,23.416 13.099,23.416 C12.877,23.416 12.707,23.416 12.521,23.4 L12.521,28.091 L11.212,28.091 L11.212,16.805 L11.212,16.805 Z M12.521,22.295 C12.674,22.328 12.81,22.346 13.032,22.346 C14.323,22.346 15.19,21.496 15.19,19.881 C15.19,18.709 14.697,17.654 13.252,17.654 C12.945,17.654 12.69,17.687 12.521,17.74 L12.521,22.295 L12.521,22.295 Z" id="Shape"></path>
                <path d="M19.303,16.635 L19.303,28.092 L17.994,28.092 L17.994,16.635 L19.303,16.635 L19.303,16.635 Z" id="Shape"></path>
                <path d="M21.377,16.805 C21.904,16.668 22.533,16.584 23.281,16.584 C24.335,16.584 25.219,16.838 25.814,17.434 C26.375,17.977 26.664,18.811 26.664,19.797 C26.664,20.85 26.408,21.565 25.967,22.143 C25.338,22.993 24.284,23.416 23.264,23.416 C23.043,23.416 22.873,23.416 22.686,23.4 L22.686,28.091 L21.377,28.091 L21.377,16.805 L21.377,16.805 Z M22.686,22.295 C22.84,22.328 22.975,22.346 23.197,22.346 C24.489,22.346 25.356,21.496 25.356,19.881 C25.356,18.709 24.862,17.654 23.418,17.654 C23.112,17.654 22.856,17.687 22.687,17.74 L22.687,22.295 L22.686,22.295 Z" id="Shape"></path>
                <path d="M32.342,22.652 L29.469,22.652 L29.469,26.953 L32.733,26.953 L32.733,28.092 L28.161,28.092 L28.161,16.635 L32.53,16.635 L32.53,17.774 L29.469,17.774 L29.469,21.547 L32.342,21.547 L32.342,22.652 L32.342,22.652 Z" id="Shape"></path>
                <path d="M34.178,16.635 L35.487,16.635 L35.487,26.987 L38.717,26.987 L38.717,28.092 L34.178,28.092 L34.178,16.635 L34.178,16.635 Z" id="Shape"></path>
                <path d="M41.334,16.635 L41.334,28.092 L40.025,28.092 L40.025,16.635 L41.334,16.635 L41.334,16.635 Z" id="Shape"></path>
                <path d="M43.408,28.092 L43.408,16.635 L44.649,16.635 L46.757,22.006 C47.233,23.231 47.827,24.76 48.218,26 L48.252,26 C48.149,24.199 48.099,22.721 48.099,20.73 L48.099,16.634 L49.273,16.634 L49.273,28.091 L48.032,28.091 L45.856,22.583 C45.397,21.427 44.904,20.118 44.496,18.69 L44.463,18.69 C44.565,20.219 44.599,21.682 44.599,24.129 L44.599,28.09 L43.408,28.09 L43.408,28.092 Z" id="Shape"></path>
                <path d="M55.495,22.652 L52.622,22.652 L52.622,26.953 L55.886,26.953 L55.886,28.092 L51.314,28.092 L51.314,16.635 L55.682,16.635 L55.682,17.774 L52.622,17.774 L52.622,21.547 L55.495,21.547 L55.495,22.652 L55.495,22.652 Z" id="Shape"></path>
                <path d="M57.076,26.578 C57.467,26.834 58.146,27.037 58.724,27.037 C59.913,27.037 60.628,26.256 60.628,25.099 C60.628,24.044 60.016,23.4 59.114,22.72 C58.214,22.091 56.956,21.019 56.956,19.54 C56.956,17.806 58.163,16.532 59.981,16.532 C60.696,16.532 61.325,16.753 61.596,16.956 L61.273,18.079 C60.984,17.874 60.508,17.686 59.913,17.686 C58.792,17.686 58.265,18.538 58.265,19.319 C58.265,20.458 58.861,20.899 59.949,21.682 C61.326,22.651 61.937,23.703 61.937,24.979 C61.937,26.952 60.542,28.192 58.724,28.192 C57.943,28.192 57.109,27.936 56.786,27.7 L57.076,26.578 L57.076,26.578 Z" id="Shape"></path>
            </g>
            <g id="Group" transform="translate(254.000000, 0.000000)" sketch:type="MSShapeGroup">
                <g id="Shape">
                    <path d="M97.209,66.011 C97.209,71.511 92.709,76.011 87.209,76.011 L10.141,76.011 C4.641,76.011 0.141,71.511 0.141,66.011 L0.141,10.095 C0.141,4.595 4.641,0.095 10.141,0.095 L87.209,0.095 C92.709,0.095 97.209,4.595 97.209,10.095 L97.209,66.011 L97.209,66.011 Z" fill="#FFFFFF"></path>
                    <path d="M97.209,66.011 C97.209,71.511 92.709,76.011 87.209,76.011 L10.141,76.011 C4.641,76.011 0.141,71.511 0.141,66.011 L0.141,10.095 C0.141,4.595 4.641,0.095 10.141,0.095 L87.209,0.095 C92.709,0.095 97.209,4.595 97.209,10.095 L97.209,66.011 L97.209,66.011 Z" stroke="#4C5655"></path>
                </g>
                <g transform="translate(24.000000, 23.000000)" id="Shape" fill="#4C5655">
                    <path d="M1.291,0.085 L1.291,11.542 L-0.018,11.542 L-0.018,0.085 L1.291,0.085 L1.291,0.085 Z"></path>
                    <path d="M3.365,11.542 L3.365,0.085 L4.605,0.085 L6.713,5.457 C7.189,6.681 7.784,8.21 8.175,9.451 L8.208,9.451 C8.106,7.649 8.056,6.171 8.056,4.181 L8.056,0.084 L9.229,0.084 L9.229,11.541 L7.988,11.541 L5.812,6.033 C5.353,4.878 4.861,3.568 4.453,2.14 L4.419,2.14 C4.522,3.67 4.555,5.132 4.555,7.579 L4.555,11.54 L3.365,11.54 L3.365,11.542 Z"></path>
                    <path d="M12.613,1.258 L10.521,1.258 L10.521,0.085 L16.011,0.085 L16.011,1.258 L13.921,1.258 L13.921,11.542 L12.612,11.542 L12.612,1.258 L12.613,1.258 Z"></path>
                    <path d="M21.469,6.103 L18.596,6.103 L18.596,10.404 L21.86,10.404 L21.86,11.543 L17.288,11.543 L17.288,0.086 L21.657,0.086 L21.657,1.225 L18.596,1.225 L18.596,4.999 L21.469,4.999 L21.469,6.103 L21.469,6.103 Z"></path>
                    <path d="M23.305,0.255 C23.867,0.103 24.546,0.034 25.192,0.034 C26.331,0.034 27.181,0.272 27.776,0.849 C28.337,1.427 28.575,2.193 28.575,3.093 C28.575,4.555 27.895,5.507 26.739,6.033 L26.739,6.067 C27.59,6.322 28.032,7.138 28.286,8.634 C28.542,10.214 28.779,11.183 28.932,11.54 L27.606,11.54 C27.436,11.2 27.215,10.112 26.995,8.701 C26.739,7.138 26.247,6.543 25.125,6.543 L24.614,6.543 L24.614,11.54 L23.305,11.54 L23.305,0.255 L23.305,0.255 Z M24.613,5.542 L25.158,5.542 C26.416,5.542 27.248,4.624 27.248,3.247 C27.248,1.921 26.705,1.105 25.294,1.088 C25.039,1.088 24.783,1.106 24.613,1.156 L24.613,5.542 L24.613,5.542 Z"></path>
                    <path d="M30.258,11.542 L30.258,0.085 L31.499,0.085 L33.607,5.457 C34.083,6.681 34.677,8.21 35.068,9.451 L35.102,9.451 C34.999,7.649 34.949,6.171 34.949,4.181 L34.949,0.084 L36.123,0.084 L36.123,11.541 L34.882,11.541 L32.706,6.033 C32.247,4.878 31.754,3.568 31.346,2.14 L31.313,2.14 C31.415,3.67 31.449,5.132 31.449,7.579 L31.449,11.54 L30.258,11.54 L30.258,11.542 Z"></path>
                    <path d="M39.54,8.109 L38.775,11.543 L37.517,11.543 L40.134,0.086 L41.579,0.086 L44.128,11.543 L42.837,11.543 L42.071,8.109 L39.54,8.109 L39.54,8.109 Z M41.902,7.055 L41.307,4.148 C41.137,3.333 40.984,2.38 40.848,1.531 L40.781,1.531 C40.644,2.397 40.474,3.384 40.322,4.148 L39.726,7.055 L41.902,7.055 L41.902,7.055 Z"></path>
                    <path d="M45.559,0.085 L46.868,0.085 L46.868,10.438 L50.097,10.438 L50.097,11.542 L45.559,11.542 L45.559,0.085 L45.559,0.085 Z"></path>
                    <path d="M4.93,27.03 C5.321,27.285 6,27.489 6.578,27.489 C7.767,27.489 8.481,26.707 8.481,25.551 C8.481,24.496 7.869,23.851 6.968,23.171 C6.068,22.542 4.81,21.471 4.81,19.992 C4.81,18.258 6.017,16.983 7.835,16.983 C8.549,16.983 9.178,17.204 9.45,17.408 L9.126,18.53 C8.837,18.326 8.362,18.138 7.767,18.138 C6.646,18.138 6.119,18.989 6.119,19.77 C6.119,20.91 6.714,21.351 7.802,22.133 C9.179,23.102 9.791,24.155 9.791,25.431 C9.791,27.403 8.396,28.643 6.578,28.643 C5.796,28.643 4.963,28.388 4.64,28.151 L4.93,27.03 L4.93,27.03 Z"></path>
                    <path d="M12.986,28.542 L12.986,23.697 L10.47,17.085 L11.847,17.085 L12.867,19.958 C13.156,20.757 13.463,21.657 13.717,22.542 L13.752,22.542 C13.989,21.657 14.278,20.791 14.584,19.907 L15.553,17.085 L16.93,17.085 L14.295,23.647 L14.295,28.543 L12.986,28.543 L12.986,28.542 Z"></path>
                    <path d="M17.594,27.03 C17.985,27.285 18.664,27.489 19.242,27.489 C20.431,27.489 21.146,26.707 21.146,25.551 C21.146,24.496 20.534,23.851 19.632,23.171 C18.732,22.542 17.474,21.471 17.474,19.992 C17.474,18.258 18.681,16.983 20.499,16.983 C21.214,16.983 21.843,17.204 22.114,17.408 L21.791,18.53 C21.502,18.326 21.026,18.138 20.431,18.138 C19.31,18.138 18.783,18.989 18.783,19.77 C18.783,20.91 19.379,21.351 20.467,22.133 C21.844,23.102 22.455,24.155 22.455,25.431 C22.455,27.403 21.06,28.643 19.242,28.643 C18.461,28.643 17.627,28.388 17.304,28.151 L17.594,27.03 L17.594,27.03 Z"></path>
                    <path d="M25.328,18.258 L23.237,18.258 L23.237,17.085 L28.727,17.085 L28.727,18.258 L26.636,18.258 L26.636,28.542 L25.327,28.542 L25.327,18.258 L25.328,18.258 Z"></path>
                    <path d="M34.185,23.103 L31.312,23.103 L31.312,27.404 L34.576,27.404 L34.576,28.543 L30.004,28.543 L30.004,17.086 L34.372,17.086 L34.372,18.225 L31.312,18.225 L31.312,21.999 L34.185,21.999 L34.185,23.103 L34.185,23.103 Z"></path>
                    <path d="M42.955,23.613 C42.871,22.1 42.785,20.418 42.837,19.126 L42.769,19.126 C42.514,20.4 42.208,21.761 41.851,23.104 L40.44,28.475 L39.608,28.475 L38.264,23.325 C37.891,21.863 37.551,20.453 37.329,19.127 L37.278,19.127 C37.278,20.47 37.211,22.067 37.142,23.699 L36.921,28.544 L35.747,28.544 L36.427,17.087 L37.839,17.087 L39.181,22.322 C39.573,23.835 39.861,24.957 40.099,26.266 L40.15,26.266 C40.372,24.956 40.627,23.869 41.001,22.322 L42.293,17.087 L43.754,17.087 L44.418,28.544 L43.193,28.544 L42.955,23.613 L42.955,23.613 Z"></path>
                </g>
            </g>
            <g id="Group" transform="translate(30.000000, 132.000000)" sketch:type="MSShapeGroup">
                <g id="Shape">
                    <path d="M97.071,66.011 C97.071,71.511 92.571,76.011 87.071,76.011 L10.002,76.011 C4.502,76.011 0.002,71.511 0.002,66.011 L0.002,10.095 C0.002,4.595 4.502,0.095 10.002,0.095 L87.071,0.095 C92.571,0.095 97.071,4.595 97.071,10.095 L97.071,66.011 L97.071,66.011 Z" fill="#FFFFFF"></path>
                    <path d="M97.071,66.011 C97.071,71.511 92.571,76.011 87.071,76.011 L10.002,76.011 C4.502,76.011 0.002,71.511 0.002,66.011 L0.002,10.095 C0.002,4.595 4.502,0.095 10.002,0.095 L87.071,0.095 C92.571,0.095 97.071,4.595 97.071,10.095 L97.071,66.011 L97.071,66.011 Z" stroke="#4C5655"></path>
                </g>
                <g transform="translate(28.000000, 23.000000)" id="Shape" fill="#4C5655">
                    <path d="M8.993,0.255 C9.554,0.103 10.234,0.034 10.88,0.034 C12.019,0.034 12.869,0.272 13.463,0.849 C14.024,1.427 14.262,2.193 14.262,3.093 C14.262,4.555 13.582,5.507 12.426,6.033 L12.426,6.067 C13.276,6.322 13.718,7.138 13.973,8.634 C14.228,10.214 14.466,11.183 14.619,11.54 L13.293,11.54 C13.123,11.2 12.902,10.112 12.681,8.701 C12.426,7.138 11.933,6.543 10.811,6.543 L10.301,6.543 L10.301,11.54 L8.992,11.54 L8.992,0.255 L8.993,0.255 Z M10.302,5.542 L10.846,5.542 C12.104,5.542 12.937,4.624 12.937,3.247 C12.937,1.921 12.393,1.105 10.982,1.088 C10.727,1.088 10.472,1.106 10.302,1.156 L10.302,5.542 L10.302,5.542 Z"></path>
                    <path d="M20.128,6.103 L17.255,6.103 L17.255,10.404 L20.519,10.404 L20.519,11.543 L15.947,11.543 L15.947,0.086 L20.316,0.086 L20.316,1.225 L17.256,1.225 L17.256,4.999 L20.129,4.999 L20.129,6.103 L20.128,6.103 Z"></path>
                    <path d="M21.709,10.03 C22.1,10.285 22.78,10.489 23.357,10.489 C24.547,10.489 25.261,9.707 25.261,8.551 C25.261,7.496 24.649,6.851 23.748,6.171 C22.847,5.542 21.589,4.471 21.589,2.992 C21.589,1.258 22.796,-0.017 24.614,-0.017 C25.328,-0.017 25.957,0.204 26.229,0.408 L25.906,1.53 C25.617,1.326 25.141,1.138 24.546,1.138 C23.424,1.138 22.897,1.989 22.897,2.77 C22.897,3.91 23.492,4.351 24.58,5.133 C25.957,6.102 26.569,7.155 26.569,8.431 C26.569,10.403 25.175,11.643 23.356,11.643 C22.574,11.643 21.741,11.388 21.418,11.151 L21.709,10.03 L21.709,10.03 Z"></path>
                    <path d="M29.443,1.258 L27.352,1.258 L27.352,0.085 L32.842,0.085 L32.842,1.258 L30.751,1.258 L30.751,11.542 L29.442,11.542 L29.442,1.258 L29.443,1.258 Z"></path>
                    <path d="M0.298,27.03 C0.689,27.285 1.369,27.489 1.946,27.489 C3.136,27.489 3.85,26.707 3.85,25.551 C3.85,24.496 3.238,23.851 2.337,23.171 C1.436,22.542 0.178,21.471 0.178,19.992 C0.178,18.258 1.385,16.983 3.203,16.983 C3.917,16.983 4.546,17.204 4.818,17.408 L4.495,18.53 C4.206,18.326 3.73,18.138 3.135,18.138 C2.013,18.138 1.486,18.989 1.486,19.77 C1.486,20.91 2.081,21.351 3.169,22.133 C4.546,23.102 5.158,24.155 5.158,25.431 C5.158,27.403 3.764,28.643 1.945,28.643 C1.163,28.643 0.33,28.388 0.007,28.151 L0.298,27.03 L0.298,27.03 Z"></path>
                    <path d="M10.871,23.103 L7.998,23.103 L7.998,27.404 L11.262,27.404 L11.262,28.543 L6.69,28.543 L6.69,17.086 L11.059,17.086 L11.059,18.225 L7.999,18.225 L7.999,21.999 L10.872,21.999 L10.872,23.103 L10.871,23.103 Z"></path>
                    <path d="M12.707,17.255 C13.268,17.103 13.948,17.034 14.594,17.034 C15.733,17.034 16.583,17.272 17.177,17.849 C17.738,18.427 17.976,19.193 17.976,20.093 C17.976,21.555 17.296,22.507 16.14,23.033 L16.14,23.067 C16.99,23.322 17.432,24.138 17.687,25.634 C17.942,27.214 18.18,28.183 18.333,28.54 L17.007,28.54 C16.837,28.2 16.616,27.112 16.395,25.701 C16.14,24.138 15.647,23.543 14.525,23.543 L14.015,23.543 L14.015,28.54 L12.706,28.54 L12.706,17.255 L12.707,17.255 Z M14.016,22.542 L14.56,22.542 C15.818,22.542 16.651,21.624 16.651,20.247 C16.651,18.921 16.107,18.105 14.696,18.088 C14.441,18.088 14.186,18.106 14.016,18.156 L14.016,22.542 L14.016,22.542 Z"></path>
                    <path d="M21.53,28.542 L18.912,17.085 L20.306,17.085 L21.428,22.457 C21.7,23.748 22.04,25.397 22.244,26.859 L22.295,26.859 C22.465,25.38 22.788,23.782 23.06,22.422 L24.148,17.084 L25.542,17.084 L22.873,28.541 L21.53,28.541 L21.53,28.542 Z"></path>
                    <path d="M28.125,17.085 L28.125,28.542 L26.816,28.542 L26.816,17.085 L28.125,17.085 L28.125,17.085 Z"></path>
                    <path d="M35.197,28.338 C34.84,28.526 34.279,28.644 33.565,28.644 C31.321,28.644 29.723,26.842 29.723,22.95 C29.723,18.429 31.967,16.984 33.768,16.984 C34.465,16.984 34.958,17.12 35.196,17.273 L34.907,18.377 C34.635,18.258 34.346,18.139 33.751,18.139 C32.527,18.139 31.099,19.329 31.099,22.83 C31.099,26.332 32.391,27.488 33.785,27.488 C34.278,27.488 34.72,27.369 34.992,27.233 L35.197,28.338 L35.197,28.338 Z"></path>
                    <path d="M40.722,23.103 L37.849,23.103 L37.849,27.404 L41.113,27.404 L41.113,28.543 L36.541,28.543 L36.541,17.086 L40.91,17.086 L40.91,18.225 L37.85,18.225 L37.85,21.999 L40.723,21.999 L40.723,23.103 L40.722,23.103 Z"></path>
                </g>
            </g>
            <path d="M186.855,497.435 C186.855,502.935 182.355,507.435 176.855,507.435 L99.786,507.435 C94.286,507.435 89.786,502.935 89.786,497.435 L89.786,441.519 C89.786,436.019 94.286,431.519 99.786,431.519 L176.855,431.519 C182.355,431.519 186.855,436.019 186.855,441.519 L186.855,497.435 L186.855,497.435 Z" id="Shape" fill="#3D9FAC" sketch:type="MSShapeGroup"></path>
            <g id="Group" transform="translate(102.000000, 454.000000)" fill="#FFFFFF" sketch:type="MSShapeGroup">
                <path d="M1.701,8.533 L0.936,11.967 L-0.322,11.967 L2.296,0.51 L3.741,0.51 L6.291,11.967 L4.999,11.967 L4.234,8.533 L1.701,8.533 L1.701,8.533 Z M4.063,7.479 L3.468,4.573 C3.298,3.757 3.145,2.805 3.009,1.956 L2.941,1.956 C2.805,2.821 2.635,3.808 2.482,4.573 L1.887,7.479 L4.063,7.479 L4.063,7.479 Z" id="Shape"></path>
                <path d="M7.719,0.68 C8.246,0.543 8.875,0.459 9.623,0.459 C10.677,0.459 11.561,0.713 12.156,1.309 C12.717,1.852 13.006,2.686 13.006,3.672 C13.006,4.725 12.751,5.44 12.309,6.018 C11.68,6.868 10.626,7.291 9.606,7.291 C9.385,7.291 9.215,7.291 9.028,7.275 L9.028,11.966 L7.719,11.966 L7.719,0.68 L7.719,0.68 Z M9.027,6.17 C9.18,6.203 9.316,6.221 9.537,6.221 C10.829,6.221 11.696,5.371 11.696,3.756 C11.696,2.584 11.203,1.529 9.758,1.529 C9.452,1.529 9.197,1.562 9.027,1.615 L9.027,6.17 L9.027,6.17 Z" id="Shape"></path>
                <path d="M14.501,0.68 C15.028,0.543 15.657,0.459 16.405,0.459 C17.459,0.459 18.343,0.713 18.938,1.309 C19.499,1.852 19.788,2.686 19.788,3.672 C19.788,4.725 19.533,5.44 19.091,6.018 C18.462,6.868 17.408,7.291 16.388,7.291 C16.167,7.291 15.997,7.291 15.81,7.275 L15.81,11.966 L14.501,11.966 L14.501,0.68 L14.501,0.68 Z M15.81,6.17 C15.963,6.203 16.099,6.221 16.32,6.221 C17.612,6.221 18.479,5.371 18.479,3.756 C18.479,2.584 17.986,1.529 16.541,1.529 C16.235,1.529 15.98,1.562 15.81,1.615 L15.81,6.17 L15.81,6.17 Z" id="Shape"></path>
                <path d="M21.284,0.51 L22.593,0.51 L22.593,10.862 L25.823,10.862 L25.823,11.967 L21.284,11.967 L21.284,0.51 L21.284,0.51 Z" id="Shape"></path>
                <path d="M28.44,0.51 L28.44,11.967 L27.131,11.967 L27.131,0.51 L28.44,0.51 L28.44,0.51 Z" id="Shape"></path>
                <path d="M35.512,11.762 C35.155,11.95 34.594,12.069 33.88,12.069 C31.636,12.069 30.038,10.266 30.038,6.374 C30.038,1.853 32.282,0.409 34.083,0.409 C34.78,0.409 35.273,0.544 35.511,0.698 L35.222,1.802 C34.95,1.683 34.661,1.564 34.066,1.564 C32.842,1.564 31.414,2.755 31.414,6.255 C31.414,9.757 32.706,10.913 34.1,10.913 C34.593,10.913 35.035,10.794 35.307,10.659 L35.512,11.762 L35.512,11.762 Z" id="Shape"></path>
                <path d="M38.334,8.533 L37.569,11.967 L36.311,11.967 L38.929,0.51 L40.374,0.51 L42.924,11.967 L41.632,11.967 L40.867,8.533 L38.334,8.533 L38.334,8.533 Z M40.697,7.479 L40.102,4.573 C39.932,3.757 39.779,2.805 39.643,1.956 L39.575,1.956 C39.439,2.821 39.269,3.808 39.116,4.573 L38.521,7.479 L40.697,7.479 L40.697,7.479 Z" id="Shape"></path>
                <path d="M44.675,1.682 L42.584,1.682 L42.584,0.51 L48.074,0.51 L48.074,1.682 L45.983,1.682 L45.983,11.967 L44.674,11.967 L44.674,1.682 L44.675,1.682 Z" id="Shape"></path>
                <path d="M50.659,0.51 L50.659,11.967 L49.35,11.967 L49.35,0.51 L50.659,0.51 L50.659,0.51 Z" id="Shape"></path>
                <path d="M58.75,6.152 C58.75,10.453 57.271,12.101 55.436,12.101 C53.532,12.101 52.257,10.08 52.257,6.22 C52.257,2.429 53.617,0.372 55.623,0.372 C57.577,0.373 58.75,2.498 58.75,6.152 L58.75,6.152 Z M53.617,6.238 C53.617,8.601 54.076,10.947 55.521,10.947 C57,10.947 57.391,8.447 57.391,6.203 C57.391,4.062 57,1.529 55.504,1.529 C54.076,1.529 53.617,3.908 53.617,6.238 L53.617,6.238 Z" id="Shape"></path>
                <path d="M60.315,11.967 L60.315,0.51 L61.556,0.51 L63.664,5.881 C64.14,7.106 64.735,8.635 65.126,9.875 L65.16,9.875 C65.058,8.074 65.007,6.596 65.007,4.605 L65.007,0.509 L66.18,0.509 L66.18,11.966 L64.939,11.966 L62.763,6.458 C62.304,5.302 61.811,3.993 61.403,2.565 L61.369,2.565 C61.471,4.094 61.505,5.557 61.505,8.004 L61.505,11.965 L60.315,11.965 L60.315,11.967 Z" id="Shape"></path>
                <path d="M67.965,10.453 C68.356,10.709 69.036,10.912 69.613,10.912 C70.803,10.912 71.517,10.131 71.517,8.974 C71.517,7.919 70.905,7.275 70.004,6.595 C69.103,5.966 67.845,4.894 67.845,3.415 C67.845,1.681 69.052,0.407 70.871,0.407 C71.585,0.407 72.214,0.628 72.486,0.831 L72.163,1.954 C71.874,1.749 71.398,1.561 70.803,1.561 C69.681,1.561 69.154,2.413 69.154,3.194 C69.154,4.333 69.749,4.774 70.837,5.557 C72.214,6.526 72.826,7.578 72.826,8.854 C72.826,10.827 71.432,12.067 69.613,12.067 C68.831,12.067 67.998,11.811 67.675,11.575 L67.965,10.453 L67.965,10.453 Z" id="Shape"></path>
                <path d="M24.616,17.51 L24.616,22.422 L27.829,22.422 L27.829,17.51 L29.138,17.51 L29.138,28.967 L27.829,28.967 L27.829,23.612 L24.616,23.612 L24.616,28.967 L23.307,28.967 L23.307,17.51 L24.616,17.51 L24.616,17.51 Z" id="Shape"></path>
                <path d="M35.36,23.527 L32.487,23.527 L32.487,27.828 L35.751,27.828 L35.751,28.967 L31.179,28.967 L31.179,17.51 L35.548,17.51 L35.548,18.649 L32.488,18.649 L32.488,22.422 L35.361,22.422 L35.361,23.527 L35.36,23.527 Z" id="Shape"></path>
                <path d="M38.573,25.533 L37.808,28.967 L36.55,28.967 L39.168,17.51 L40.613,17.51 L43.163,28.967 L41.871,28.967 L41.106,25.533 L38.573,25.533 L38.573,25.533 Z M40.935,24.479 L40.34,21.573 C40.17,20.757 40.017,19.805 39.881,18.956 L39.813,18.956 C39.677,19.821 39.507,20.808 39.354,21.573 L38.759,24.479 L40.935,24.479 L40.935,24.479 Z" id="Shape"></path>
                <path d="M44.591,17.68 C45.118,17.543 45.747,17.459 46.495,17.459 C47.549,17.459 48.433,17.713 49.028,18.309 C49.589,18.852 49.878,19.686 49.878,20.672 C49.878,21.725 49.623,22.44 49.181,23.018 C48.552,23.868 47.498,24.291 46.478,24.291 C46.257,24.291 46.087,24.291 45.9,24.275 L45.9,28.966 L44.591,28.966 L44.591,17.68 L44.591,17.68 Z M45.899,23.17 C46.052,23.203 46.188,23.221 46.409,23.221 C47.701,23.221 48.568,22.371 48.568,20.756 C48.568,19.584 48.075,18.529 46.63,18.529 C46.324,18.529 46.069,18.562 45.899,18.615 L45.899,23.17 L45.899,23.17 Z" id="Shape"></path>
            </g>
            <path d="M239.141,198.073 C239.141,203.573 234.641,208.073 229.141,208.073 L152.071,208.073 C146.571,208.073 142.071,203.573 142.071,198.073 L142.071,142.032 C142.071,136.532 146.571,132.032 152.071,132.032 L229.141,132.032 C234.641,132.032 239.141,136.532 239.141,142.032 L239.141,198.073 L239.141,198.073 Z" id="Shape" fill="#3D9FAC" sketch:type="MSShapeGroup"></path>
            <g id="Group" transform="translate(160.000000, 147.000000)" fill="#FFFFFF" sketch:type="MSShapeGroup">
                <path d="M18.501,-0.245 C19.011,-0.397 19.606,-0.466 20.269,-0.466 C21.476,-0.466 22.326,-0.16 22.955,0.401 C23.839,1.166 24.502,2.644 24.502,5.042 C24.502,7.659 23.856,9.087 23.125,9.869 C22.377,10.719 21.289,11.11 19.963,11.11 C19.436,11.11 18.892,11.076 18.501,10.991 L18.501,-0.245 L18.501,-0.245 Z M19.81,9.971 C19.997,10.005 20.184,10.005 20.303,10.005 C21.748,10.005 23.142,8.968 23.142,5.075 C23.142,2.185 22.258,0.605 20.422,0.605 C20.218,0.605 19.98,0.622 19.81,0.672 L19.81,9.971 L19.81,9.971 Z" id="Shape"></path>
                <path d="M27.103,7.609 L26.338,11.043 L25.08,11.043 L27.698,-0.414 L29.143,-0.414 L31.693,11.043 L30.4,11.043 L29.635,7.609 L27.103,7.609 L27.103,7.609 Z M29.466,6.555 L28.871,3.648 C28.701,2.833 28.548,1.88 28.412,1.031 L28.344,1.031 C28.208,1.897 28.038,2.884 27.885,3.648 L27.29,6.555 L29.466,6.555 L29.466,6.555 Z" id="Shape"></path>
                <path d="M33.444,0.758 L31.353,0.758 L31.353,-0.415 L36.843,-0.415 L36.843,0.758 L34.753,0.758 L34.753,11.042 L33.444,11.042 L33.444,0.758 L33.444,0.758 Z" id="Shape"></path>
                <path d="M38.731,7.609 L37.966,11.043 L36.708,11.043 L39.326,-0.414 L40.771,-0.414 L43.321,11.043 L42.029,11.043 L41.264,7.609 L38.731,7.609 L38.731,7.609 Z M41.094,6.555 L40.499,3.648 C40.329,2.833 40.176,1.88 40.04,1.031 L39.972,1.031 C39.836,1.897 39.666,2.884 39.513,3.648 L38.918,6.555 L41.094,6.555 L41.094,6.555 Z" id="Shape"></path>
                <path d="M2.716,28.042 L0.098,16.585 L1.492,16.585 L2.614,21.957 C2.886,23.248 3.226,24.897 3.43,26.359 L3.481,26.359 C3.651,24.88 3.974,23.282 4.246,21.922 L5.334,16.584 L6.728,16.584 L4.059,28.041 L2.716,28.041 L2.716,28.042 Z" id="Shape"></path>
                <path d="M8.667,24.609 L7.902,28.043 L6.644,28.043 L9.262,16.586 L10.707,16.586 L13.257,28.043 L11.965,28.043 L11.2,24.609 L8.667,24.609 L8.667,24.609 Z M11.029,23.555 L10.434,20.648 C10.264,19.833 10.111,18.88 9.975,18.031 L9.907,18.031 C9.771,18.897 9.601,19.884 9.448,20.648 L8.853,23.555 L11.029,23.555 L11.029,23.555 Z" id="Shape"></path>
                <path d="M14.685,16.585 L15.994,16.585 L15.994,26.938 L19.224,26.938 L19.224,28.042 L14.685,28.042 L14.685,16.585 L14.685,16.585 Z" id="Shape"></path>
                <path d="M21.841,16.585 L21.841,28.042 L20.532,28.042 L20.532,16.585 L21.841,16.585 L21.841,16.585 Z" id="Shape"></path>
                <path d="M23.916,16.755 C24.426,16.603 25.021,16.534 25.684,16.534 C26.891,16.534 27.741,16.84 28.37,17.401 C29.254,18.166 29.917,19.644 29.917,22.042 C29.917,24.659 29.271,26.087 28.54,26.869 C27.792,27.719 26.704,28.11 25.378,28.11 C24.851,28.11 24.307,28.076 23.916,27.991 L23.916,16.755 L23.916,16.755 Z M25.224,26.971 C25.411,27.005 25.598,27.005 25.717,27.005 C27.162,27.005 28.556,25.968 28.556,22.075 C28.556,19.185 27.672,17.605 25.836,17.605 C25.632,17.605 25.394,17.622 25.224,17.672 L25.224,26.971 L25.224,26.971 Z" id="Shape"></path>
                <path d="M32.518,24.609 L31.753,28.043 L30.495,28.043 L33.113,16.586 L34.558,16.586 L37.108,28.043 L35.816,28.043 L35.051,24.609 L32.518,24.609 L32.518,24.609 Z M34.88,23.555 L34.285,20.648 C34.115,19.833 33.962,18.88 33.826,18.031 L33.758,18.031 C33.622,18.897 33.452,19.884 33.299,20.648 L32.704,23.555 L34.88,23.555 L34.88,23.555 Z" id="Shape"></path>
                <path d="M38.858,17.758 L36.767,17.758 L36.767,16.585 L42.257,16.585 L42.257,17.758 L40.166,17.758 L40.166,28.042 L38.857,28.042 L38.857,17.758 L38.858,17.758 Z" id="Shape"></path>
                <path d="M44.842,16.585 L44.842,28.042 L43.533,28.042 L43.533,16.585 L44.842,16.585 L44.842,16.585 Z" id="Shape"></path>
                <path d="M52.933,22.229 C52.933,26.53 51.454,28.178 49.619,28.178 C47.715,28.178 46.44,26.156 46.44,22.297 C46.44,18.506 47.8,16.449 49.806,16.449 C51.76,16.45 52.933,18.575 52.933,22.229 L52.933,22.229 Z M47.8,22.314 C47.8,24.677 48.259,27.023 49.704,27.023 C51.183,27.023 51.574,24.524 51.574,22.28 C51.574,20.138 51.183,17.606 49.687,17.606 C48.259,17.606 47.8,19.985 47.8,22.314 L47.8,22.314 Z" id="Shape"></path>
                <path d="M54.498,28.042 L54.498,16.585 L55.739,16.585 L57.847,21.957 C58.323,23.181 58.918,24.71 59.309,25.951 L59.343,25.951 C59.241,24.149 59.19,22.671 59.19,20.681 L59.19,16.584 L60.363,16.584 L60.363,28.041 L59.122,28.041 L56.946,22.533 C56.487,21.378 55.994,20.068 55.586,18.64 L55.552,18.64 C55.654,20.17 55.688,21.632 55.688,24.079 L55.688,28.04 L54.498,28.04 L54.498,28.042 Z" id="Shape"></path>
                <path d="M7.299,43.53 C7.69,43.785 8.37,43.989 8.947,43.989 C10.137,43.989 10.851,43.207 10.851,42.051 C10.851,40.996 10.239,40.351 9.338,39.671 C8.437,39.042 7.179,37.971 7.179,36.492 C7.179,34.758 8.386,33.483 10.204,33.483 C10.918,33.483 11.547,33.704 11.819,33.908 L11.496,35.03 C11.207,34.826 10.731,34.638 10.136,34.638 C9.014,34.638 8.487,35.489 8.487,36.27 C8.487,37.41 9.082,37.851 10.17,38.633 C11.547,39.602 12.159,40.655 12.159,41.931 C12.159,43.903 10.765,45.143 8.946,45.143 C8.164,45.143 7.331,44.888 7.008,44.651 L7.299,43.53 L7.299,43.53 Z" id="Shape"></path>
                <path d="M17.872,39.603 L14.999,39.603 L14.999,43.904 L18.263,43.904 L18.263,45.043 L13.691,45.043 L13.691,33.586 L18.06,33.586 L18.06,34.725 L15,34.725 L15,38.499 L17.873,38.499 L17.873,39.603 L17.872,39.603 Z" id="Shape"></path>
                <path d="M19.708,33.755 C20.269,33.603 20.949,33.534 21.595,33.534 C22.734,33.534 23.584,33.772 24.178,34.349 C24.739,34.927 24.977,35.693 24.977,36.593 C24.977,38.055 24.297,39.007 23.141,39.533 L23.141,39.567 C23.991,39.822 24.433,40.638 24.688,42.134 C24.943,43.714 25.181,44.683 25.334,45.04 L24.008,45.04 C23.838,44.7 23.617,43.612 23.396,42.201 C23.141,40.638 22.648,40.043 21.526,40.043 L21.016,40.043 L21.016,45.04 L19.707,45.04 L19.707,33.755 L19.708,33.755 Z M21.017,39.042 L21.561,39.042 C22.819,39.042 23.652,38.124 23.652,36.747 C23.652,35.421 23.108,34.605 21.697,34.588 C21.442,34.588 21.187,34.606 21.017,34.656 L21.017,39.042 L21.017,39.042 Z" id="Shape"></path>
                <path d="M28.531,45.042 L25.913,33.585 L27.307,33.585 L28.429,38.957 C28.701,40.248 29.041,41.897 29.245,43.359 L29.296,43.359 C29.466,41.88 29.789,40.282 30.061,38.922 L31.149,33.584 L32.543,33.584 L29.874,45.041 L28.531,45.041 L28.531,45.042 Z" id="Shape"></path>
                <path d="M35.126,33.585 L35.126,45.042 L33.817,45.042 L33.817,33.585 L35.126,33.585 L35.126,33.585 Z" id="Shape"></path>
                <path d="M42.198,44.838 C41.841,45.026 41.28,45.144 40.566,45.144 C38.322,45.144 36.724,43.342 36.724,39.45 C36.724,34.929 38.968,33.484 40.769,33.484 C41.466,33.484 41.959,33.62 42.197,33.773 L41.908,34.877 C41.636,34.758 41.347,34.639 40.752,34.639 C39.528,34.639 38.1,35.829 38.1,39.33 C38.1,42.832 39.392,43.988 40.786,43.988 C41.279,43.988 41.721,43.869 41.993,43.733 L42.198,44.838 L42.198,44.838 Z" id="Shape"></path>
                <path d="M47.723,39.603 L44.85,39.603 L44.85,43.904 L48.114,43.904 L48.114,45.043 L43.542,45.043 L43.542,33.586 L47.911,33.586 L47.911,34.725 L44.851,34.725 L44.851,38.499 L47.724,38.499 L47.724,39.603 L47.723,39.603 Z" id="Shape"></path>
                <path d="M49.304,43.53 C49.695,43.785 50.375,43.989 50.952,43.989 C52.142,43.989 52.856,43.207 52.856,42.051 C52.856,40.996 52.244,40.351 51.343,39.671 C50.442,39.042 49.184,37.971 49.184,36.492 C49.184,34.758 50.391,33.483 52.21,33.483 C52.924,33.483 53.553,33.704 53.825,33.908 L53.502,35.03 C53.213,34.826 52.737,34.638 52.142,34.638 C51.02,34.638 50.493,35.489 50.493,36.27 C50.493,37.41 51.088,37.851 52.176,38.633 C53.553,39.602 54.165,40.655 54.165,41.931 C54.165,43.903 52.771,45.143 50.952,45.143 C50.17,45.143 49.337,44.888 49.014,44.651 L49.304,43.53 L49.304,43.53 Z" id="Shape"></path>
            </g>
            <path d="M463.278,198.011 C463.278,203.511 458.778,208.011 453.278,208.011 L376.209,208.011 C370.709,208.011 366.209,203.511 366.209,198.011 L366.209,142.095 C366.209,136.595 370.709,132.095 376.209,132.095 L453.278,132.095 C458.778,132.095 463.278,136.595 463.278,142.095 L463.278,198.011 L463.278,198.011 Z" id="Shape" fill="#3D9FAC" sketch:type="MSShapeGroup"></path>
            <g id="Group" transform="translate(401.000000, 164.000000)" fill="#FFFFFF" sketch:type="MSShapeGroup">
                <path d="M7.113,6.113 C7.027,4.6 6.943,2.918 6.994,1.626 L6.926,1.626 C6.671,2.9 6.365,4.261 6.008,5.604 L4.598,10.975 L3.764,10.975 L2.422,5.825 C2.047,4.363 1.707,2.953 1.486,1.627 L1.435,1.627 C1.435,2.97 1.367,4.567 1.298,6.199 L1.077,11.044 L-0.095,11.044 L0.585,-0.413 L1.995,-0.413 L3.339,4.822 C3.73,6.335 4.019,7.457 4.257,8.766 L4.308,8.766 C4.529,7.456 4.784,6.369 5.158,4.822 L6.45,-0.413 L7.912,-0.413 L8.574,11.044 L7.351,11.044 L7.113,6.113 L7.113,6.113 Z" id="Shape"></path>
                <path d="M14.543,5.603 L11.67,5.603 L11.67,9.904 L14.934,9.904 L14.934,11.043 L10.362,11.043 L10.362,-0.414 L14.73,-0.414 L14.73,0.725 L11.67,0.725 L11.67,4.499 L14.543,4.499 L14.543,5.603 L14.543,5.603 Z" id="Shape"></path>
                <path d="M16.379,-0.245 C16.94,-0.397 17.619,-0.466 18.266,-0.466 C19.405,-0.466 20.254,-0.228 20.849,0.349 C21.411,0.927 21.649,1.693 21.649,2.593 C21.649,4.055 20.968,5.007 19.813,5.533 L19.813,5.567 C20.663,5.822 21.104,6.638 21.36,8.134 C21.614,9.714 21.852,10.683 22.006,11.04 L20.68,11.04 C20.51,10.7 20.289,9.612 20.068,8.201 C19.814,6.638 19.32,6.043 18.199,6.043 L17.689,6.043 L17.689,11.04 L16.38,11.04 L16.38,-0.245 L16.379,-0.245 Z M17.688,5.042 L18.231,5.042 C19.489,5.042 20.323,4.124 20.323,2.747 C20.323,1.421 19.778,0.605 18.368,0.588 C18.113,0.588 17.858,0.606 17.688,0.656 L17.688,5.042 L17.688,5.042 Z" id="Shape"></path>
                <path d="M27.514,5.603 L24.641,5.603 L24.641,9.904 L27.905,9.904 L27.905,11.043 L23.333,11.043 L23.333,-0.414 L27.701,-0.414 L27.701,0.725 L24.641,0.725 L24.641,4.499 L27.514,4.499 L27.514,5.603 L27.514,5.603 Z" id="Shape"></path>
            </g>
            <path d="M631.347,343.644 C631.347,349.144 626.847,353.644 621.347,353.644 L544.278,353.644 C538.778,353.644 534.278,349.144 534.278,343.644 L534.278,287.728 C534.278,282.228 538.778,277.728 544.278,277.728 L621.347,277.728 C626.847,277.728 631.347,282.228 631.347,287.728 L631.347,343.644 L631.347,343.644 Z" id="Shape" fill="#3D9FAC" sketch:type="MSShapeGroup"></path>
            <g id="Group" transform="translate(567.000000, 309.000000)" fill="#FFFFFF" sketch:type="MSShapeGroup">
                <path d="M7.107,6.746 C7.022,5.232 6.937,3.551 6.988,2.258 L6.92,2.258 C6.666,3.533 6.359,4.893 6.002,6.237 L4.592,11.608 L3.759,11.608 L2.416,6.458 C2.042,4.995 1.702,3.585 1.48,2.259 L1.429,2.259 C1.429,3.603 1.362,5.2 1.293,6.831 L1.072,11.677 L-0.1,11.677 L0.58,0.22 L1.991,0.22 L3.334,5.454 C3.725,6.968 4.014,8.089 4.252,9.399 L4.303,9.399 C4.524,8.088 4.78,7.001 5.153,5.454 L6.446,0.22 L7.907,0.22 L8.57,11.677 L7.346,11.677 L7.107,6.746 L7.107,6.746 Z" id="Shape"></path>
                <path d="M11.664,0.219 L11.664,11.676 L10.355,11.676 L10.355,0.219 L11.664,0.219 L11.664,0.219 Z" id="Shape"></path>
                <path d="M13.738,0.389 C14.299,0.237 14.978,0.168 15.625,0.168 C16.764,0.168 17.613,0.406 18.209,0.982 C18.77,1.56 19.008,2.326 19.008,3.226 C19.008,4.689 18.328,5.64 17.172,6.167 L17.172,6.2 C18.022,6.456 18.464,7.272 18.719,8.768 C18.974,10.348 19.211,11.317 19.365,11.674 L18.039,11.674 C17.869,11.334 17.648,10.246 17.427,8.834 C17.172,7.272 16.679,6.676 15.557,6.676 L15.047,6.676 L15.047,11.674 L13.738,11.674 L13.738,0.389 L13.738,0.389 Z M15.047,5.676 L15.591,5.676 C16.849,5.676 17.682,4.758 17.682,3.381 C17.682,2.055 17.138,1.238 15.727,1.221 C15.473,1.221 15.217,1.239 15.047,1.289 L15.047,5.676 L15.047,5.676 Z" id="Shape"></path>
                <path d="M20.691,0.389 C21.218,0.252 21.847,0.168 22.595,0.168 C23.648,0.168 24.533,0.422 25.127,1.018 C25.689,1.561 25.977,2.395 25.977,3.381 C25.977,4.434 25.722,5.149 25.281,5.727 C24.652,6.577 23.597,7 22.578,7 C22.357,7 22.187,7 22,6.984 L22,11.675 L20.691,11.675 L20.691,0.389 L20.691,0.389 Z M22,5.879 C22.153,5.912 22.289,5.93 22.51,5.93 C23.802,5.93 24.669,5.08 24.669,3.465 C24.669,2.293 24.176,1.238 22.731,1.238 C22.426,1.238 22.17,1.271 22.001,1.324 L22.001,5.879 L22,5.879 Z" id="Shape"></path>
                <path d="M31.656,6.236 L28.783,6.236 L28.783,10.537 L32.047,10.537 L32.047,11.676 L27.475,11.676 L27.475,0.219 L31.843,0.219 L31.843,1.358 L28.783,1.358 L28.783,5.131 L31.656,5.131 L31.656,6.236 L31.656,6.236 Z" id="Shape"></path>
            </g>
            <path d="M631.347,237.728 C631.347,243.228 626.847,247.728 621.347,247.728 L544.278,247.728 C538.778,247.728 534.278,243.228 534.278,237.728 L534.278,181.812 C534.278,176.312 538.778,171.812 544.278,171.812 L621.347,171.812 C626.847,171.812 631.347,176.312 631.347,181.812 L631.347,237.728 L631.347,237.728 Z" id="Shape" fill="#3D9FAC" sketch:type="MSShapeGroup"></path>
            <g id="Group" transform="translate(560.000000, 203.000000)" fill="#FFFFFF" sketch:type="MSShapeGroup">
                <path d="M5.617,11.555 C5.26,11.743 4.699,11.861 3.984,11.861 C1.74,11.861 0.142,10.059 0.142,6.167 C0.142,1.646 2.386,0.201 4.188,0.201 C4.885,0.201 5.378,0.337 5.617,0.49 L5.328,1.594 C5.056,1.475 4.766,1.356 4.172,1.356 C2.947,1.356 1.52,2.546 1.52,6.047 C1.52,9.549 2.813,10.705 4.206,10.705 C4.7,10.705 5.142,10.586 5.413,10.45 L5.617,11.555 L5.617,11.555 Z" id="Shape"></path>
                <path d="M12.688,5.946 C12.688,10.247 11.209,11.895 9.374,11.895 C7.471,11.895 6.196,9.873 6.196,6.014 C6.196,2.223 7.555,0.166 9.561,0.166 C11.516,0.167 12.688,2.292 12.688,5.946 L12.688,5.946 Z M7.555,6.031 C7.555,8.394 8.014,10.74 9.459,10.74 C10.938,10.74 11.328,8.241 11.328,5.997 C11.328,3.855 10.937,1.323 9.441,1.323 C8.014,1.323 7.555,3.702 7.555,6.031 L7.555,6.031 Z" id="Shape"></path>
                <path d="M14.253,11.759 L14.253,0.302 L15.494,0.302 L17.601,5.674 C18.078,6.898 18.671,8.427 19.063,9.668 L19.097,9.668 C18.994,7.866 18.944,6.388 18.944,4.398 L18.944,0.301 L20.117,0.301 L20.117,11.758 L18.877,11.758 L16.701,6.25 C16.242,5.095 15.748,3.785 15.341,2.357 L15.307,2.357 C15.409,3.887 15.444,5.349 15.444,7.796 L15.444,11.757 L14.253,11.757 L14.253,11.759 Z" id="Shape"></path>
                <path d="M23.5,1.475 L21.41,1.475 L21.41,0.302 L26.9,0.302 L26.9,1.475 L24.809,1.475 L24.809,11.759 L23.499,11.759 L23.499,1.475 L23.5,1.475 Z" id="Shape"></path>
                <path d="M32.357,6.32 L29.484,6.32 L29.484,10.621 L32.748,10.621 L32.748,11.76 L28.176,11.76 L28.176,0.303 L32.544,0.303 L32.544,1.442 L29.484,1.442 L29.484,5.216 L32.357,5.216 L32.357,6.32 L32.357,6.32 Z" id="Shape"></path>
                <path d="M38.221,11.759 L37.185,9.005 C36.947,8.376 36.743,7.781 36.488,6.999 L36.437,6.999 C36.182,7.765 35.961,8.427 35.741,9.039 L34.755,11.759 L33.411,11.759 L35.774,5.911 L33.497,0.302 L34.856,0.302 L35.876,2.954 C36.098,3.48 36.284,4.024 36.557,4.772 L36.591,4.772 C36.846,3.973 37.016,3.463 37.202,2.902 L38.138,0.301 L39.48,0.301 L37.237,5.876 L39.599,11.758 L38.221,11.758 L38.221,11.759 Z" id="Shape"></path>
                <path d="M42.369,1.475 L40.279,1.475 L40.279,0.302 L45.769,0.302 L45.769,1.475 L43.678,1.475 L43.678,11.759 L42.368,11.759 L42.368,1.475 L42.369,1.475 Z" id="Shape"></path>
            </g>
            <g id="Group" transform="translate(306.000000, 432.000000)" sketch:type="MSShapeGroup">
                <g id="Shape">
                    <path d="M97.493,65.435 C97.493,70.935 92.993,75.435 87.493,75.435 L10.425,75.435 C4.925,75.435 0.425,70.935 0.425,65.435 L0.425,9.519 C0.425,4.019 4.925,-0.481 10.425,-0.481 L87.493,-0.481 C92.993,-0.481 97.493,4.019 97.493,9.519 L97.493,65.435 L97.493,65.435 Z" fill="#FFFFFF"></path>
                    <path d="M97.493,65.435 C97.493,70.935 92.993,75.435 87.493,75.435 L10.425,75.435 C4.925,75.435 0.425,70.935 0.425,65.435 L0.425,9.519 C0.425,4.019 4.925,-0.481 10.425,-0.481 L87.493,-0.481 C92.993,-0.481 97.493,4.019 97.493,9.519 L97.493,65.435 L97.493,65.435 Z" stroke="#4C5655"></path>
                </g>
                <g transform="translate(15.000000, 31.000000)" id="Shape" fill="#4C5655">
                    <path d="M2.408,8.033 L1.642,11.467 L0.384,11.467 L3.001,0.01 L4.446,0.01 L6.996,11.467 L5.704,11.467 L4.939,8.033 L2.408,8.033 L2.408,8.033 Z M4.77,6.979 L4.176,4.073 C4.006,3.257 3.853,2.305 3.717,1.456 L3.649,1.456 C3.512,2.321 3.342,3.308 3.19,4.073 L2.594,6.979 L4.77,6.979 L4.77,6.979 Z"></path>
                    <path d="M8.426,0.18 C8.953,0.043 9.582,-0.041 10.33,-0.041 C11.383,-0.041 12.268,0.213 12.862,0.809 C13.424,1.352 13.712,2.186 13.712,3.172 C13.712,4.225 13.457,4.94 13.016,5.518 C12.387,6.368 11.332,6.791 10.313,6.791 C10.092,6.791 9.922,6.791 9.735,6.775 L9.735,11.466 L8.426,11.466 L8.426,0.18 L8.426,0.18 Z M9.734,5.67 C9.887,5.703 10.023,5.721 10.244,5.721 C11.536,5.721 12.403,4.871 12.403,3.256 C12.403,2.084 11.91,1.029 10.465,1.029 C10.16,1.029 9.904,1.062 9.735,1.115 L9.735,5.67 L9.734,5.67 Z"></path>
                    <path d="M15.209,0.18 C15.735,0.043 16.364,-0.041 17.112,-0.041 C18.166,-0.041 19.05,0.213 19.644,0.809 C20.206,1.352 20.494,2.186 20.494,3.172 C20.494,4.225 20.24,4.94 19.798,5.518 C19.169,6.368 18.115,6.791 17.096,6.791 C16.874,6.791 16.704,6.791 16.518,6.775 L16.518,11.466 L15.209,11.466 L15.209,0.18 L15.209,0.18 Z M16.518,5.67 C16.67,5.703 16.807,5.721 17.028,5.721 C18.319,5.721 19.186,4.871 19.186,3.256 C19.186,2.084 18.694,1.029 17.248,1.029 C16.942,1.029 16.687,1.062 16.518,1.115 L16.518,5.67 L16.518,5.67 Z"></path>
                    <path d="M21.991,0.01 L23.3,0.01 L23.3,10.362 L26.529,10.362 L26.529,11.467 L21.991,11.467 L21.991,0.01 L21.991,0.01 Z"></path>
                    <path d="M29.147,0.01 L29.147,11.467 L27.838,11.467 L27.838,0.01 L29.147,0.01 L29.147,0.01 Z"></path>
                    <path d="M36.219,11.262 C35.863,11.45 35.301,11.569 34.588,11.569 C32.344,11.569 30.746,9.766 30.746,5.874 C30.746,1.353 32.989,-0.091 34.791,-0.091 C35.488,-0.091 35.98,0.044 36.219,0.198 L35.93,1.302 C35.659,1.183 35.369,1.064 34.775,1.064 C33.551,1.064 32.124,2.255 32.124,5.755 C32.124,9.257 33.415,10.413 34.81,10.413 C35.302,10.413 35.745,10.294 36.017,10.159 L36.219,11.262 L36.219,11.262 Z"></path>
                    <path d="M39.041,8.033 L38.276,11.467 L37.018,11.467 L39.636,0.01 L41.08,0.01 L43.63,11.467 L42.338,11.467 L41.573,8.033 L39.041,8.033 L39.041,8.033 Z M41.404,6.979 L40.808,4.073 C40.638,3.257 40.486,2.305 40.349,1.456 L40.282,1.456 C40.146,2.321 39.976,3.308 39.823,4.073 L39.228,6.979 L41.404,6.979 L41.404,6.979 Z"></path>
                    <path d="M45.383,1.182 L43.291,1.182 L43.291,0.01 L48.781,0.01 L48.781,1.182 L46.691,1.182 L46.691,11.467 L45.382,11.467 L45.382,1.182 L45.383,1.182 Z"></path>
                    <path d="M51.365,0.01 L51.365,11.467 L50.056,11.467 L50.056,0.01 L51.365,0.01 L51.365,0.01 Z"></path>
                    <path d="M59.457,5.652 C59.457,9.953 57.978,11.601 56.143,11.601 C54.239,11.601 52.964,9.58 52.964,5.72 C52.964,1.929 54.324,-0.128 56.33,-0.128 C58.284,-0.127 59.457,1.998 59.457,5.652 L59.457,5.652 Z M54.324,5.738 C54.324,8.101 54.783,10.447 56.227,10.447 C57.706,10.447 58.097,7.947 58.097,5.703 C58.097,3.562 57.706,1.029 56.21,1.029 C54.783,1.029 54.324,3.408 54.324,5.738 L54.324,5.738 Z"></path>
                    <path d="M61.021,11.467 L61.021,0.01 L62.262,0.01 L64.37,5.381 C64.846,6.606 65.44,8.135 65.831,9.375 L65.865,9.375 C65.762,7.574 65.712,6.096 65.712,4.105 L65.712,0.009 L66.886,0.009 L66.886,11.466 L65.645,11.466 L63.469,5.958 C63.01,4.802 62.517,3.493 62.109,2.065 L62.076,2.065 C62.178,3.594 62.212,5.057 62.212,7.504 L62.212,11.465 L61.021,11.465 L61.021,11.467 Z"></path>
                </g>
            </g>
            <path d="M463.278,66.011 C463.278,71.511 458.778,76.011 453.278,76.011 L376.209,76.011 C370.709,76.011 366.209,71.511 366.209,66.011 L366.209,10.095 C366.209,4.595 370.709,0.095 376.209,0.095 L453.278,0.095 C458.778,0.095 463.278,4.595 463.278,10.095 L463.278,66.011 L463.278,66.011 Z" id="Shape" fill="#DC3449" sketch:type="MSShapeGroup"></path>
            <g id="Group" transform="translate(394.000000, 31.000000)" fill="#FFFFFF" sketch:type="MSShapeGroup">
                <path d="M-0.184,0.755 C0.326,0.603 0.921,0.534 1.584,0.534 C2.791,0.534 3.642,0.84 4.271,1.401 C5.155,2.166 5.818,3.644 5.818,6.042 C5.818,8.659 5.172,10.087 4.441,10.869 C3.693,11.719 2.605,12.11 1.28,12.11 C0.753,12.11 0.208,12.076 -0.183,11.991 L-0.183,0.755 L-0.184,0.755 Z M1.125,10.971 C1.313,11.005 1.5,11.005 1.619,11.005 C3.063,11.005 4.457,9.968 4.457,6.075 C4.457,3.185 3.573,1.605 1.738,1.605 C1.533,1.605 1.295,1.622 1.125,1.672 L1.125,10.971 L1.125,10.971 Z" id="Shape"></path>
                <path d="M13.398,6.229 C13.398,10.53 11.919,12.178 10.084,12.178 C8.181,12.178 6.906,10.156 6.906,6.297 C6.906,2.506 8.265,0.449 10.271,0.449 C12.227,0.45 13.398,2.575 13.398,6.229 L13.398,6.229 Z M8.266,6.314 C8.266,8.677 8.725,11.023 10.17,11.023 C11.649,11.023 12.039,8.524 12.039,6.28 C12.039,4.138 11.648,1.606 10.152,1.606 C8.725,1.606 8.266,3.985 8.266,6.314 L8.266,6.314 Z" id="Shape"></path>
                <path d="M21.898,7.113 C21.814,5.6 21.728,3.918 21.78,2.626 L21.712,2.626 C21.457,3.9 21.151,5.261 20.794,6.604 L19.383,11.975 L18.551,11.975 L17.207,6.825 C16.834,5.363 16.494,3.953 16.272,2.627 L16.221,2.627 C16.221,3.97 16.154,5.567 16.085,7.199 L15.864,12.044 L14.69,12.044 L15.37,0.587 L16.782,0.587 L18.124,5.822 C18.516,7.335 18.804,8.457 19.042,9.766 L19.093,9.766 C19.315,8.456 19.57,7.369 19.944,5.822 L21.236,0.587 L22.697,0.587 L23.361,12.044 L22.136,12.044 L21.898,7.113 L21.898,7.113 Z" id="Shape"></path>
                <path d="M26.405,8.609 L25.64,12.043 L24.382,12.043 L27,0.585 L28.445,0.585 L30.994,12.042 L29.703,12.042 L28.937,8.608 L26.405,8.608 L26.405,8.609 Z M28.768,7.555 L28.173,4.648 C28.003,3.833 27.85,2.88 27.714,2.031 L27.647,2.031 C27.51,2.897 27.34,3.884 27.188,4.648 L26.592,7.555 L28.768,7.555 L28.768,7.555 Z" id="Shape"></path>
                <path d="M33.732,0.585 L33.732,12.042 L32.423,12.042 L32.423,0.585 L33.732,0.585 L33.732,0.585 Z" id="Shape"></path>
                <path d="M35.807,12.042 L35.807,0.585 L37.047,0.585 L39.154,5.957 C39.631,7.181 40.225,8.71 40.617,9.951 L40.65,9.951 C40.548,8.149 40.498,6.671 40.498,4.681 L40.498,0.584 L41.67,0.584 L41.67,12.041 L40.43,12.041 L38.254,6.533 C37.795,5.378 37.302,4.068 36.895,2.64 L36.86,2.64 C36.963,4.17 36.997,5.632 36.997,8.079 L36.997,12.04 L35.807,12.04 L35.807,12.042 Z" id="Shape"></path>
            </g>
            <g id="Group" transform="translate(30.000000, 0.000000)" sketch:type="MSShapeGroup">
                <g id="Shape">
                    <path d="M97.071,66.011 C97.071,71.511 92.571,76.011 87.071,76.011 L10.002,76.011 C4.502,76.011 0.002,71.511 0.002,66.011 L0.002,10.095 C0.002,4.595 4.502,0.095 10.002,0.095 L87.071,0.095 C92.571,0.095 97.071,4.595 97.071,10.095 L97.071,66.011 L97.071,66.011 Z" fill="#FFFFFF"></path>
                    <path d="M97.071,66.011 C97.071,71.511 92.571,76.011 87.071,76.011 L10.002,76.011 C4.502,76.011 0.002,71.511 0.002,66.011 L0.002,10.095 C0.002,4.595 4.502,0.095 10.002,0.095 L87.071,0.095 C92.571,0.095 97.071,4.595 97.071,10.095 L97.071,66.011 L97.071,66.011 Z" stroke="#4C5655"></path>
                </g>
                <g transform="translate(23.000000, 31.000000)" id="Shape" fill="#4C5655">
                    <path d="M0.122,0.755 C0.632,0.603 1.227,0.534 1.89,0.534 C3.097,0.534 3.947,0.84 4.576,1.401 C5.46,2.166 6.123,3.644 6.123,6.042 C6.123,8.659 5.477,10.087 4.746,10.869 C3.998,11.719 2.91,12.11 1.584,12.11 C1.057,12.11 0.513,12.076 0.122,11.991 L0.122,0.755 L0.122,0.755 Z M1.43,10.971 C1.617,11.005 1.804,11.005 1.923,11.005 C3.368,11.005 4.762,9.968 4.762,6.075 C4.762,3.185 3.878,1.605 2.042,1.605 C1.838,1.605 1.6,1.622 1.43,1.672 L1.43,10.971 L1.43,10.971 Z"></path>
                    <path d="M8.724,8.609 L7.959,12.043 L6.701,12.043 L9.319,0.586 L10.764,0.586 L13.314,12.043 L12.022,12.043 L11.257,8.609 L8.724,8.609 L8.724,8.609 Z M11.086,7.555 L10.491,4.648 C10.321,3.833 10.168,2.88 10.032,2.031 L9.964,2.031 C9.828,2.897 9.658,3.884 9.505,4.648 L8.91,7.555 L11.086,7.555 L11.086,7.555 Z"></path>
                    <path d="M15.064,1.758 L12.973,1.758 L12.973,0.585 L18.463,0.585 L18.463,1.758 L16.373,1.758 L16.373,12.042 L15.064,12.042 L15.064,1.758 L15.064,1.758 Z"></path>
                    <path d="M20.352,8.609 L19.587,12.043 L18.329,12.043 L20.947,0.586 L22.392,0.586 L24.942,12.043 L23.65,12.043 L22.885,8.609 L20.352,8.609 L20.352,8.609 Z M22.714,7.555 L22.119,4.648 C21.949,3.833 21.796,2.88 21.66,2.031 L21.592,2.031 C21.456,2.897 21.286,3.884 21.133,4.648 L20.538,7.555 L22.714,7.555 L22.714,7.555 Z"></path>
                    <path d="M26.37,0.755 C26.914,0.619 27.56,0.534 28.291,0.534 C29.328,0.534 30.211,0.755 30.824,1.333 C31.317,1.792 31.572,2.472 31.572,3.288 C31.572,4.461 30.926,5.395 29.804,5.838 L29.804,5.872 C31.13,6.228 31.929,7.3 31.929,8.795 C31.929,9.747 31.623,10.512 31.113,11.073 C30.467,11.803 29.396,12.11 28.088,12.11 C27.238,12.11 26.728,12.058 26.371,11.991 L26.371,0.755 L26.37,0.755 Z M27.678,5.447 L28.273,5.447 C29.344,5.447 30.262,4.632 30.262,3.425 C30.262,2.371 29.769,1.555 28.375,1.555 C28.069,1.555 27.831,1.589 27.678,1.64 L27.678,5.447 L27.678,5.447 Z M27.678,11.005 C27.831,11.039 28.052,11.073 28.341,11.073 C29.701,11.073 30.585,10.274 30.585,8.795 C30.585,7.215 29.48,6.467 28.256,6.449 L27.678,6.449 L27.678,11.005 L27.678,11.005 Z"></path>
                    <path d="M34.818,8.609 L34.053,12.043 L32.795,12.043 L35.413,0.586 L36.858,0.586 L39.408,12.043 L38.116,12.043 L37.351,8.609 L34.818,8.609 L34.818,8.609 Z M37.181,7.555 L36.586,4.648 C36.416,3.833 36.263,2.88 36.127,2.031 L36.059,2.031 C35.923,2.897 35.753,3.884 35.6,4.648 L35.005,7.555 L37.181,7.555 L37.181,7.555 Z"></path>
                    <path d="M40.582,10.53 C40.973,10.785 41.653,10.989 42.23,10.989 C43.42,10.989 44.134,10.207 44.134,9.051 C44.134,7.996 43.522,7.351 42.621,6.671 C41.72,6.042 40.462,4.971 40.462,3.492 C40.462,1.758 41.669,0.483 43.487,0.483 C44.201,0.483 44.83,0.704 45.102,0.908 L44.779,2.03 C44.49,1.826 44.014,1.638 43.419,1.638 C42.297,1.638 41.77,2.489 41.77,3.27 C41.77,4.41 42.365,4.851 43.453,5.633 C44.83,6.602 45.442,7.655 45.442,8.931 C45.442,10.903 44.048,12.143 42.229,12.143 C41.447,12.143 40.614,11.888 40.291,11.651 L40.582,10.53 L40.582,10.53 Z"></path>
                    <path d="M51.155,6.603 L48.282,6.603 L48.282,10.904 L51.546,10.904 L51.546,12.043 L46.974,12.043 L46.974,0.586 L51.343,0.586 L51.343,1.725 L48.283,1.725 L48.283,5.499 L51.156,5.499 L51.156,6.603 L51.155,6.603 Z"></path>
                </g>
            </g>
            <g id="Group" transform="translate(209.000000, 106.000000)" fill="#4C5655" sketch:type="MSShapeGroup">
                <path d="M0.028,10.176 C0.419,10.431 1.099,10.635 1.676,10.635 C2.866,10.635 3.58,9.853 3.58,8.697 C3.58,7.642 2.968,6.997 2.067,6.317 C1.166,5.688 -0.092,4.617 -0.092,3.138 C-0.092,1.404 1.115,0.129 2.933,0.129 C3.647,0.129 4.276,0.35 4.548,0.554 L4.225,1.676 C3.936,1.472 3.46,1.284 2.865,1.284 C1.743,1.284 1.216,2.135 1.216,2.916 C1.216,4.056 1.811,4.497 2.899,5.279 C4.276,6.248 4.888,7.301 4.888,8.577 C4.888,10.549 3.494,11.789 1.675,11.789 C0.893,11.789 0.06,11.534 -0.263,11.297 L0.028,10.176 L0.028,10.176 Z" id="Shape"></path>
                <path d="M10.602,6.25 L7.729,6.25 L7.729,10.551 L10.993,10.551 L10.993,11.69 L6.421,11.69 L6.421,0.233 L10.79,0.233 L10.79,1.372 L7.73,1.372 L7.73,5.146 L10.603,5.146 L10.603,6.25 L10.602,6.25 Z" id="Shape"></path>
                <path d="M12.438,0.402 C12.999,0.25 13.679,0.181 14.325,0.181 C15.464,0.181 16.314,0.419 16.908,0.996 C17.469,1.574 17.707,2.34 17.707,3.24 C17.707,4.702 17.027,5.654 15.871,6.18 L15.871,6.214 C16.721,6.469 17.163,7.285 17.418,8.781 C17.673,10.361 17.911,11.33 18.064,11.687 L16.738,11.687 C16.568,11.347 16.347,10.259 16.126,8.848 C15.871,7.285 15.378,6.69 14.256,6.69 L13.746,6.69 L13.746,11.687 L12.437,11.687 L12.437,0.402 L12.438,0.402 Z M13.746,5.689 L14.29,5.689 C15.548,5.689 16.381,4.771 16.381,3.394 C16.381,2.068 15.837,1.252 14.426,1.235 C14.171,1.235 13.916,1.253 13.746,1.303 L13.746,5.689 L13.746,5.689 Z" id="Shape"></path>
                <path d="M21.26,11.689 L18.642,0.232 L20.036,0.232 L21.158,5.604 C21.43,6.895 21.77,8.544 21.974,10.006 L22.025,10.006 C22.195,8.527 22.518,6.929 22.79,5.569 L23.878,0.231 L25.272,0.231 L22.603,11.688 L21.26,11.688 L21.26,11.689 Z" id="Shape"></path>
                <path d="M27.856,0.232 L27.856,11.689 L26.547,11.689 L26.547,0.232 L27.856,0.232 L27.856,0.232 Z" id="Shape"></path>
                <path d="M34.928,11.485 C34.571,11.673 34.01,11.791 33.296,11.791 C31.052,11.791 29.454,9.989 29.454,6.097 C29.454,1.576 31.698,0.131 33.499,0.131 C34.196,0.131 34.689,0.267 34.927,0.42 L34.638,1.524 C34.366,1.405 34.077,1.286 33.482,1.286 C32.258,1.286 30.83,2.476 30.83,5.977 C30.83,9.479 32.122,10.635 33.516,10.635 C34.009,10.635 34.451,10.516 34.723,10.38 L34.928,11.485 L34.928,11.485 Z" id="Shape"></path>
                <path d="M40.453,6.25 L37.58,6.25 L37.58,10.551 L40.844,10.551 L40.844,11.69 L36.272,11.69 L36.272,0.233 L40.641,0.233 L40.641,1.372 L37.581,1.372 L37.581,5.146 L40.454,5.146 L40.454,6.25 L40.453,6.25 Z" id="Shape"></path>
                <path d="M44.958,0.232 L46.267,0.232 L46.267,10.585 L49.497,10.585 L49.497,11.689 L44.958,11.689 L44.958,0.232 L44.958,0.232 Z" id="Shape"></path>
                <path d="M52.233,8.255 L51.468,11.689 L50.21,11.689 L52.828,0.232 L54.273,0.232 L56.823,11.689 L55.531,11.689 L54.766,8.255 L52.233,8.255 L52.233,8.255 Z M54.596,7.202 L54,4.294 C53.83,3.479 53.677,2.526 53.541,1.677 L53.473,1.677 C53.337,2.543 53.167,3.53 53.014,4.294 L52.419,7.201 L54.596,7.201 L54.596,7.202 Z" id="Shape"></path>
                <path d="M59.033,11.689 L59.033,6.844 L56.517,0.232 L57.894,0.232 L58.914,3.105 C59.203,3.904 59.509,4.804 59.764,5.689 L59.798,5.689 C60.036,4.804 60.325,3.938 60.631,3.054 L61.6,0.232 L62.977,0.232 L60.342,6.794 L60.342,11.69 L59.033,11.69 L59.033,11.689 Z" id="Shape"></path>
                <path d="M68.247,6.25 L65.374,6.25 L65.374,10.551 L68.638,10.551 L68.638,11.69 L64.066,11.69 L64.066,0.233 L68.435,0.233 L68.435,1.372 L65.375,1.372 L65.375,5.146 L68.248,5.146 L68.248,6.25 L68.247,6.25 Z" id="Shape"></path>
                <path d="M70.083,0.402 C70.644,0.25 71.324,0.181 71.97,0.181 C73.108,0.181 73.959,0.419 74.553,0.996 C75.114,1.574 75.352,2.34 75.352,3.24 C75.352,4.702 74.672,5.654 73.516,6.18 L73.516,6.214 C74.367,6.469 74.809,7.285 75.063,8.781 C75.319,10.361 75.556,11.33 75.709,11.687 L74.383,11.687 C74.213,11.347 73.992,10.259 73.772,8.848 C73.516,7.285 73.024,6.69 71.902,6.69 L71.392,6.69 L71.392,11.687 L70.083,11.687 L70.083,0.402 L70.083,0.402 Z M71.391,5.689 L71.935,5.689 C73.193,5.689 74.025,4.771 74.025,3.394 C74.025,2.068 73.482,1.252 72.071,1.235 C71.816,1.235 71.561,1.253 71.391,1.303 L71.391,5.689 L71.391,5.689 Z" id="Shape"></path>
            </g>
            <g id="Group" transform="translate(299.000000, 76.000000)" sketch:type="MSShapeGroup">
                <path d="M3.675,5.034 L3.675,49.993" id="Shape" stroke="#4C5655"></path>
                <path d="M0.204,6.056 L3.694,0.011 L7.185,6.056 L0.204,6.056 Z" id="Shape" fill="#4C5655"></path>
                <path d="M0.204,48.972 L3.694,55.017 L7.185,48.972 L0.204,48.972 Z" id="Shape" fill="#4C5655"></path>
            </g>
            <g id="Group" transform="translate(75.000000, 76.000000)" sketch:type="MSShapeGroup">
                <path d="M3.536,0.011 L3.536,49.993" id="Shape" stroke="#4C5655"></path>
                <path d="M0.065,48.972 L3.555,55.017 L7.045,48.972 L0.065,48.972 Z" id="Shape" fill="#4C5655"></path>
            </g>
            <g id="Group" transform="translate(411.000000, 76.000000)" sketch:type="MSShapeGroup">
                <path d="M3.744,5.034 L3.744,49.993" id="Shape" stroke="#4C5655"></path>
                <path d="M0.273,6.056 L3.764,0.011 L7.254,6.056 L0.273,6.056 Z" id="Shape" fill="#4C5655"></path>
                <path d="M0.273,48.972 L3.764,55.017 L7.254,48.972 L0.273,48.972 Z" id="Shape" fill="#4C5655"></path>
            </g>
            <g id="Group" transform="translate(579.000000, 354.000000)" sketch:type="MSShapeGroup">
                <path d="M3.812,4.667 L3.812,24.62" id="Shape" stroke="#4C5655"></path>
                <path d="M0.342,5.688 L3.832,-0.356 L7.322,5.688 L0.342,5.688 Z" id="Shape" fill="#4C5655"></path>
                <path d="M0.342,23.599 L3.832,29.644 L7.322,23.599 L0.342,23.599 Z" id="Shape" fill="#4C5655"></path>
            </g>
            <g id="Group" transform="translate(579.000000, 248.000000)" sketch:type="MSShapeGroup">
                <path d="M3.812,4.751 L3.812,24.704" id="Shape" stroke="#4C5655"></path>
                <path d="M0.342,5.772 L3.832,-0.272 L7.322,5.772 L0.342,5.772 Z" id="Shape" fill="#4C5655"></path>
                <path d="M0.342,23.683 L3.832,29.728 L7.322,23.683 L0.342,23.683 Z" id="Shape" fill="#4C5655"></path>
            </g>
            <path d="M78.535,208.011 L78.535,296.019" id="Shape" stroke="#4C5655" sketch:type="MSShapeGroup"></path>
            <path d="M190.605,208.011 L190.605,296.019" id="Shape" stroke="#4C5655" sketch:type="MSShapeGroup"></path>
            <g id="Group" transform="translate(423.000000, 208.000000)" sketch:type="MSShapeGroup">
                <path d="M3.453,0.011 L3.453,86.784" id="Shape" stroke="#4C5655"></path>
                <path d="M-0.018,85.763 L3.473,91.808 L6.963,85.763 L-0.018,85.763 Z" id="Shape" fill="#4C5655"></path>
            </g>
            <g id="Group" transform="translate(303.000000, 208.000000)" sketch:type="MSShapeGroup">
                <path d="M-0.325,0.073 L-0.325,54.268 C-0.325,57.018 1.925,59.268 4.675,59.268 L106.744,59.268 C109.494,59.268 111.744,61.518 111.744,64.268 L111.744,82.995" id="Shape" stroke="#4C5655"></path>
                <path d="M108.273,81.974 L111.764,88.019 L115.254,81.974 L108.273,81.974 Z" id="Shape" fill="#4C5655"></path>
            </g>
            <g id="Group" transform="translate(0.000000, 157.000000)" sketch:type="MSShapeGroup">
                <path d="M15.167,0.055 L5.167,0.055 C2.417,0.055 0.167,2.305 0.167,5.055 L0.167,307.477 C0.167,310.227 2.417,312.477 5.167,312.477 L84.762,312.477" id="Shape" stroke="#4C5655"></path>
                <path d="M83.741,315.947 L89.786,312.457 L83.741,308.967 L83.741,315.947 Z" id="Shape" fill="#4C5655"></path>
            </g>
            <g id="Group" transform="translate(403.000000, 208.000000)" sketch:type="MSShapeGroup">
                <path d="M0.493,261.477 L41.414,261.477 C44.164,261.477 46.414,259.227 46.414,256.477 L46.414,5.034" id="Shape" stroke="#4C5655"></path>
                <path d="M49.885,6.056 L46.395,0.011 L42.904,6.056 L49.885,6.056 Z" id="Shape" fill="#4C5655"></path>
            </g>
            <path d="M519.277,316.019 L534.277,316.019" id="Shape" stroke="#4C5655" sketch:type="MSShapeGroup"></path>
        </g>
    </g>
</svg>