<?xml version="1.0" encoding="UTF-8" standalone="no"?>
<svg width="752px" height="231px" viewBox="0 0 752 231" version="1.1" xmlns="http://www.w3.org/2000/svg" xmlns:xlink="http://www.w3.org/1999/xlink" xmlns:sketch="http://www.bohemiancoding.com/sketch/ns">
    <!-- Generator: Sketch 3.1 (8751) - http://www.bohemiancoding.com/sketch -->
    <title>Group</title>
    <desc>Created with Sketch.</desc>
    <defs></defs>
    <g id="Page-1" stroke="none" stroke-width="1" fill="none" fill-rule="evenodd" sketch:type="MSPage">
        <g id="Group" sketch:type="MSLayerGroup" transform="translate(1.000000, 0.000000)">
            <path d="M739.01,49.353 L658.99,3.125 C655.803,1.285 651.673,0.368 647.545,0.372 L647.545,0.371 L102.813,0.371 C98.698,0.371 94.584,1.287 91.41,3.118 L11.365,49.302 C4.853,53.055 -0.058,61.553 -0.058,69.068 L-0.085,161.484 C-0.085,168.997 4.82,177.495 11.324,181.253 L91.351,227.488 C94.528,229.322 98.584,230.332 102.766,230.332 C102.782,230.332 102.797,230.33 102.813,230.33 L102.813,230.332 L647.544,230.332 C651.72,230.328 655.761,229.318 658.923,227.488 L738.968,181.308 C745.48,177.56 750.392,169.06 750.392,161.538 L750.417,69.126 C750.422,61.616 745.518,53.116 739.01,49.353 L739.01,49.353 Z" id="Shape" fill="#E4E5E6" sketch:type="MSShapeGroup"></path>
            <path d="M747.883,161.538 C747.883,168.233 743.514,175.798 737.715,179.133 L657.67,225.317 C654.351,227.236 649.789,228.005 645.456,227.644 L104.831,227.644 C100.499,228.005 95.933,227.235 92.602,225.316 L12.578,179.08 C6.789,175.736 2.424,168.172 2.424,161.484 L2.451,69.068 C2.451,62.379 6.821,54.816 12.617,51.475 L92.664,5.29 C94.932,3.981 97.73,3.159 100.702,2.89 L100.702,2.785 L647.57,2.785 C651.32,2.785 654.931,3.677 657.736,5.297 L737.756,51.524 C743.547,54.874 747.912,62.44 747.91,69.126 L747.883,161.538 L747.883,161.538 Z" id="Shape" fill="#FFFFFF" sketch:type="MSShapeGroup"></path>
        </g>
    </g>
</svg>