<?xml version="1.0" encoding="UTF-8" standalone="no"?>
<svg width="781px" height="805px" viewBox="0 0 781 805" version="1.1" xmlns="http://www.w3.org/2000/svg" xmlns:xlink="http://www.w3.org/1999/xlink" xmlns:sketch="http://www.bohemiancoding.com/sketch/ns">
    <!-- Generator: Sketch 3.1 (8751) - http://www.bohemiancoding.com/sketch -->
    <title>scheme_logical-architecture</title>
    <desc>Created with Sketch.</desc>
    <defs></defs>
    <g id="Page-1" stroke="none" stroke-width="1" fill="none" fill-rule="evenodd" sketch:type="MSPage">
        <g id="scheme_logical-architecture" sketch:type="MSLayerGroup" transform="translate(1.000000, 1.000000)">
            <g id="Page-1" sketch:type="MSShapeGroup">
                <g id="logical-architecture">
                    <path d="M359.723,793.295 C359.723,798.795 355.223,803.295 349.723,803.295 L274.723,803.295 C269.223,803.295 264.723,798.795 264.723,793.295 L264.723,754.574 C264.723,749.074 269.223,744.574 274.723,744.574 L349.723,744.574 C355.223,744.574 359.723,749.074 359.723,754.574 L359.723,793.295 L359.723,793.295 Z" id="Shape" fill="#FCB732"></path>
                    <g id="Group">
                        <path d="M778.865,719.574 C778.865,725.074 774.365,729.574 768.865,729.574 L9.722,729.574 C4.222,729.574 -0.278,725.074 -0.278,719.574 L-0.278,9.831 C-0.278,4.331 4.222,-0.169 9.722,-0.169 L768.865,-0.169 C774.365,-0.169 778.865,4.331 778.865,9.831 L778.865,719.574 L778.865,719.574 Z" id="Shape" fill="#FFFFFF"></path>
                        <path d="M778.865,719.574 C778.865,725.074 774.365,729.574 768.865,729.574 L9.722,729.574 C4.222,729.574 -0.278,725.074 -0.278,719.574 L-0.278,9.831 C-0.278,4.331 4.222,-0.169 9.722,-0.169 L768.865,-0.169 C774.365,-0.169 778.865,4.331 778.865,9.831 L778.865,719.574 L778.865,719.574 Z" id="Shape" stroke="#4C5655"></path>
                    </g>
                    <g id="Group" transform="translate(15.000000, 45.000000)">
                        <path d="M616.362,659.574 C616.362,665.074 611.862,669.574 606.362,669.574 L9.722,669.574 C4.222,669.574 -0.278,665.074 -0.278,659.574 L-0.278,9.831 C-0.278,4.331 4.222,-0.169 9.722,-0.169 L606.362,-0.169 C611.862,-0.169 616.362,4.331 616.362,9.831 L616.362,659.574 L616.362,659.574 Z" id="Shape" fill="#FFFFFF"></path>
                        <path d="M616.362,659.574 C616.362,665.074 611.862,669.574 606.362,669.574 L9.722,669.574 C4.222,669.574 -0.278,665.074 -0.278,659.574 L-0.278,9.831 C-0.278,4.331 4.222,-0.169 9.722,-0.169 L606.362,-0.169 C611.862,-0.169 616.362,4.331 616.362,9.831 L616.362,659.574 L616.362,659.574 Z" id="Shape" stroke="#DC3449" stroke-width="2"></path>
                    </g>
                    <path d="M469.723,793.295 C469.723,798.795 465.223,803.295 459.723,803.295 L384.723,803.295 C379.223,803.295 374.723,798.795 374.723,793.295 L374.723,754.574 C374.723,749.074 379.223,744.574 384.723,744.574 L459.723,744.574 C465.223,744.574 469.723,749.074 469.723,754.574 L469.723,793.295 L469.723,793.295 Z" id="Shape" fill="#DC3449"></path>
                    <path d="M249.723,793.295 C249.723,798.795 245.223,803.295 239.723,803.295 L164.723,803.295 C159.223,803.295 154.723,798.795 154.723,793.295 L154.723,754.574 C154.723,749.074 159.223,744.574 164.723,744.574 L239.723,744.574 C245.223,744.574 249.723,749.074 249.723,754.574 L249.723,793.295 L249.723,793.295 Z" id="Shape" fill="#3D9FAC"></path>
                    <g id="Group" transform="translate(30.000000, 90.000000)">
                        <path d="M576.362,520.215 L9.722,520.215 C4.222,520.215 -0.278,515.715 -0.278,510.215 L-0.278,9.833 C-0.278,4.333 4.222,-0.167 9.722,-0.167 L576.362,-0.167 C581.862,-0.167 586.362,4.333 586.362,9.833 L586.362,510.215 C586.362,515.715 581.862,520.215 576.362,520.215 L576.362,520.215 Z" id="Shape" fill="#FFFFFF"></path>
                        <path d="M586.362,510.215 C586.362,515.715 581.862,520.215 576.362,520.215 L9.722,520.215 C4.222,520.215 -0.278,515.715 -0.278,510.215 L-0.278,9.833 C-0.278,4.333 4.222,-0.167 9.722,-0.167 L576.362,-0.167 C581.862,-0.167 586.362,4.333 586.362,9.833 L586.362,510.215 L586.362,510.215 Z" id="Shape" stroke="#4C5655"></path>
                    </g>
                    <g id="Group" transform="translate(306.000000, 431.000000)">
                        <path d="M295.362,258.574 C295.362,264.074 290.862,268.574 285.362,268.574 L10.361,268.574 C4.861,268.574 0.361,264.074 0.361,258.574 L0.361,9.833 C0.361,4.333 4.861,-0.167 10.361,-0.167 L285.362,-0.167 C290.862,-0.167 295.362,4.333 295.362,9.833 L295.362,258.574 L295.362,258.574 Z" id="Shape" fill="#FFFFFF"></path>
                        <path d="M295.362,258.574 C295.362,264.074 290.862,268.574 285.362,268.574 L10.361,268.574 C4.861,268.574 0.361,264.074 0.361,258.574 L0.361,9.833 C0.361,4.333 4.861,-0.167 10.361,-0.167 L285.362,-0.167 C290.862,-0.167 295.362,4.333 295.362,9.833 L295.362,258.574 L295.362,258.574 Z" id="Shape" stroke="#4C5655"></path>
                    </g>
                    <g id="Group" transform="translate(164.000000, 105.000000)">
                        <path d="M127.361,480.215 C127.361,485.715 122.861,490.215 117.361,490.215 L10.292,490.215 C4.792,490.215 0.292,485.715 0.292,480.215 L0.292,9.833 C0.292,4.333 4.792,-0.167 10.292,-0.167 L117.361,-0.167 C122.861,-0.167 127.361,4.333 127.361,9.833 L127.361,480.215 L127.361,480.215 Z" id="Shape" fill="#E5E5E5"></path>
                        <path d="M127.361,480.215 C127.361,485.715 122.861,490.215 117.361,490.215 L10.292,490.215 C4.792,490.215 0.292,485.715 0.292,480.215 L0.292,9.833 C0.292,4.333 4.792,-0.167 10.292,-0.167 L117.361,-0.167 C122.861,-0.167 127.361,4.333 127.361,9.833 L127.361,480.215 L127.361,480.215 Z" id="Shape" stroke="#4C5655"></path>
                    </g>
                    <path d="M276.361,420.833 C276.361,426.333 271.861,430.833 266.361,430.833 L189.292,430.833 C183.792,430.833 179.292,426.333 179.292,420.833 L179.292,380.833 C179.292,375.333 183.792,370.833 189.292,370.833 L266.361,370.833 C271.861,370.833 276.361,375.333 276.361,380.833 L276.361,420.833 L276.361,420.833 Z" id="Shape" fill="#3D9FAC"></path>
                    <g id="Group" transform="translate(179.000000, 521.000000)">
                        <path d="M97.361,49.833 C97.361,55.333 92.861,59.833 87.361,59.833 L10.292,59.833 C4.792,59.833 0.292,55.333 0.292,49.833 L0.292,9.833 C0.292,4.333 4.792,-0.167 10.292,-0.167 L87.361,-0.167 C92.861,-0.167 97.361,4.333 97.361,9.833 L97.361,49.833 L97.361,49.833 Z" id="Shape" fill="#FFFFFF"></path>
                        <path d="M97.361,49.833 C97.361,55.333 92.861,59.833 87.361,59.833 L10.292,59.833 C4.792,59.833 0.292,55.333 0.292,49.833 L0.292,9.833 C0.292,4.333 4.792,-0.167 10.292,-0.167 L87.361,-0.167 C92.861,-0.167 97.361,4.333 97.361,9.833 L97.361,49.833 L97.361,49.833 Z" id="Shape" stroke="#4C5655"></path>
                    </g>
                    <g id="Group" transform="translate(179.000000, 446.000000)">
                        <path d="M97.361,49.833 C97.361,55.333 92.861,59.833 87.361,59.833 L10.292,59.833 C4.792,59.833 0.292,55.333 0.292,49.833 L0.292,9.833 C0.292,4.333 4.792,-0.167 10.292,-0.167 L87.361,-0.167 C92.861,-0.167 97.361,4.333 97.361,9.833 L97.361,49.833 L97.361,49.833 Z" id="Shape" fill="#FFFFFF"></path>
                        <path d="M97.361,49.833 C97.361,55.333 92.861,59.833 87.361,59.833 L10.292,59.833 C4.792,59.833 0.292,55.333 0.292,49.833 L0.292,9.833 C0.292,4.333 4.792,-0.167 10.292,-0.167 L87.361,-0.167 C92.861,-0.167 97.361,4.333 97.361,9.833 L97.361,49.833 L97.361,49.833 Z" id="Shape" stroke="#4C5655"></path>
                    </g>
                    <g id="Group" transform="translate(179.000000, 146.000000)">
                        <path d="M97.361,49.833 C97.361,55.333 92.861,59.833 87.361,59.833 L10.292,59.833 C4.792,59.833 0.292,55.333 0.292,49.833 L0.292,9.833 C0.292,4.333 4.792,-0.167 10.292,-0.167 L87.361,-0.167 C92.861,-0.167 97.361,4.333 97.361,9.833 L97.361,49.833 L97.361,49.833 Z" id="Shape" fill="#FFFFFF"></path>
                        <path d="M97.361,49.833 C97.361,55.333 92.861,59.833 87.361,59.833 L10.292,59.833 C4.792,59.833 0.292,55.333 0.292,49.833 L0.292,9.833 C0.292,4.333 4.792,-0.167 10.292,-0.167 L87.361,-0.167 C92.861,-0.167 97.361,4.333 97.361,9.833 L97.361,49.833 L97.361,49.833 Z" id="Shape" stroke="#4C5655"></path>
                    </g>
                    <path d="M276.361,345.833 C276.361,351.333 271.861,355.833 266.361,355.833 L189.292,355.833 C183.792,355.833 179.292,351.333 179.292,345.833 L179.292,305.833 C179.292,300.333 183.792,295.833 189.292,295.833 L266.361,295.833 C271.861,295.833 276.361,300.333 276.361,305.833 L276.361,345.833 L276.361,345.833 Z" id="Shape" fill="#3D9FAC"></path>
                    <g id="Group" transform="translate(179.000000, 221.000000)">
                        <path d="M97.361,49.833 C97.361,55.333 92.861,59.833 87.361,59.833 L10.292,59.833 C4.792,59.833 0.292,55.333 0.292,49.833 L0.292,9.833 C0.292,4.333 4.792,-0.167 10.292,-0.167 L87.361,-0.167 C92.861,-0.167 97.361,4.333 97.361,9.833 L97.361,49.833 L97.361,49.833 Z" id="Shape" fill="#FFFFFF"></path>
                        <path d="M97.361,49.833 C97.361,55.333 92.861,59.833 87.361,59.833 L10.292,59.833 C4.792,59.833 0.292,55.333 0.292,49.833 L0.292,9.833 C0.292,4.333 4.792,-0.167 10.292,-0.167 L87.361,-0.167 C92.861,-0.167 97.361,4.333 97.361,9.833 L97.361,49.833 L97.361,49.833 Z" id="Shape" stroke="#4C5655"></path>
                    </g>
                    <g id="Group" transform="translate(646.000000, 381.000000)">
                        <path d="M95.365,49.061 C95.365,54.561 90.865,59.061 85.365,59.061 L10.365,59.061 C4.865,59.061 0.365,54.561 0.365,49.061 L0.365,10.341 C0.365,4.841 4.865,0.341 10.365,0.341 L85.365,0.341 C90.865,0.341 95.365,4.841 95.365,10.341 L95.365,49.061 L95.365,49.061 Z" id="Shape" fill="#DC3449"></path>
                        <path d="M95.365,49.061 C95.365,54.561 90.865,59.061 85.365,59.061 L10.365,59.061 C4.865,59.061 0.365,54.561 0.365,49.061 L0.365,10.341 C0.365,4.841 4.865,0.341 10.365,0.341 L85.365,0.341 C90.865,0.341 95.365,4.841 95.365,10.341 L95.365,49.061 L95.365,49.061 Z" id="Shape" stroke="#FFFFFF" stroke-width="2"></path>
                    </g>
                    <g id="Group" transform="translate(654.000000, 374.000000)">
                        <path d="M94.865,48.337 C94.865,53.837 90.365,58.337 84.865,58.337 L9.865,58.337 C4.365,58.337 -0.135,53.837 -0.135,48.337 L-0.135,9.617 C-0.135,4.117 4.365,-0.383 9.865,-0.383 L84.865,-0.383 C90.365,-0.383 94.865,4.117 94.865,9.617 L94.865,48.337 L94.865,48.337 Z" id="Shape" fill="#DC3449"></path>
                        <path d="M94.865,48.337 C94.865,53.837 90.365,58.337 84.865,58.337 L9.865,58.337 C4.365,58.337 -0.135,53.837 -0.135,48.337 L-0.135,9.617 C-0.135,4.117 4.365,-0.383 9.865,-0.383 L84.865,-0.383 C90.365,-0.383 94.865,4.117 94.865,9.617 L94.865,48.337 L94.865,48.337 Z" id="Shape" stroke="#FFFFFF" stroke-width="2"></path>
                    </g>
                    <g id="Group" transform="translate(661.000000, 366.000000)">
                        <path d="M95.365,48.837 C95.365,54.337 90.865,58.837 85.365,58.837 L10.365,58.837 C4.865,58.837 0.365,54.337 0.365,48.837 L0.365,10.117 C0.365,4.617 4.865,0.117 10.365,0.117 L85.365,0.117 C90.865,0.117 95.365,4.617 95.365,10.117 L95.365,48.837 L95.365,48.837 Z" id="Shape" fill="#DC3449"></path>
                        <path d="M95.365,48.837 C95.365,54.337 90.865,58.837 85.365,58.837 L10.365,58.837 C4.865,58.837 0.365,54.337 0.365,48.837 L0.365,10.117 C0.365,4.617 4.865,0.117 10.365,0.117 L85.365,0.117 C90.865,0.117 95.365,4.617 95.365,10.117 L95.365,48.837 L95.365,48.837 Z" id="Shape" stroke="#FFFFFF" stroke-width="2"></path>
                    </g>
                    <g id="Group" transform="translate(60.000000, 759.000000)" fill="#4C5655">
                        <path d="M-0.012,0.628 L4.357,0.628 L4.357,1.767 L1.297,1.767 L1.297,5.779 L4.153,5.779 L4.153,6.884 L1.297,6.884 L1.297,12.085 L-0.012,12.085 L-0.012,0.628 L-0.012,0.628 Z" id="Shape"></path>
                        <path d="M7.144,0.628 L7.144,8.312 C7.144,10.369 7.824,11.066 8.708,11.066 C9.677,11.066 10.289,10.318 10.289,8.312 L10.289,0.628 L11.598,0.628 L11.598,8.107 C11.598,11.082 10.374,12.22 8.675,12.22 C6.958,12.22 5.836,11.098 5.836,8.26 L5.836,0.627 L7.144,0.627 L7.144,0.628 L7.144,0.628 Z" id="Shape"></path>
                        <path d="M13.621,12.085 L13.621,0.628 L14.862,0.628 L16.97,6 C17.446,7.224 18.041,8.753 18.432,9.994 L18.466,9.994 C18.364,8.192 18.313,6.714 18.313,4.724 L18.313,0.627 L19.486,0.627 L19.486,12.084 L18.245,12.084 L16.069,6.576 C15.61,5.421 15.117,4.111 14.709,2.683 L14.675,2.683 C14.777,4.213 14.811,5.675 14.811,8.122 L14.811,12.083 L13.621,12.083 L13.621,12.085 L13.621,12.085 Z" id="Shape"></path>
                        <path d="M26.523,11.881 C26.166,12.069 25.605,12.187 24.891,12.187 C22.647,12.187 21.049,10.385 21.049,6.493 C21.049,1.972 23.293,0.527 25.094,0.527 C25.791,0.527 26.284,0.663 26.522,0.816 L26.233,1.92 C25.961,1.801 25.672,1.682 25.077,1.682 C23.853,1.682 22.425,2.872 22.425,6.373 C22.425,9.875 23.717,11.031 25.111,11.031 C25.604,11.031 26.046,10.912 26.318,10.776 L26.523,11.881 L26.523,11.881 Z" id="Shape"></path>
                        <path d="M29.362,1.801 L27.271,1.801 L27.271,0.628 L32.761,0.628 L32.761,1.801 L30.671,1.801 L30.671,12.085 L29.362,12.085 L29.362,1.801 L29.362,1.801 Z" id="Shape"></path>
                        <path d="M35.346,0.628 L35.346,12.085 L34.037,12.085 L34.037,0.628 L35.346,0.628 L35.346,0.628 Z" id="Shape"></path>
                        <path d="M43.437,6.271 C43.437,10.572 41.958,12.22 40.123,12.22 C38.219,12.22 36.944,10.198 36.944,6.339 C36.944,2.548 38.304,0.491 40.31,0.491 C42.264,0.492 43.437,2.617 43.437,6.271 L43.437,6.271 L43.437,6.271 Z M38.304,6.356 C38.304,8.719 38.763,11.065 40.208,11.065 C41.687,11.065 42.078,8.566 42.078,6.322 C42.078,4.18 41.687,1.648 40.191,1.648 C38.763,1.648 38.304,4.027 38.304,6.356 L38.304,6.356 L38.304,6.356 Z" id="Shape"></path>
                        <path d="M45.002,12.085 L45.002,0.628 L46.243,0.628 L48.351,6 C48.827,7.224 49.422,8.753 49.813,9.994 L49.847,9.994 C49.745,8.192 49.694,6.714 49.694,4.724 L49.694,0.627 L50.867,0.627 L50.867,12.084 L49.626,12.084 L47.45,6.576 C46.991,5.421 46.498,4.111 46.09,2.683 L46.056,2.683 C46.158,4.213 46.192,5.675 46.192,8.122 L46.192,12.083 L45.002,12.083 L45.002,12.085 L45.002,12.085 Z" id="Shape"></path>
                        <path d="M54.284,8.651 L53.519,12.085 L52.261,12.085 L54.879,0.628 L56.324,0.628 L58.874,12.085 L57.582,12.085 L56.817,8.651 L54.284,8.651 L54.284,8.651 Z M56.646,7.598 L56.051,4.691 C55.881,3.876 55.728,2.923 55.592,2.074 L55.524,2.074 C55.388,2.94 55.218,3.927 55.065,4.691 L54.47,7.598 L56.646,7.598 L56.646,7.598 Z" id="Shape"></path>
                        <path d="M60.302,0.628 L61.611,0.628 L61.611,10.981 L64.841,10.981 L64.841,12.085 L60.302,12.085 L60.302,0.628 L60.302,0.628 Z" id="Shape"></path>
                        <path d="M21.22,25.651 L20.455,29.085 L19.197,29.085 L21.815,17.628 L23.26,17.628 L25.81,29.085 L24.518,29.085 L23.753,25.651 L21.22,25.651 L21.22,25.651 Z M23.583,24.598 L22.988,21.691 C22.818,20.876 22.665,19.923 22.529,19.074 L22.461,19.074 C22.325,19.94 22.155,20.927 22.002,21.691 L21.407,24.598 L23.583,24.598 L23.583,24.598 Z" id="Shape"></path>
                        <path d="M27.238,17.798 C27.782,17.662 28.428,17.577 29.159,17.577 C30.196,17.577 31.079,17.798 31.692,18.376 C32.185,18.835 32.44,19.515 32.44,20.331 C32.44,21.504 31.794,22.438 30.672,22.881 L30.672,22.915 C31.998,23.271 32.797,24.343 32.797,25.838 C32.797,26.79 32.491,27.555 31.981,28.116 C31.335,28.846 30.264,29.153 28.956,29.153 C28.106,29.153 27.596,29.101 27.239,29.034 L27.239,17.798 L27.238,17.798 L27.238,17.798 Z M28.547,22.489 L29.142,22.489 C30.213,22.489 31.131,21.674 31.131,20.467 C31.131,19.413 30.638,18.597 29.244,18.597 C28.938,18.597 28.7,18.631 28.547,18.682 L28.547,22.489 L28.547,22.489 Z M28.547,28.048 C28.7,28.082 28.921,28.116 29.21,28.116 C30.57,28.116 31.454,27.317 31.454,25.838 C31.454,24.258 30.349,23.51 29.125,23.492 L28.547,23.492 L28.547,28.048 L28.547,28.048 Z" id="Shape"></path>
                        <path d="M34.31,17.798 C34.854,17.662 35.5,17.577 36.231,17.577 C37.268,17.577 38.151,17.798 38.764,18.376 C39.257,18.835 39.512,19.515 39.512,20.331 C39.512,21.504 38.866,22.438 37.744,22.881 L37.744,22.915 C39.07,23.271 39.869,24.343 39.869,25.838 C39.869,26.79 39.563,27.555 39.053,28.116 C38.407,28.846 37.336,29.153 36.028,29.153 C35.178,29.153 34.668,29.101 34.311,29.034 L34.311,17.798 L34.31,17.798 L34.31,17.798 Z M35.619,22.489 L36.214,22.489 C37.285,22.489 38.203,21.674 38.203,20.467 C38.203,19.413 37.71,18.597 36.316,18.597 C36.01,18.597 35.772,18.631 35.619,18.682 L35.619,22.489 L35.619,22.489 Z M35.619,28.048 C35.772,28.082 35.993,28.116 36.282,28.116 C37.642,28.116 38.526,27.317 38.526,25.838 C38.526,24.258 37.421,23.51 36.197,23.492 L35.619,23.492 L35.619,28.048 L35.619,28.048 Z" id="Shape"></path>
                        <path d="M41.059,27.725 C41.348,27.913 41.858,28.151 42.385,28.151 C43.133,28.151 43.592,27.692 43.592,26.961 C43.592,26.332 43.371,25.907 42.538,25.347 C41.467,24.65 40.889,23.952 40.889,23.001 C40.889,21.675 41.875,20.723 43.15,20.723 C43.796,20.723 44.289,20.944 44.629,21.148 L44.272,22.134 C43.966,21.93 43.609,21.777 43.184,21.777 C42.47,21.777 42.113,22.287 42.113,22.814 C42.113,23.375 42.317,23.681 43.133,24.242 C44.085,24.854 44.833,25.602 44.833,26.741 C44.833,28.389 43.711,29.188 42.368,29.188 C41.756,29.188 41.093,29.001 40.736,28.712 L41.059,27.725 L41.059,27.725 Z" id="Shape"></path>
                    </g>
                    <path d="M139.723,793.295 C139.723,798.795 135.223,803.295 129.723,803.295 L54.723,803.295 C49.223,803.295 44.723,798.795 44.723,793.295 L44.723,754.574 C44.723,749.074 49.223,744.574 54.723,744.574 L129.723,744.574 C135.223,744.574 139.723,749.074 139.723,754.574 L139.723,793.295 L139.723,793.295 Z" id="Shape" stroke="#4C5655"></path>
                    <g id="Group" transform="translate(167.000000, 759.000000)" fill="#FFFFFF">
                        <path d="M5.919,11.881 C5.562,12.069 5.001,12.187 4.287,12.187 C2.043,12.187 0.445,10.385 0.445,6.493 C0.445,1.972 2.689,0.527 4.49,0.527 C5.187,0.527 5.68,0.663 5.918,0.816 L5.629,1.92 C5.357,1.801 5.068,1.682 4.473,1.682 C3.249,1.682 1.821,2.872 1.821,6.373 C1.821,9.875 3.113,11.031 4.507,11.031 C5,11.031 5.442,10.912 5.714,10.776 L5.919,11.881 L5.919,11.881 Z" id="Shape"></path>
                        <path d="M12.991,6.271 C12.991,10.572 11.512,12.22 9.677,12.22 C7.773,12.22 6.498,10.198 6.498,6.339 C6.498,2.548 7.858,0.491 9.864,0.491 C11.818,0.492 12.991,2.617 12.991,6.271 L12.991,6.271 L12.991,6.271 Z M7.857,6.356 C7.857,8.719 8.316,11.065 9.761,11.065 C11.24,11.065 11.631,8.566 11.631,6.322 C11.631,4.18 11.24,1.648 9.744,1.648 C8.316,1.648 7.857,4.027 7.857,6.356 L7.857,6.356 L7.857,6.356 Z" id="Shape"></path>
                        <path d="M14.556,0.798 C15.117,0.646 15.797,0.577 16.443,0.577 C17.582,0.577 18.432,0.815 19.026,1.392 C19.587,1.97 19.825,2.736 19.825,3.636 C19.825,5.098 19.145,6.05 17.989,6.576 L17.989,6.61 C18.839,6.865 19.281,7.681 19.536,9.177 C19.791,10.757 20.029,11.726 20.182,12.083 L18.856,12.083 C18.686,11.743 18.465,10.655 18.244,9.244 C17.989,7.681 17.496,7.086 16.374,7.086 L15.864,7.086 L15.864,12.083 L14.555,12.083 L14.555,0.798 L14.556,0.798 L14.556,0.798 Z M15.864,6.085 L16.408,6.085 C17.666,6.085 18.499,5.167 18.499,3.79 C18.499,2.464 17.955,1.648 16.544,1.631 C16.289,1.631 16.034,1.649 15.864,1.699 L15.864,6.085 L15.864,6.085 Z" id="Shape"></path>
                        <path d="M25.69,6.646 L22.817,6.646 L22.817,10.947 L26.081,10.947 L26.081,12.086 L21.509,12.086 L21.509,0.629 L25.878,0.629 L25.878,1.768 L22.818,1.768 L22.818,5.542 L25.691,5.542 L25.691,6.646 L25.69,6.646 L25.69,6.646 Z" id="Shape"></path>
                        <path d="M29.94,10.572 C30.331,10.827 31.011,11.031 31.588,11.031 C32.778,11.031 33.492,10.249 33.492,9.093 C33.492,8.038 32.88,7.393 31.979,6.713 C31.078,6.084 29.82,5.013 29.82,3.534 C29.82,1.8 31.027,0.525 32.846,0.525 C33.56,0.525 34.189,0.746 34.461,0.95 L34.138,2.072 C33.849,1.868 33.373,1.68 32.778,1.68 C31.656,1.68 31.129,2.531 31.129,3.312 C31.129,4.452 31.724,4.893 32.812,5.675 C34.189,6.644 34.801,7.697 34.801,8.973 C34.801,10.945 33.407,12.185 31.588,12.185 C30.806,12.185 29.973,11.93 29.65,11.693 L29.94,10.572 L29.94,10.572 Z" id="Shape"></path>
                        <path d="M37.998,12.085 L37.998,7.24 L35.482,0.628 L36.859,0.628 L37.879,3.501 C38.168,4.3 38.474,5.2 38.729,6.085 L38.763,6.085 C39.001,5.2 39.29,4.334 39.596,3.45 L40.565,0.628 L41.942,0.628 L39.307,7.19 L39.307,12.086 L37.998,12.086 L37.998,12.085 L37.998,12.085 Z" id="Shape"></path>
                        <path d="M42.605,10.572 C42.996,10.827 43.676,11.031 44.253,11.031 C45.443,11.031 46.157,10.249 46.157,9.093 C46.157,8.038 45.545,7.393 44.644,6.713 C43.743,6.084 42.485,5.013 42.485,3.534 C42.485,1.8 43.692,0.525 45.51,0.525 C46.224,0.525 46.853,0.746 47.125,0.95 L46.802,2.072 C46.513,1.868 46.037,1.68 45.442,1.68 C44.32,1.68 43.793,2.531 43.793,3.312 C43.793,4.452 44.388,4.893 45.476,5.675 C46.853,6.644 47.465,7.697 47.465,8.973 C47.465,10.945 46.071,12.185 44.252,12.185 C43.47,12.185 42.637,11.93 42.314,11.693 L42.605,10.572 L42.605,10.572 Z" id="Shape"></path>
                        <path d="M50.339,1.801 L48.248,1.801 L48.248,0.628 L53.738,0.628 L53.738,1.801 L51.647,1.801 L51.647,12.085 L50.338,12.085 L50.338,1.801 L50.339,1.801 L50.339,1.801 Z" id="Shape"></path>
                        <path d="M59.196,6.646 L56.323,6.646 L56.323,10.947 L59.587,10.947 L59.587,12.086 L55.015,12.086 L55.015,0.629 L59.384,0.629 L59.384,1.768 L56.324,1.768 L56.324,5.542 L59.197,5.542 L59.197,6.646 L59.196,6.646 L59.196,6.646 Z" id="Shape"></path>
                        <path d="M67.967,7.155 C67.882,5.642 67.797,3.96 67.848,2.668 L67.78,2.668 C67.525,3.942 67.219,5.303 66.862,6.646 L65.451,12.017 L64.618,12.017 L63.275,6.867 C62.901,5.405 62.561,3.995 62.34,2.669 L62.289,2.669 C62.289,4.012 62.221,5.609 62.153,7.241 L61.932,12.086 L60.759,12.086 L61.439,0.629 L62.85,0.629 L64.193,5.864 C64.584,7.377 64.873,8.499 65.111,9.808 L65.162,9.808 C65.383,8.498 65.638,7.411 66.012,5.864 L67.304,0.629 L68.765,0.629 L69.428,12.086 L68.204,12.086 L67.967,7.155 L67.967,7.155 Z" id="Shape"></path>
                        <path d="M24.22,25.651 L23.455,29.085 L22.197,29.085 L24.815,17.628 L26.26,17.628 L28.81,29.085 L27.518,29.085 L26.753,25.651 L24.22,25.651 L24.22,25.651 Z M26.583,24.598 L25.988,21.691 C25.818,20.876 25.665,19.923 25.529,19.074 L25.461,19.074 C25.325,19.94 25.155,20.927 25.002,21.691 L24.407,24.598 L26.583,24.598 L26.583,24.598 Z" id="Shape"></path>
                        <path d="M30.238,17.798 C30.782,17.662 31.428,17.577 32.159,17.577 C33.196,17.577 34.079,17.798 34.692,18.376 C35.185,18.835 35.44,19.515 35.44,20.331 C35.44,21.504 34.794,22.438 33.672,22.881 L33.672,22.915 C34.998,23.271 35.797,24.343 35.797,25.838 C35.797,26.79 35.491,27.555 34.981,28.116 C34.335,28.846 33.264,29.153 31.956,29.153 C31.106,29.153 30.596,29.101 30.239,29.034 L30.239,17.798 L30.238,17.798 L30.238,17.798 Z M31.547,22.489 L32.142,22.489 C33.213,22.489 34.131,21.674 34.131,20.467 C34.131,19.413 33.638,18.597 32.244,18.597 C31.938,18.597 31.7,18.631 31.547,18.682 L31.547,22.489 L31.547,22.489 Z M31.547,28.048 C31.7,28.082 31.921,28.116 32.21,28.116 C33.57,28.116 34.454,27.317 34.454,25.838 C34.454,24.258 33.349,23.51 32.125,23.492 L31.547,23.492 L31.547,28.048 L31.547,28.048 Z" id="Shape"></path>
                        <path d="M37.31,17.798 C37.854,17.662 38.5,17.577 39.231,17.577 C40.268,17.577 41.151,17.798 41.764,18.376 C42.257,18.835 42.512,19.515 42.512,20.331 C42.512,21.504 41.866,22.438 40.744,22.881 L40.744,22.915 C42.07,23.271 42.869,24.343 42.869,25.838 C42.869,26.79 42.563,27.555 42.053,28.116 C41.407,28.846 40.336,29.153 39.028,29.153 C38.178,29.153 37.668,29.101 37.311,29.034 L37.311,17.798 L37.31,17.798 L37.31,17.798 Z M38.619,22.489 L39.214,22.489 C40.285,22.489 41.203,21.674 41.203,20.467 C41.203,19.413 40.71,18.597 39.316,18.597 C39.01,18.597 38.772,18.631 38.619,18.682 L38.619,22.489 L38.619,22.489 Z M38.619,28.048 C38.772,28.082 38.993,28.116 39.282,28.116 C40.642,28.116 41.526,27.317 41.526,25.838 C41.526,24.258 40.421,23.51 39.197,23.492 L38.619,23.492 L38.619,28.048 L38.619,28.048 Z" id="Shape"></path>
                        <path d="M44.059,27.725 C44.348,27.913 44.858,28.151 45.385,28.151 C46.133,28.151 46.592,27.692 46.592,26.961 C46.592,26.332 46.371,25.907 45.538,25.347 C44.467,24.65 43.889,23.952 43.889,23.001 C43.889,21.675 44.875,20.723 46.15,20.723 C46.796,20.723 47.289,20.944 47.629,21.148 L47.272,22.134 C46.966,21.93 46.609,21.777 46.184,21.777 C45.47,21.777 45.113,22.287 45.113,22.814 C45.113,23.375 45.317,23.681 46.133,24.242 C47.085,24.854 47.833,25.602 47.833,26.741 C47.833,28.389 46.711,29.188 45.368,29.188 C44.756,29.188 44.093,29.001 43.736,28.712 L44.059,27.725 L44.059,27.725 Z" id="Shape"></path>
                    </g>
                    <g id="Group" transform="translate(287.000000, 760.000000)" fill="#FFFFFF">
                        <path d="M3.756,5.646 L0.883,5.646 L0.883,9.947 L4.147,9.947 L4.147,11.086 L-0.425,11.086 L-0.425,-0.371 L3.944,-0.371 L3.944,0.768 L0.884,0.768 L0.884,4.542 L3.757,4.542 L3.757,5.646 L3.756,5.646 L3.756,5.646 Z" id="Shape"></path>
                        <path d="M9.621,11.085 L8.584,8.331 C8.346,7.702 8.142,7.107 7.887,6.325 L7.836,6.325 C7.581,7.091 7.36,7.753 7.139,8.365 L6.153,11.085 L4.81,11.085 L7.173,5.237 L4.895,-0.372 L6.255,-0.372 L7.275,2.28 C7.496,2.806 7.683,3.35 7.955,4.098 L7.989,4.098 C8.244,3.299 8.414,2.789 8.601,2.228 L9.536,-0.373 L10.879,-0.373 L8.635,5.202 L10.998,11.084 L9.621,11.084 L9.621,11.085 L9.621,11.085 Z" id="Shape"></path>
                        <path d="M13.769,0.801 L11.678,0.801 L11.678,-0.372 L17.168,-0.372 L17.168,0.801 L15.077,0.801 L15.077,11.085 L13.768,11.085 L13.768,0.801 L13.769,0.801 L13.769,0.801 Z" id="Shape"></path>
                        <path d="M22.625,5.646 L19.752,5.646 L19.752,9.947 L23.016,9.947 L23.016,11.086 L18.444,11.086 L18.444,-0.371 L22.813,-0.371 L22.813,0.768 L19.753,0.768 L19.753,4.542 L22.626,4.542 L22.626,5.646 L22.625,5.646 L22.625,5.646 Z" id="Shape"></path>
                        <path d="M24.461,-0.202 C25.022,-0.354 25.702,-0.423 26.348,-0.423 C27.487,-0.423 28.337,-0.185 28.931,0.392 C29.492,0.97 29.73,1.736 29.73,2.636 C29.73,4.098 29.05,5.05 27.894,5.576 L27.894,5.61 C28.744,5.865 29.186,6.681 29.441,8.177 C29.696,9.757 29.934,10.726 30.087,11.083 L28.761,11.083 C28.591,10.743 28.37,9.655 28.149,8.244 C27.894,6.681 27.401,6.086 26.279,6.086 L25.769,6.086 L25.769,11.083 L24.46,11.083 L24.46,-0.202 L24.461,-0.202 L24.461,-0.202 Z M25.77,5.085 L26.314,5.085 C27.572,5.085 28.405,4.167 28.405,2.79 C28.405,1.464 27.861,0.648 26.45,0.631 C26.195,0.631 25.94,0.649 25.77,0.699 L25.77,5.085 L25.77,5.085 Z" id="Shape"></path>
                        <path d="M31.415,11.085 L31.415,-0.372 L32.656,-0.372 L34.764,5 C35.24,6.224 35.835,7.753 36.226,8.994 L36.26,8.994 C36.158,7.192 36.107,5.714 36.107,3.724 L36.107,-0.373 L37.28,-0.373 L37.28,11.084 L36.039,11.084 L33.863,5.576 C33.404,4.421 32.911,3.111 32.503,1.683 L32.469,1.683 C32.571,3.213 32.605,4.675 32.605,7.122 L32.605,11.083 L31.415,11.083 L31.415,11.085 L31.415,11.085 Z" id="Shape"></path>
                        <path d="M40.696,7.651 L39.931,11.085 L38.673,11.085 L41.291,-0.372 L42.736,-0.372 L45.286,11.085 L43.994,11.085 L43.229,7.651 L40.696,7.651 L40.696,7.651 Z M43.059,6.598 L42.464,3.691 C42.294,2.876 42.141,1.923 42.005,1.074 L41.937,1.074 C41.801,1.94 41.631,2.927 41.478,3.691 L40.883,6.598 L43.059,6.598 L43.059,6.598 Z" id="Shape"></path>
                        <path d="M46.714,-0.372 L48.023,-0.372 L48.023,9.981 L51.253,9.981 L51.253,11.085 L46.714,11.085 L46.714,-0.372 L46.714,-0.372 Z" id="Shape"></path>
                        <path d="M14.628,24.651 L13.863,28.085 L12.605,28.085 L15.223,16.628 L16.668,16.628 L19.218,28.085 L17.926,28.085 L17.161,24.651 L14.628,24.651 L14.628,24.651 Z M16.991,23.598 L16.396,20.691 C16.226,19.876 16.073,18.923 15.937,18.074 L15.869,18.074 C15.733,18.94 15.563,19.927 15.41,20.691 L14.815,23.598 L16.991,23.598 L16.991,23.598 Z" id="Shape"></path>
                        <path d="M20.646,16.798 C21.173,16.662 21.802,16.577 22.55,16.577 C23.604,16.577 24.488,16.832 25.083,17.427 C25.644,17.971 25.933,18.804 25.933,19.79 C25.933,20.844 25.678,21.558 25.236,22.136 C24.607,22.986 23.553,23.41 22.533,23.41 C22.312,23.41 22.142,23.41 21.955,23.393 L21.955,28.084 L20.646,28.084 L20.646,16.798 L20.646,16.798 Z M21.955,22.288 C22.108,22.322 22.244,22.34 22.465,22.34 C23.757,22.34 24.624,21.489 24.624,19.875 C24.624,18.702 24.131,17.648 22.686,17.648 C22.38,17.648 22.125,17.681 21.955,17.733 L21.955,22.288 L21.955,22.288 Z" id="Shape"></path>
                        <path d="M27.429,16.798 C27.956,16.662 28.585,16.577 29.333,16.577 C30.387,16.577 31.271,16.832 31.866,17.427 C32.427,17.971 32.716,18.804 32.716,19.79 C32.716,20.844 32.461,21.558 32.019,22.136 C31.39,22.986 30.336,23.41 29.316,23.41 C29.095,23.41 28.925,23.41 28.738,23.393 L28.738,28.084 L27.429,28.084 L27.429,16.798 L27.429,16.798 Z M28.737,22.288 C28.89,22.322 29.026,22.34 29.247,22.34 C30.539,22.34 31.406,21.489 31.406,19.875 C31.406,18.702 30.913,17.648 29.468,17.648 C29.162,17.648 28.907,17.681 28.737,17.733 L28.737,22.288 L28.737,22.288 Z" id="Shape"></path>
                        <path d="M33.65,26.725 C33.939,26.913 34.449,27.151 34.976,27.151 C35.724,27.151 36.183,26.692 36.183,25.961 C36.183,25.332 35.962,24.907 35.129,24.347 C34.058,23.65 33.48,22.952 33.48,22.001 C33.48,20.675 34.466,19.723 35.741,19.723 C36.387,19.723 36.88,19.944 37.22,20.148 L36.863,21.134 C36.557,20.93 36.2,20.777 35.775,20.777 C35.061,20.777 34.704,21.287 34.704,21.814 C34.704,22.375 34.908,22.681 35.724,23.242 C36.676,23.854 37.424,24.602 37.424,25.741 C37.424,27.389 36.302,28.188 34.959,28.188 C34.347,28.188 33.684,28.001 33.327,27.712 L33.65,26.725 L33.65,26.725 Z" id="Shape"></path>
                    </g>
                    <g id="Group" transform="translate(418.000000, 622.000000)">
                        <path d="M3.385,3.214 L68.34,3.214" id="Shape" stroke="#4C5655"></path>
                        <path d="M6.406,6.685 L0.362,3.194 L6.406,-0.296 L6.406,6.685 L6.406,6.685 Z" id="Shape" fill="#4C5655"></path>
                        <path d="M67.318,6.685 L73.363,3.194 L67.318,-0.296 L67.318,6.685 L67.318,6.685 Z" id="Shape" fill="#4C5655"></path>
                    </g>
                    <g id="Group" transform="translate(461.000000, 489.000000)">
                        <path d="M30.362,3.416 L5.386,3.416" id="Shape" stroke="#4C5655"></path>
                        <path d="M6.407,-0.055 L0.362,3.436 L6.407,6.926 L6.407,-0.055 L6.407,-0.055 Z" id="Shape" fill="#4C5655"></path>
                    </g>
                    <g id="Group" transform="translate(461.000000, 315.000000)">
                        <path d="M25.339,3.027 L5.386,3.027" id="Shape" stroke="#4C5655"></path>
                        <path d="M24.317,-0.443 L30.362,3.046 L24.317,6.537 L24.317,-0.443 L24.317,-0.443 Z" id="Shape" fill="#4C5655"></path>
                        <path d="M6.407,-0.443 L0.362,3.046 L6.407,6.537 L6.407,-0.443 L6.407,-0.443 Z" id="Shape" fill="#4C5655"></path>
                    </g>
                    <g id="Group" transform="translate(291.000000, 315.000000)">
                        <path d="M25.338,3.027 L5.385,3.027" id="Shape" stroke="#4C5655"></path>
                        <path d="M24.316,-0.443 L30.361,3.046 L24.316,6.537 L24.316,-0.443 L24.316,-0.443 Z" id="Shape" fill="#4C5655"></path>
                        <path d="M6.406,-0.443 L0.361,3.046 L6.406,6.537 L6.406,-0.443 L6.406,-0.443 Z" id="Shape" fill="#4C5655"></path>
                    </g>
                    <g id="Group" transform="translate(388.000000, 365.000000)">
                        <path d="M3.605,75.811 L3.605,4.634" id="Shape" stroke="#4C5655"></path>
                        <path d="M7.076,74.789 L3.586,80.834 L0.095,74.789 L7.076,74.789 L7.076,74.789 Z" id="Shape" fill="#4C5655"></path>
                        <path d="M7.076,5.655 L3.586,-0.389 L0.095,5.655 L7.076,5.655 L7.076,5.655 Z" id="Shape" fill="#4C5655"></path>
                    </g>
                    <g id="Group" transform="translate(90.000000, 393.000000)">
                        <path d="M3.257,47.81 L3.257,5.356" id="Shape" stroke="#4C5655"></path>
                        <path d="M6.728,46.788 L3.238,52.833 L-0.252,46.788 L6.728,46.788 L6.728,46.788 Z" id="Shape" fill="#4C5655"></path>
                        <path d="M6.728,6.378 L3.238,0.333 L-0.252,6.378 L6.728,6.378 L6.728,6.378 Z" id="Shape" fill="#4C5655"></path>
                    </g>
                    <g id="Group" transform="translate(142.000000, 472.000000)">
                        <path d="M4.815,3.833 L32.269,3.833" id="Shape" stroke="#4C5655"></path>
                        <path d="M5.837,7.304 L-0.208,3.813 L5.837,0.323 L5.837,7.304 L5.837,7.304 Z" id="Shape" fill="#4C5655"></path>
                        <path d="M31.247,7.304 L37.292,3.813 L31.247,0.323 L31.247,7.304 L31.247,7.304 Z" id="Shape" fill="#4C5655"></path>
                    </g>
                    <g id="Group" transform="translate(142.000000, 547.000000)">
                        <path d="M4.815,3.833 L32.269,3.833" id="Shape" stroke="#4C5655"></path>
                        <path d="M5.837,7.304 L-0.208,3.813 L5.837,0.323 L5.837,7.304 L5.837,7.304 Z" id="Shape" fill="#4C5655"></path>
                        <path d="M31.247,7.304 L37.292,3.813 L31.247,0.323 L31.247,7.304 L31.247,7.304 Z" id="Shape" fill="#4C5655"></path>
                    </g>
                    <g id="Group" transform="translate(398.000000, 767.000000)" fill="#FFFFFF">
                        <path d="M0.054,0.638 C0.564,0.486 1.159,0.417 1.822,0.417 C3.029,0.417 3.879,0.723 4.508,1.284 C5.392,2.049 6.055,3.527 6.055,5.925 C6.055,8.542 5.409,9.97 4.678,10.752 C3.93,11.602 2.842,11.993 1.516,11.993 C0.989,11.993 0.445,11.959 0.054,11.874 L0.054,0.638 L0.054,0.638 Z M1.362,10.854 C1.549,10.888 1.736,10.888 1.855,10.888 C3.3,10.888 4.694,9.851 4.694,5.958 C4.694,3.068 3.81,1.488 1.974,1.488 C1.77,1.488 1.532,1.505 1.362,1.555 L1.362,10.854 L1.362,10.854 Z" id="Shape"></path>
                        <path d="M13.636,6.111 C13.636,10.412 12.157,12.06 10.322,12.06 C8.418,12.06 7.143,10.038 7.143,6.179 C7.143,2.388 8.503,0.331 10.509,0.331 C12.463,0.332 13.636,2.457 13.636,6.111 L13.636,6.111 L13.636,6.111 Z M8.502,6.196 C8.502,8.559 8.961,10.905 10.406,10.905 C11.885,10.905 12.276,8.406 12.276,6.162 C12.276,4.02 11.885,1.488 10.389,1.488 C8.961,1.488 8.502,3.867 8.502,6.196 L8.502,6.196 L8.502,6.196 Z" id="Shape"></path>
                        <path d="M22.136,6.995 C22.051,5.482 21.966,3.8 22.017,2.508 L21.949,2.508 C21.694,3.782 21.388,5.143 21.031,6.486 L19.62,11.857 L18.787,11.857 L17.444,6.707 C17.07,5.245 16.73,3.835 16.509,2.509 L16.458,2.509 C16.458,3.852 16.39,5.449 16.322,7.081 L16.101,11.926 L14.928,11.926 L15.608,0.469 L17.019,0.469 L18.362,5.704 C18.753,7.217 19.042,8.339 19.28,9.648 L19.331,9.648 C19.552,8.338 19.807,7.251 20.181,5.704 L21.473,0.469 L22.934,0.469 L23.597,11.926 L22.373,11.926 L22.136,6.995 L22.136,6.995 Z" id="Shape"></path>
                        <path d="M26.642,8.491 L25.877,11.925 L24.619,11.925 L27.237,0.468 L28.682,0.468 L31.232,11.925 L29.94,11.925 L29.175,8.491 L26.642,8.491 L26.642,8.491 Z M29.004,7.438 L28.409,4.531 C28.239,3.716 28.086,2.763 27.95,1.914 L27.882,1.914 C27.746,2.78 27.576,3.767 27.423,4.531 L26.828,7.438 L29.004,7.438 L29.004,7.438 Z" id="Shape"></path>
                        <path d="M33.969,0.468 L33.969,11.925 L32.66,11.925 L32.66,0.468 L33.969,0.468 L33.969,0.468 Z" id="Shape"></path>
                        <path d="M36.043,11.925 L36.043,0.468 L37.284,0.468 L39.392,5.84 C39.868,7.064 40.463,8.593 40.854,9.834 L40.888,9.834 C40.786,8.032 40.735,6.554 40.735,4.564 L40.735,0.467 L41.908,0.467 L41.908,11.924 L40.667,11.924 L38.491,6.416 C38.032,5.261 37.539,3.951 37.131,2.523 L37.097,2.523 C37.199,4.053 37.233,5.515 37.233,7.962 L37.233,11.923 L36.043,11.923 L36.043,11.925 L36.043,11.925 Z" id="Shape"></path>
                        <path d="M43.693,10.412 C44.084,10.667 44.764,10.871 45.341,10.871 C46.531,10.871 47.245,10.089 47.245,8.933 C47.245,7.878 46.633,7.233 45.732,6.553 C44.831,5.924 43.573,4.853 43.573,3.374 C43.573,1.64 44.78,0.365 46.598,0.365 C47.312,0.365 47.941,0.586 48.213,0.79 L47.89,1.912 C47.601,1.708 47.125,1.52 46.53,1.52 C45.408,1.52 44.881,2.371 44.881,3.152 C44.881,4.292 45.476,4.733 46.564,5.515 C47.941,6.484 48.553,7.537 48.553,8.813 C48.553,10.785 47.159,12.025 45.34,12.025 C44.558,12.025 43.725,11.77 43.402,11.533 L43.693,10.412 L43.693,10.412 Z" id="Shape"></path>
                    </g>
                    <g id="Group" transform="translate(190.000000, 119.000000)" fill="#4C5655">
                        <path d="M0.214,10.32 C0.605,10.575 1.285,10.779 1.862,10.779 C3.052,10.779 3.766,9.997 3.766,8.841 C3.766,7.786 3.154,7.141 2.253,6.461 C1.352,5.832 0.094,4.761 0.094,3.282 C0.094,1.548 1.301,0.273 3.119,0.273 C3.833,0.273 4.462,0.494 4.734,0.698 L4.411,1.82 C4.122,1.616 3.646,1.428 3.051,1.428 C1.929,1.428 1.402,2.279 1.402,3.06 C1.402,4.2 1.997,4.641 3.085,5.423 C4.462,6.392 5.074,7.445 5.074,8.721 C5.074,10.693 3.68,11.933 1.861,11.933 C1.079,11.933 0.246,11.678 -0.077,11.441 L0.214,10.32 L0.214,10.32 Z" id="Shape"></path>
                        <path d="M10.788,6.393 L7.915,6.393 L7.915,10.694 L11.179,10.694 L11.179,11.833 L6.607,11.833 L6.607,0.376 L10.976,0.376 L10.976,1.515 L7.916,1.515 L7.916,5.289 L10.789,5.289 L10.789,6.393 L10.788,6.393 L10.788,6.393 Z" id="Shape"></path>
                        <path d="M12.624,0.545 C13.185,0.393 13.865,0.324 14.511,0.324 C15.65,0.324 16.5,0.562 17.094,1.139 C17.655,1.717 17.893,2.483 17.893,3.383 C17.893,4.845 17.213,5.797 16.057,6.323 L16.057,6.357 C16.907,6.612 17.349,7.428 17.604,8.924 C17.859,10.504 18.097,11.473 18.25,11.83 L16.924,11.83 C16.754,11.49 16.533,10.402 16.312,8.991 C16.057,7.428 15.564,6.833 14.442,6.833 L13.932,6.833 L13.932,11.83 L12.623,11.83 L12.623,0.545 L12.624,0.545 L12.624,0.545 Z M13.932,5.833 L14.476,5.833 C15.734,5.833 16.567,4.915 16.567,3.538 C16.567,2.212 16.023,1.396 14.612,1.379 C14.357,1.379 14.102,1.397 13.932,1.447 L13.932,5.833 L13.932,5.833 Z" id="Shape"></path>
                        <path d="M21.446,11.833 L18.828,0.376 L20.222,0.376 L21.344,5.748 C21.616,7.039 21.956,8.688 22.16,10.15 L22.211,10.15 C22.381,8.671 22.704,7.073 22.976,5.713 L24.064,0.375 L25.458,0.375 L22.789,11.832 L21.446,11.832 L21.446,11.833 L21.446,11.833 Z" id="Shape"></path>
                        <path d="M28.042,0.375 L28.042,11.832 L26.733,11.832 L26.733,0.375 L28.042,0.375 L28.042,0.375 Z" id="Shape"></path>
                        <path d="M35.114,11.628 C34.757,11.816 34.196,11.934 33.482,11.934 C31.238,11.934 29.64,10.132 29.64,6.24 C29.64,1.719 31.884,0.274 33.685,0.274 C34.382,0.274 34.875,0.41 35.113,0.563 L34.824,1.667 C34.552,1.548 34.263,1.429 33.668,1.429 C32.444,1.429 31.016,2.619 31.016,6.12 C31.016,9.622 32.308,10.778 33.702,10.778 C34.195,10.778 34.637,10.659 34.909,10.523 L35.114,11.628 L35.114,11.628 Z" id="Shape"></path>
                        <path d="M40.639,6.393 L37.766,6.393 L37.766,10.694 L41.03,10.694 L41.03,11.833 L36.458,11.833 L36.458,0.376 L40.827,0.376 L40.827,1.515 L37.767,1.515 L37.767,5.289 L40.64,5.289 L40.64,6.393 L40.639,6.393 L40.639,6.393 Z" id="Shape"></path>
                        <path d="M45.144,0.375 L46.453,0.375 L46.453,10.728 L49.683,10.728 L49.683,11.832 L45.144,11.832 L45.144,0.375 L45.144,0.375 Z" id="Shape"></path>
                        <path d="M52.419,8.399 L51.654,11.833 L50.396,11.833 L53.014,0.376 L54.459,0.376 L57.009,11.833 L55.717,11.833 L54.952,8.399 L52.419,8.399 L52.419,8.399 Z M54.782,7.345 L54.187,4.438 C54.017,3.623 53.864,2.67 53.728,1.821 L53.66,1.821 C53.524,2.687 53.354,3.674 53.201,4.438 L52.606,7.345 L54.782,7.345 L54.782,7.345 Z" id="Shape"></path>
                        <path d="M59.219,11.833 L59.219,6.988 L56.703,0.376 L58.08,0.376 L59.1,3.249 C59.389,4.048 59.695,4.948 59.95,5.833 L59.984,5.833 C60.222,4.948 60.511,4.082 60.817,3.198 L61.786,0.376 L63.163,0.376 L60.528,6.938 L60.528,11.834 L59.219,11.834 L59.219,11.833 L59.219,11.833 Z" id="Shape"></path>
                        <path d="M68.433,6.393 L65.56,6.393 L65.56,10.694 L68.824,10.694 L68.824,11.833 L64.252,11.833 L64.252,0.376 L68.621,0.376 L68.621,1.515 L65.561,1.515 L65.561,5.289 L68.434,5.289 L68.434,6.393 L68.433,6.393 L68.433,6.393 Z" id="Shape"></path>
                        <path d="M70.269,0.545 C70.83,0.393 71.51,0.324 72.156,0.324 C73.295,0.324 74.145,0.562 74.739,1.139 C75.3,1.717 75.538,2.483 75.538,3.383 C75.538,4.845 74.858,5.797 73.702,6.323 L73.702,6.357 C74.552,6.612 74.994,7.428 75.249,8.924 C75.504,10.504 75.742,11.473 75.895,11.83 L74.569,11.83 C74.399,11.49 74.178,10.402 73.957,8.991 C73.702,7.428 73.209,6.833 72.087,6.833 L71.577,6.833 L71.577,11.83 L70.268,11.83 L70.268,0.545 L70.269,0.545 L70.269,0.545 Z M71.577,5.833 L72.121,5.833 C73.379,5.833 74.212,4.915 74.212,3.538 C74.212,2.212 73.668,1.396 72.257,1.379 C72.002,1.379 71.747,1.397 71.577,1.447 L71.577,5.833 L71.577,5.833 Z" id="Shape"></path>
                    </g>
                    <g id="Group" transform="translate(504.000000, 108.000000)" fill="#4C5655">
                        <path d="M1.705,0.374 L1.705,11.831 L0.396,11.831 L0.396,0.374 L1.705,0.374 L1.705,0.374 Z" id="Shape"></path>
                        <path d="M3.779,11.831 L3.779,0.374 L5.019,0.374 L7.127,5.746 C7.603,6.97 8.198,8.499 8.589,9.74 L8.622,9.74 C8.52,7.938 8.47,6.46 8.47,4.47 L8.47,0.373 L9.643,0.373 L9.643,11.83 L8.402,11.83 L6.226,6.322 C5.767,5.167 5.275,3.857 4.867,2.429 L4.833,2.429 C4.936,3.959 4.969,5.421 4.969,7.868 L4.969,11.829 L3.779,11.829 L3.779,11.831 L3.779,11.831 Z" id="Shape"></path>
                        <path d="M13.027,1.547 L10.935,1.547 L10.935,0.374 L16.425,0.374 L16.425,1.547 L14.335,1.547 L14.335,11.831 L13.026,11.831 L13.026,1.547 L13.027,1.547 L13.027,1.547 Z" id="Shape"></path>
                        <path d="M21.883,6.392 L19.01,6.392 L19.01,10.693 L22.274,10.693 L22.274,11.832 L17.702,11.832 L17.702,0.375 L22.071,0.375 L22.071,1.514 L19.01,1.514 L19.01,5.288 L21.883,5.288 L21.883,6.392 L21.883,6.392 Z" id="Shape"></path>
                        <path d="M23.719,0.544 C24.281,0.392 24.96,0.323 25.606,0.323 C26.745,0.323 27.595,0.561 28.19,1.138 C28.751,1.716 28.989,2.482 28.989,3.382 C28.989,4.844 28.309,5.796 27.153,6.322 L27.153,6.356 C28.003,6.611 28.446,7.427 28.7,8.923 C28.956,10.503 29.193,11.472 29.346,11.829 L28.02,11.829 C27.85,11.489 27.629,10.401 27.409,8.99 C27.153,7.427 26.661,6.832 25.539,6.832 L25.028,6.832 L25.028,11.829 L23.719,11.829 L23.719,0.544 L23.719,0.544 Z M25.027,5.831 L25.572,5.831 C26.83,5.831 27.662,4.913 27.662,3.536 C27.662,2.21 27.119,1.394 25.708,1.377 C25.453,1.377 25.197,1.395 25.027,1.445 L25.027,5.831 L25.027,5.831 Z" id="Shape"></path>
                        <path d="M30.672,11.831 L30.672,0.374 L31.913,0.374 L34.021,5.746 C34.497,6.97 35.091,8.499 35.482,9.74 L35.516,9.74 C35.413,7.938 35.363,6.46 35.363,4.47 L35.363,0.373 L36.537,0.373 L36.537,11.83 L35.296,11.83 L33.12,6.322 C32.661,5.167 32.168,3.857 31.76,2.429 L31.727,2.429 C31.829,3.959 31.863,5.421 31.863,7.868 L31.863,11.829 L30.672,11.829 L30.672,11.831 L30.672,11.831 Z" id="Shape"></path>
                        <path d="M39.954,8.397 L39.189,11.831 L37.931,11.831 L40.548,0.374 L41.993,0.374 L44.542,11.831 L43.251,11.831 L42.485,8.397 L39.954,8.397 L39.954,8.397 Z M42.316,7.344 L41.721,4.437 C41.551,3.622 41.398,2.669 41.262,1.82 L41.195,1.82 C41.058,2.686 40.888,3.673 40.736,4.437 L40.14,7.344 L42.316,7.344 L42.316,7.344 Z" id="Shape"></path>
                        <path d="M45.973,0.374 L47.282,0.374 L47.282,10.727 L50.511,10.727 L50.511,11.831 L45.973,11.831 L45.973,0.374 L45.973,0.374 Z" id="Shape"></path>
                        <path d="M54.489,0.544 C54.999,0.392 55.593,0.323 56.257,0.323 C57.464,0.323 58.315,0.629 58.944,1.19 C59.827,1.955 60.491,3.433 60.491,5.831 C60.491,8.448 59.845,9.876 59.114,10.658 C58.366,11.508 57.278,11.899 55.952,11.899 C55.425,11.899 54.881,11.865 54.49,11.78 L54.49,0.544 L54.489,0.544 L54.489,0.544 Z M55.798,10.76 C55.985,10.794 56.172,10.794 56.291,10.794 C57.736,10.794 59.13,9.757 59.13,5.864 C59.13,2.974 58.246,1.394 56.41,1.394 C56.206,1.394 55.968,1.411 55.798,1.461 L55.798,10.76 L55.798,10.76 Z" id="Shape"></path>
                        <path d="M68.071,6.018 C68.071,10.319 66.592,11.967 64.757,11.967 C62.854,11.967 61.578,9.945 61.578,6.086 C61.578,2.295 62.937,0.238 64.943,0.238 C66.898,0.238 68.071,2.363 68.071,6.018 L68.071,6.018 L68.071,6.018 Z M62.938,6.103 C62.938,8.466 63.397,10.812 64.842,10.812 C66.321,10.812 66.711,8.313 66.711,6.069 C66.711,3.927 66.32,1.395 64.824,1.395 C63.396,1.395 62.938,3.773 62.938,6.103 L62.938,6.103 L62.938,6.103 Z" id="Shape"></path>
                        <path d="M76.571,6.901 C76.486,5.388 76.401,3.706 76.453,2.414 L76.385,2.414 C76.129,3.688 75.824,5.049 75.467,6.392 L74.056,11.763 L73.223,11.763 L71.88,6.613 C71.506,5.151 71.166,3.741 70.945,2.415 L70.894,2.415 C70.894,3.758 70.826,5.355 70.757,6.987 L70.536,11.832 L69.363,11.832 L70.043,0.375 L71.454,0.375 L72.797,5.61 C73.189,7.123 73.477,8.245 73.715,9.554 L73.766,9.554 C73.988,8.244 74.242,7.157 74.617,5.61 L75.908,0.375 L77.37,0.375 L78.033,11.832 L76.809,11.832 L76.571,6.901 L76.571,6.901 Z" id="Shape"></path>
                        <path d="M81.078,8.397 L80.312,11.831 L79.054,11.831 L81.671,0.374 L83.116,0.374 L85.666,11.831 L84.374,11.831 L83.609,8.397 L81.078,8.397 L81.078,8.397 Z M83.439,7.344 L82.845,4.437 C82.675,3.622 82.522,2.669 82.386,1.82 L82.318,1.82 C82.181,2.686 82.011,3.673 81.859,4.437 L81.263,7.344 L83.439,7.344 L83.439,7.344 Z" id="Shape"></path>
                        <path d="M88.404,0.374 L88.404,11.831 L87.095,11.831 L87.095,0.374 L88.404,0.374 L88.404,0.374 Z" id="Shape"></path>
                        <path d="M90.479,11.831 L90.479,0.374 L91.719,0.374 L93.827,5.746 C94.303,6.97 94.898,8.499 95.289,9.74 L95.322,9.74 C95.22,7.938 95.17,6.46 95.17,4.47 L95.17,0.373 L96.343,0.373 L96.343,11.83 L95.102,11.83 L92.926,6.322 C92.467,5.167 91.975,3.857 91.567,2.429 L91.533,2.429 C91.636,3.959 91.669,5.421 91.669,7.868 L91.669,11.829 L90.479,11.829 L90.479,11.831 L90.479,11.831 Z" id="Shape"></path>
                    </g>
                    <g id="Group" transform="translate(506.000000, 63.000000)" fill="#DC3449">
                        <path d="M0.172,0.544 C0.699,0.408 1.328,0.323 2.076,0.323 C3.129,0.323 4.014,0.578 4.608,1.173 C5.17,1.717 5.458,2.55 5.458,3.536 C5.458,4.59 5.203,5.304 4.762,5.882 C4.133,6.732 3.078,7.156 2.059,7.156 C1.838,7.156 1.668,7.156 1.481,7.139 L1.481,11.83 L0.172,11.83 L0.172,0.544 L0.172,0.544 Z M1.48,6.034 C1.633,6.068 1.769,6.086 1.99,6.086 C3.282,6.086 4.149,5.235 4.149,3.621 C4.149,2.448 3.656,1.394 2.211,1.394 C1.906,1.394 1.65,1.427 1.481,1.479 L1.481,6.034 L1.48,6.034 L1.48,6.034 Z" id="Shape"></path>
                        <path d="M6.955,0.544 C7.516,0.392 8.195,0.323 8.842,0.323 C9.981,0.323 10.83,0.561 11.425,1.138 C11.987,1.716 12.225,2.482 12.225,3.382 C12.225,4.844 11.544,5.796 10.389,6.322 L10.389,6.356 C11.239,6.611 11.68,7.427 11.936,8.923 C12.19,10.503 12.428,11.472 12.582,11.829 L11.256,11.829 C11.086,11.489 10.865,10.401 10.644,8.99 C10.39,7.427 9.896,6.832 8.775,6.832 L8.265,6.832 L8.265,11.829 L6.956,11.829 L6.956,0.544 L6.955,0.544 L6.955,0.544 Z M8.264,5.831 L8.807,5.831 C10.065,5.831 10.899,4.913 10.899,3.536 C10.899,2.21 10.354,1.394 8.944,1.377 C8.689,1.377 8.434,1.395 8.264,1.445 L8.264,5.831 L8.264,5.831 Z" id="Shape"></path>
                        <path d="M19.925,6.018 C19.925,10.319 18.446,11.967 16.611,11.967 C14.708,11.967 13.432,9.945 13.432,6.086 C13.432,2.295 14.791,0.238 16.797,0.238 C18.752,0.238 19.925,2.363 19.925,6.018 L19.925,6.018 L19.925,6.018 Z M14.791,6.103 C14.791,8.466 15.25,10.812 16.695,10.812 C18.174,10.812 18.564,8.313 18.564,6.069 C18.564,3.927 18.173,1.395 16.677,1.395 C15.25,1.395 14.791,3.773 14.791,6.103 L14.791,6.103 L14.791,6.103 Z" id="Shape"></path>
                        <path d="M26.487,11.627 C26.131,11.815 25.569,11.933 24.855,11.933 C22.611,11.933 21.013,10.131 21.013,6.239 C21.013,1.718 23.257,0.273 25.058,0.273 C25.755,0.273 26.248,0.409 26.487,0.562 L26.198,1.666 C25.926,1.547 25.636,1.428 25.043,1.428 C23.818,1.428 22.391,2.618 22.391,6.119 C22.391,9.621 23.683,10.777 25.077,10.777 C25.57,10.777 26.013,10.658 26.284,10.522 L26.487,11.627 L26.487,11.627 Z" id="Shape"></path>
                        <path d="M32.012,6.392 L29.139,6.392 L29.139,10.693 L32.403,10.693 L32.403,11.832 L27.831,11.832 L27.831,0.375 L32.2,0.375 L32.2,1.514 L29.139,1.514 L29.139,5.288 L32.012,5.288 L32.012,6.392 L32.012,6.392 Z" id="Shape"></path>
                        <path d="M33.594,10.318 C33.985,10.573 34.664,10.777 35.242,10.777 C36.431,10.777 37.145,9.995 37.145,8.839 C37.145,7.784 36.533,7.139 35.632,6.459 C34.732,5.83 33.474,4.759 33.474,3.28 C33.474,1.546 34.681,0.271 36.499,0.271 C37.213,0.271 37.842,0.492 38.114,0.696 L37.79,1.818 C37.501,1.614 37.026,1.426 36.431,1.426 C35.31,1.426 34.783,2.277 34.783,3.058 C34.783,4.198 35.378,4.639 36.466,5.421 C37.843,6.39 38.455,7.443 38.455,8.719 C38.455,10.691 37.06,11.931 35.242,11.931 C34.46,11.931 33.627,11.676 33.304,11.439 L33.594,10.318 L33.594,10.318 Z" id="Shape"></path>
                        <path d="M39.73,10.318 C40.121,10.573 40.8,10.777 41.378,10.777 C42.567,10.777 43.281,9.995 43.281,8.839 C43.281,7.784 42.669,7.139 41.768,6.459 C40.868,5.83 39.61,4.759 39.61,3.28 C39.61,1.546 40.817,0.271 42.635,0.271 C43.349,0.271 43.978,0.492 44.25,0.696 L43.926,1.818 C43.637,1.614 43.162,1.426 42.567,1.426 C41.446,1.426 40.919,2.277 40.919,3.058 C40.919,4.198 41.514,4.639 42.602,5.421 C43.979,6.39 44.591,7.443 44.591,8.719 C44.591,10.691 43.196,11.931 41.378,11.931 C40.596,11.931 39.763,11.676 39.44,11.439 L39.73,10.318 L39.73,10.318 Z" id="Shape"></path>
                        <path d="M47.43,0.374 L47.43,11.831 L46.121,11.831 L46.121,0.374 L47.43,0.374 L47.43,0.374 Z" id="Shape"></path>
                        <path d="M49.504,11.831 L49.504,0.374 L50.745,0.374 L52.853,5.746 C53.329,6.97 53.923,8.499 54.314,9.74 L54.348,9.74 C54.245,7.938 54.195,6.46 54.195,4.47 L54.195,0.373 L55.369,0.373 L55.369,11.83 L54.128,11.83 L51.952,6.322 C51.493,5.167 51,3.857 50.592,2.429 L50.559,2.429 C50.661,3.959 50.695,5.421 50.695,7.868 L50.695,11.829 L49.504,11.829 L49.504,11.831 L49.504,11.831 Z" id="Shape"></path>
                        <path d="M63.053,11.542 C62.56,11.746 61.744,11.933 61.013,11.933 C60.01,11.933 59.075,11.662 58.311,10.812 C57.477,9.928 56.916,8.347 56.934,6.256 C56.951,1.802 59.229,0.273 61.25,0.273 C61.965,0.273 62.525,0.409 62.883,0.595 L62.594,1.717 C62.287,1.565 61.879,1.446 61.268,1.446 C59.84,1.446 58.293,2.585 58.293,6.137 C58.293,9.672 59.636,10.812 61.013,10.812 C61.455,10.812 61.709,10.727 61.812,10.675 L61.812,6.936 L60.333,6.936 L60.333,5.848 L63.054,5.848 L63.054,11.542 L63.053,11.542 L63.053,11.542 Z" id="Shape"></path>
                        <path d="M67.49,0.544 C68,0.392 68.594,0.323 69.258,0.323 C70.465,0.323 71.315,0.629 71.944,1.19 C72.828,1.955 73.491,3.433 73.491,5.831 C73.491,8.448 72.845,9.876 72.114,10.658 C71.366,11.508 70.278,11.899 68.952,11.899 C68.425,11.899 67.882,11.865 67.491,11.78 L67.491,0.544 L67.49,0.544 L67.49,0.544 Z M68.799,10.76 C68.986,10.794 69.172,10.794 69.291,10.794 C70.736,10.794 72.131,9.757 72.131,5.864 C72.131,2.974 71.246,1.394 69.41,1.394 C69.207,1.394 68.969,1.411 68.799,1.461 L68.799,10.76 L68.799,10.76 Z" id="Shape"></path>
                        <path d="M81.072,6.018 C81.072,10.319 79.593,11.967 77.758,11.967 C75.854,11.967 74.578,9.945 74.578,6.086 C74.578,2.295 75.938,0.238 77.944,0.238 C79.898,0.238 81.072,2.363 81.072,6.018 L81.072,6.018 L81.072,6.018 Z M75.938,6.103 C75.938,8.466 76.397,10.812 77.841,10.812 C79.32,10.812 79.711,8.313 79.711,6.069 C79.711,3.927 79.32,1.395 77.824,1.395 C76.397,1.395 75.938,3.773 75.938,6.103 L75.938,6.103 L75.938,6.103 Z" id="Shape"></path>
                        <path d="M89.572,6.901 C89.486,5.388 89.402,3.706 89.453,2.414 L89.385,2.414 C89.13,3.688 88.824,5.049 88.467,6.392 L87.057,11.763 L86.223,11.763 L84.881,6.613 C84.506,5.151 84.166,3.741 83.945,2.415 L83.894,2.415 C83.894,3.758 83.826,5.355 83.757,6.987 L83.536,11.832 L82.364,11.832 L83.044,0.375 L84.454,0.375 L85.798,5.61 C86.189,7.123 86.478,8.245 86.716,9.554 L86.767,9.554 C86.988,8.244 87.243,7.157 87.617,5.61 L88.909,0.375 L90.371,0.375 L91.033,11.832 L89.81,11.832 L89.572,6.901 L89.572,6.901 Z" id="Shape"></path>
                        <path d="M94.078,8.397 L93.312,11.831 L92.054,11.831 L94.672,0.374 L96.116,0.374 L98.667,11.831 L97.374,11.831 L96.61,8.397 L94.078,8.397 L94.078,8.397 Z M96.441,7.344 L95.845,4.437 C95.675,3.622 95.523,2.669 95.386,1.82 L95.318,1.82 C95.182,2.686 95.012,3.673 94.859,4.437 L94.265,7.344 L96.441,7.344 L96.441,7.344 Z" id="Shape"></path>
                        <path d="M101.404,0.374 L101.404,11.831 L100.095,11.831 L100.095,0.374 L101.404,0.374 L101.404,0.374 Z" id="Shape"></path>
                        <path d="M103.479,11.831 L103.479,0.374 L104.72,0.374 L106.828,5.746 C107.304,6.97 107.898,8.499 108.289,9.74 L108.323,9.74 C108.22,7.938 108.17,6.46 108.17,4.47 L108.17,0.373 L109.344,0.373 L109.344,11.83 L108.103,11.83 L105.927,6.322 C105.468,5.167 104.975,3.857 104.567,2.429 L104.534,2.429 C104.636,3.959 104.67,5.421 104.67,7.868 L104.67,11.829 L103.479,11.829 L103.479,11.831 L103.479,11.831 Z" id="Shape"></path>
                    </g>
                    <g id="Group" transform="translate(627.000000, 18.000000)" fill="#4C5655">
                        <path d="M4.676,6.392 L1.803,6.392 L1.803,10.693 L5.067,10.693 L5.067,11.832 L0.495,11.832 L0.495,0.375 L4.863,0.375 L4.863,1.514 L1.803,1.514 L1.803,5.288 L4.676,5.288 L4.676,6.392 L4.676,6.392 Z" id="Shape"></path>
                        <path d="M10.539,11.831 L9.503,9.077 C9.265,8.448 9.061,7.853 8.806,7.071 L8.755,7.071 C8.5,7.837 8.279,8.499 8.059,9.111 L7.073,11.831 L5.729,11.831 L8.092,5.983 L5.815,0.374 L7.174,0.374 L8.194,3.026 C8.416,3.552 8.602,4.096 8.875,4.844 L8.909,4.844 C9.163,4.045 9.334,3.535 9.52,2.974 L10.456,0.373 L11.798,0.373 L9.555,5.948 L11.917,11.83 L10.539,11.83 L10.539,11.831 L10.539,11.831 Z" id="Shape"></path>
                        <path d="M17.357,6.392 L14.484,6.392 L14.484,10.693 L17.748,10.693 L17.748,11.832 L13.176,11.832 L13.176,0.375 L17.544,0.375 L17.544,1.514 L14.484,1.514 L14.484,5.288 L17.357,5.288 L17.357,6.392 L17.357,6.392 Z" id="Shape"></path>
                        <path d="M24.19,11.627 C23.834,11.815 23.272,11.933 22.558,11.933 C20.314,11.933 18.716,10.131 18.716,6.239 C18.716,1.718 20.96,0.273 22.761,0.273 C23.458,0.273 23.951,0.409 24.19,0.562 L23.901,1.666 C23.629,1.547 23.339,1.428 22.746,1.428 C21.521,1.428 20.094,2.618 20.094,6.119 C20.094,9.621 21.386,10.777 22.78,10.777 C23.273,10.777 23.716,10.658 23.987,10.522 L24.19,11.627 L24.19,11.627 Z" id="Shape"></path>
                        <path d="M26.826,0.374 L26.826,8.058 C26.826,10.115 27.506,10.812 28.388,10.812 C29.358,10.812 29.97,10.064 29.97,8.058 L29.97,0.374 L31.279,0.374 L31.279,7.853 C31.279,10.828 30.054,11.966 28.355,11.966 C26.638,11.966 25.516,10.844 25.516,8.006 L25.516,0.373 L26.826,0.373 L26.826,0.374 L26.826,0.374 Z" id="Shape"></path>
                        <path d="M34.645,1.547 L32.555,1.547 L32.555,0.374 L38.045,0.374 L38.045,1.547 L35.953,1.547 L35.953,11.831 L34.644,11.831 L34.644,1.547 L34.645,1.547 L34.645,1.547 Z" id="Shape"></path>
                        <path d="M40.629,0.374 L40.629,11.831 L39.32,11.831 L39.32,0.374 L40.629,0.374 L40.629,0.374 Z" id="Shape"></path>
                        <path d="M48.72,6.018 C48.72,10.319 47.241,11.967 45.406,11.967 C43.503,11.967 42.227,9.945 42.227,6.086 C42.227,2.295 43.586,0.238 45.592,0.238 C47.547,0.238 48.72,2.363 48.72,6.018 L48.72,6.018 L48.72,6.018 Z M43.586,6.103 C43.586,8.466 44.045,10.812 45.49,10.812 C46.969,10.812 47.359,8.313 47.359,6.069 C47.359,3.927 46.968,1.395 45.472,1.395 C44.045,1.395 43.586,3.773 43.586,6.103 L43.586,6.103 L43.586,6.103 Z" id="Shape"></path>
                        <path d="M50.285,11.831 L50.285,0.374 L51.525,0.374 L53.632,5.746 C54.109,6.97 54.703,8.499 55.095,9.74 L55.128,9.74 C55.026,7.938 54.976,6.46 54.976,4.47 L54.976,0.373 L56.148,0.373 L56.148,11.83 L54.908,11.83 L52.732,6.322 C52.273,5.167 51.78,3.857 51.373,2.429 L51.338,2.429 C51.441,3.959 51.475,5.421 51.475,7.868 L51.475,11.829 L50.285,11.829 L50.285,11.831 L50.285,11.831 Z" id="Shape"></path>
                        <path d="M65.04,6.392 L62.167,6.392 L62.167,10.693 L65.431,10.693 L65.431,11.832 L60.859,11.832 L60.859,0.375 L65.227,0.375 L65.227,1.514 L62.167,1.514 L62.167,5.288 L65.04,5.288 L65.04,6.392 L65.04,6.392 Z" id="Shape"></path>
                        <path d="M66.876,11.831 L66.876,0.374 L68.117,0.374 L70.224,5.746 C70.701,6.97 71.294,8.499 71.686,9.74 L71.72,9.74 C71.617,7.938 71.567,6.46 71.567,4.47 L71.567,0.373 L72.74,0.373 L72.74,11.83 L71.5,11.83 L69.324,6.322 C68.865,5.167 68.371,3.857 67.964,2.429 L67.93,2.429 C68.032,3.959 68.067,5.421 68.067,7.868 L68.067,11.829 L66.876,11.829 L66.876,11.831 L66.876,11.831 Z" id="Shape"></path>
                        <path d="M76.65,11.831 L74.033,0.374 L75.427,0.374 L76.549,5.746 C76.82,7.037 77.16,8.686 77.364,10.148 L77.416,10.148 C77.586,8.669 77.908,7.071 78.18,5.711 L79.268,0.373 L80.663,0.373 L77.994,11.83 L76.65,11.83 L76.65,11.831 L76.65,11.831 Z" id="Shape"></path>
                        <path d="M83.246,0.374 L83.246,11.831 L81.937,11.831 L81.937,0.374 L83.246,0.374 L83.246,0.374 Z" id="Shape"></path>
                        <path d="M85.32,0.544 C85.881,0.392 86.56,0.323 87.207,0.323 C88.346,0.323 89.195,0.561 89.791,1.138 C90.352,1.716 90.59,2.482 90.59,3.382 C90.59,4.844 89.91,5.796 88.754,6.322 L88.754,6.356 C89.604,6.611 90.046,7.427 90.301,8.923 C90.556,10.503 90.793,11.472 90.947,11.829 L89.621,11.829 C89.451,11.489 89.23,10.401 89.009,8.99 C88.754,7.427 88.261,6.832 87.139,6.832 L86.629,6.832 L86.629,11.829 L85.32,11.829 L85.32,0.544 L85.32,0.544 Z M86.629,5.831 L87.173,5.831 C88.431,5.831 89.264,4.913 89.264,3.536 C89.264,2.21 88.72,1.394 87.309,1.377 C87.055,1.377 86.799,1.395 86.629,1.445 L86.629,5.831 L86.629,5.831 Z" id="Shape"></path>
                        <path d="M98.291,6.018 C98.291,10.319 96.812,11.967 94.977,11.967 C93.073,11.967 91.797,9.945 91.797,6.086 C91.797,2.295 93.157,0.238 95.163,0.238 C97.117,0.238 98.291,2.363 98.291,6.018 L98.291,6.018 L98.291,6.018 Z M93.157,6.103 C93.157,8.466 93.616,10.812 95.06,10.812 C96.539,10.812 96.93,8.313 96.93,6.069 C96.93,3.927 96.539,1.395 95.043,1.395 C93.616,1.395 93.157,3.773 93.157,6.103 L93.157,6.103 L93.157,6.103 Z" id="Shape"></path>
                        <path d="M99.855,11.831 L99.855,0.374 L101.095,0.374 L103.203,5.746 C103.679,6.97 104.274,8.499 104.665,9.74 L104.698,9.74 C104.596,7.938 104.546,6.46 104.546,4.47 L104.546,0.373 L105.719,0.373 L105.719,11.83 L104.478,11.83 L102.302,6.322 C101.843,5.167 101.351,3.857 100.943,2.429 L100.909,2.429 C101.012,3.959 101.045,5.421 101.045,7.868 L101.045,11.829 L99.855,11.829 L99.855,11.831 L99.855,11.831 Z" id="Shape"></path>
                        <path d="M114.695,6.901 C114.61,5.388 114.525,3.706 114.576,2.414 L114.508,2.414 C114.254,3.688 113.947,5.049 113.59,6.392 L112.18,11.763 L111.347,11.763 L110.004,6.613 C109.63,5.151 109.29,3.741 109.068,2.415 L109.017,2.415 C109.017,3.758 108.95,5.355 108.881,6.987 L108.66,11.832 L107.487,11.832 L108.167,0.375 L109.578,0.375 L110.921,5.61 C111.312,7.123 111.601,8.245 111.839,9.554 L111.89,9.554 C112.111,8.244 112.367,7.157 112.74,5.61 L114.033,0.375 L115.494,0.375 L116.157,11.832 L114.933,11.832 L114.695,6.901 L114.695,6.901 Z" id="Shape"></path>
                        <path d="M122.125,6.392 L119.252,6.392 L119.252,10.693 L122.516,10.693 L122.516,11.832 L117.944,11.832 L117.944,0.375 L122.313,0.375 L122.313,1.514 L119.252,1.514 L119.252,5.288 L122.125,5.288 L122.125,6.392 L122.125,6.392 Z" id="Shape"></path>
                        <path d="M123.961,11.831 L123.961,0.374 L125.201,0.374 L127.309,5.746 C127.785,6.97 128.38,8.499 128.771,9.74 L128.804,9.74 C128.702,7.938 128.652,6.46 128.652,4.47 L128.652,0.373 L129.825,0.373 L129.825,11.83 L128.584,11.83 L126.408,6.322 C125.949,5.167 125.457,3.857 125.049,2.429 L125.015,2.429 C125.118,3.959 125.151,5.421 125.151,7.868 L125.151,11.829 L123.961,11.829 L123.961,11.831 L123.961,11.831 Z" id="Shape"></path>
                        <path d="M133.209,1.547 L131.117,1.547 L131.117,0.374 L136.607,0.374 L136.607,1.547 L134.517,1.547 L134.517,11.831 L133.208,11.831 L133.208,1.547 L133.209,1.547 L133.209,1.547 Z" id="Shape"></path>
                    </g>
                    <g id="Group" transform="translate(514.000000, 224.000000)" fill="#FFFFFF">
                        <path d="M-0.244,0.507 C0.282,0.371 0.911,0.286 1.659,0.286 C2.713,0.286 3.597,0.541 4.191,1.136 C4.753,1.68 5.041,2.513 5.041,3.499 C5.041,4.553 4.787,5.267 4.345,5.845 C3.716,6.695 2.662,7.119 1.643,7.119 C1.421,7.119 1.251,7.119 1.065,7.102 L1.065,11.793 L-0.244,11.793 L-0.244,0.507 L-0.244,0.507 Z M1.064,5.998 C1.216,6.032 1.353,6.05 1.574,6.05 C2.865,6.05 3.732,5.199 3.732,3.585 C3.732,2.412 3.24,1.358 1.794,1.358 C1.488,1.358 1.233,1.391 1.064,1.443 L1.064,5.998 L1.064,5.998 Z" id="Shape"></path>
                        <path d="M7.847,0.337 L7.847,11.794 L6.538,11.794 L6.538,0.337 L7.847,0.337 L7.847,0.337 Z" id="Shape"></path>
                        <path d="M9.921,0.507 C10.447,0.371 11.076,0.286 11.824,0.286 C12.879,0.286 13.762,0.541 14.357,1.136 C14.918,1.68 15.207,2.513 15.207,3.499 C15.207,4.553 14.952,5.267 14.51,5.845 C13.881,6.695 12.828,7.119 11.808,7.119 C11.586,7.119 11.416,7.119 11.23,7.102 L11.23,11.793 L9.921,11.793 L9.921,0.507 L9.921,0.507 Z M11.229,5.998 C11.382,6.032 11.518,6.05 11.74,6.05 C13.031,6.05 13.898,5.199 13.898,3.585 C13.898,2.412 13.405,1.358 11.96,1.358 C11.653,1.358 11.398,1.391 11.229,1.443 L11.229,5.998 L11.229,5.998 Z" id="Shape"></path>
                        <path d="M20.885,6.355 L18.012,6.355 L18.012,10.656 L21.276,10.656 L21.276,11.795 L16.704,11.795 L16.704,0.338 L21.073,0.338 L21.073,1.477 L18.012,1.477 L18.012,5.251 L20.885,5.251 L20.885,6.355 L20.885,6.355 Z" id="Shape"></path>
                        <path d="M22.721,0.337 L24.03,0.337 L24.03,10.69 L27.26,10.69 L27.26,11.794 L22.721,11.794 L22.721,0.337 L22.721,0.337 Z" id="Shape"></path>
                        <path d="M29.877,0.337 L29.877,11.794 L28.568,11.794 L28.568,0.337 L29.877,0.337 L29.877,0.337 Z" id="Shape"></path>
                        <path d="M31.951,11.794 L31.951,0.337 L33.192,0.337 L35.3,5.709 C35.776,6.933 36.37,8.462 36.761,9.703 L36.795,9.703 C36.692,7.901 36.642,6.423 36.642,4.433 L36.642,0.336 L37.816,0.336 L37.816,11.793 L36.575,11.793 L34.399,6.285 C33.94,5.13 33.447,3.82 33.039,2.392 L33.006,2.392 C33.108,3.922 33.142,5.384 33.142,7.831 L33.142,11.792 L31.951,11.792 L31.951,11.794 L31.951,11.794 Z" id="Shape"></path>
                        <path d="M44.038,6.355 L41.165,6.355 L41.165,10.656 L44.429,10.656 L44.429,11.795 L39.857,11.795 L39.857,0.338 L44.225,0.338 L44.225,1.477 L41.165,1.477 L41.165,5.251 L44.038,5.251 L44.038,6.355 L44.038,6.355 Z" id="Shape"></path>
                        <path d="M45.619,10.282 C46.01,10.537 46.689,10.741 47.267,10.741 C48.456,10.741 49.171,9.959 49.171,8.803 C49.171,7.748 48.559,7.103 47.657,6.423 C46.757,5.794 45.499,4.723 45.499,3.244 C45.499,1.51 46.706,0.235 48.524,0.235 C49.239,0.235 49.868,0.456 50.139,0.66 L49.816,1.782 C49.527,1.578 49.051,1.39 48.456,1.39 C47.335,1.39 46.808,2.241 46.808,3.022 C46.808,4.162 47.404,4.603 48.492,5.385 C49.869,6.354 50.48,7.407 50.48,8.683 C50.48,10.655 49.085,11.895 47.267,11.895 C46.486,11.895 45.652,11.64 45.329,11.403 L45.619,10.282 L45.619,10.282 Z" id="Shape"></path>
                        <path d="M9.589,28.794 C9.368,28.488 9.198,28.267 8.807,27.723 C8.196,28.505 7.26,28.93 6.342,28.93 C4.422,28.93 3.487,27.349 3.487,25.751 C3.487,24.511 4.032,23.389 5.238,22.487 L5.238,22.436 C4.745,21.654 4.405,20.821 4.405,19.87 C4.405,18.475 5.272,17.201 6.751,17.201 C7.788,17.201 8.757,17.983 8.757,19.563 C8.757,20.685 8.247,21.603 6.802,22.64 L6.802,22.691 C7.228,23.405 8.095,24.748 8.978,25.938 C9.488,24.884 9.642,23.422 9.675,22.657 L10.831,22.657 C10.712,24 10.354,25.649 9.59,26.804 C9.794,27.127 10.236,27.705 11.052,28.793 L9.589,28.793 L9.589,28.794 L9.589,28.794 Z M8.246,26.891 C7.26,25.565 6.461,24.358 5.764,23.287 C5.254,23.78 4.744,24.579 4.744,25.616 C4.744,26.789 5.356,27.893 6.547,27.893 C7.243,27.893 7.821,27.52 8.246,26.891 L8.246,26.891 L8.246,26.891 Z M5.611,19.786 C5.611,20.585 5.815,21.18 6.257,21.877 C7.14,21.214 7.616,20.5 7.616,19.616 C7.616,18.919 7.361,18.171 6.63,18.171 C5.951,18.17 5.611,18.884 5.611,19.786 L5.611,19.786 L5.611,19.786 Z" id="Shape"></path>
                        <path d="M15.029,17.507 C15.591,17.355 16.27,17.286 16.916,17.286 C18.055,17.286 18.905,17.524 19.5,18.101 C20.061,18.679 20.299,19.445 20.299,20.345 C20.299,21.807 19.619,22.759 18.463,23.285 L18.463,23.319 C19.314,23.574 19.756,24.39 20.01,25.886 C20.266,27.466 20.503,28.435 20.656,28.792 L19.33,28.792 C19.16,28.452 18.939,27.364 18.719,25.953 C18.463,24.39 17.971,23.795 16.849,23.795 L16.338,23.795 L16.338,28.792 L15.029,28.792 L15.029,17.507 L15.029,17.507 Z M16.338,22.794 L16.883,22.794 C18.141,22.794 18.973,21.876 18.973,20.499 C18.973,19.173 18.43,18.357 17.019,18.34 C16.764,18.34 16.508,18.358 16.338,18.408 L16.338,22.794 L16.338,22.794 Z" id="Shape"></path>
                        <path d="M23.274,17.337 L23.274,25.021 C23.274,27.078 23.955,27.775 24.837,27.775 C25.807,27.775 26.419,27.027 26.419,25.021 L26.419,17.337 L27.728,17.337 L27.728,24.816 C27.728,27.791 26.503,28.929 24.804,28.929 C23.087,28.929 21.965,27.807 21.965,24.969 L21.965,17.336 L23.274,17.336 L23.274,17.337 L23.274,17.337 Z" id="Shape"></path>
                        <path d="M29.752,17.337 L31.061,17.337 L31.061,27.69 L34.29,27.69 L34.29,28.794 L29.752,28.794 L29.752,17.337 L29.752,17.337 Z" id="Shape"></path>
                        <path d="M39.781,23.355 L36.908,23.355 L36.908,27.656 L40.172,27.656 L40.172,28.795 L35.6,28.795 L35.6,17.338 L39.968,17.338 L39.968,18.477 L36.908,18.477 L36.908,22.251 L39.781,22.251 L39.781,23.355 L39.781,23.355 Z" id="Shape"></path>
                        <path d="M41.361,27.282 C41.752,27.537 42.432,27.741 43.009,27.741 C44.199,27.741 44.913,26.959 44.913,25.803 C44.913,24.748 44.302,24.103 43.4,23.423 C42.499,22.794 41.241,21.723 41.241,20.244 C41.241,18.51 42.448,17.235 44.267,17.235 C44.981,17.235 45.61,17.456 45.881,17.66 L45.559,18.782 C45.27,18.578 44.793,18.39 44.199,18.39 C43.077,18.39 42.55,19.241 42.55,20.022 C42.55,21.162 43.146,21.603 44.234,22.385 C45.611,23.354 46.222,24.407 46.222,25.683 C46.222,27.655 44.828,28.895 43.009,28.895 C42.228,28.895 41.395,28.64 41.071,28.403 L41.361,27.282 L41.361,27.282 Z" id="Shape"></path>
                    </g>
                    <g id="Group" transform="translate(224.000000, 254.000000)" fill="#4C5655">
                        <path d="M-0.288,0.973 C-0.288,0.395 0.103,-0.013 0.579,-0.013 C1.106,-0.013 1.446,0.378 1.446,0.973 C1.446,1.568 1.123,1.958 0.579,1.958 C0.086,1.958 -0.288,1.568 -0.288,0.973 L-0.288,0.973 L-0.288,0.973 Z" id="Shape"></path>
                        <path d="M3.01,0.973 C3.01,0.395 3.401,-0.013 3.877,-0.013 C4.404,-0.013 4.744,0.378 4.744,0.973 C4.744,1.568 4.421,1.958 3.877,1.958 C3.384,1.958 3.01,1.568 3.01,0.973 L3.01,0.973 L3.01,0.973 Z" id="Shape"></path>
                        <path d="M6.308,0.973 C6.308,0.395 6.699,-0.013 7.175,-0.013 C7.702,-0.013 8.042,0.378 8.042,0.973 C8.042,1.568 7.719,1.958 7.175,1.958 C6.682,1.958 6.308,1.568 6.308,0.973 L6.308,0.973 L6.308,0.973 Z" id="Shape"></path>
                    </g>
                    <g id="Group" transform="translate(228.000000, 595.000000)">
                        <path d="M-0.173,0.215 L-0.173,27.215 C-0.173,28.865 1.177,30.215 2.827,30.215 L88.338,30.215" id="Shape" stroke="#4C5655"></path>
                        <path d="M87.316,33.686 L93.361,30.195 L87.316,26.705 L87.316,33.686 L87.316,33.686 Z" id="Shape" fill="#4C5655"></path>
                    </g>
                    <g id="Group" transform="translate(388.000000, 539.000000)">
                        <path d="M3.606,5.40058824 L3.606,30.9991176 C3.606,33.1020588 4.956,34.8226471 6.606,34.8226471 L147.863,34.8226471 C149.513,34.8226471 150.863,36.5432353 150.863,38.6461765 L150.863,64.2434314" id="Shape" stroke="#4C5655"></path>
                        <path d="M0.135,5.99872549 L3.625,-0.0012745098 L7.116,5.99872549 L0.135,5.99872549 L0.135,5.99872549 Z" id="Shape" fill="#4C5655"></path>
                    </g>
                    <g id="Group" transform="translate(586.000000, 440.000000)">
                        <path d="M5.387,53.334 L104.866,53.334 C106.516,53.334 107.866,51.984 107.866,50.334 L107.866,5.084" id="Shape" stroke="#4C5655"></path>
                        <path d="M6.408,56.805 L0.363,53.314 L6.408,49.824 L6.408,56.805 L6.408,56.805 Z" id="Shape" fill="#4C5655"></path>
                        <path d="M111.337,6.105 L107.847,0.061 L104.356,6.105 L111.337,6.105 L111.337,6.105 Z" id="Shape" fill="#4C5655"></path>
                    </g>
                    <g id="Group" transform="translate(388.000000, 236.000000)">
                        <path d="M98.339,3.305 L6.605,3.305 C4.955,3.305 3.605,4.655 3.605,6.305 L3.605,30.421" id="Shape" stroke="#4C5655"></path>
                        <path d="M97.317,-0.166 L103.362,3.324 L97.317,6.814 L97.317,-0.166 L97.317,-0.166 Z" id="Shape" fill="#4C5655"></path>
                        <path d="M0.134,29.399 L3.624,35.444 L7.115,29.399 L0.134,29.399 L0.134,29.399 Z" id="Shape" fill="#4C5655"></path>
                    </g>
                    <g id="Group" transform="translate(142.000000, 225.000000)">
                        <path d="M32.269,25.193 L17.792,25.193 C16.142,25.193 14.792,23.843 14.792,22.193 L14.792,6.013 C14.792,4.363 13.442,3.013 11.792,3.013 L4.815,3.013" id="Shape" stroke="#4C5655"></path>
                        <path d="M31.247,21.723 L37.292,25.212 L31.247,28.703 L31.247,21.723 L31.247,21.723 Z" id="Shape" fill="#4C5655"></path>
                        <path d="M5.837,-0.458 L-0.208,3.032 L5.837,6.523 L5.837,-0.458 L5.837,-0.458 Z" id="Shape" fill="#4C5655"></path>
                    </g>
                    <g id="Group" transform="translate(142.000000, 172.000000)">
                        <path d="M32.269,3.833 L17.792,3.833 C16.142,3.833 14.792,5.183 14.792,6.833 L14.792,23.013 C14.792,24.663 13.442,26.013 11.792,26.013 L4.815,26.013" id="Shape" stroke="#4C5655"></path>
                        <path d="M31.247,0.362 L37.292,3.852 L31.247,7.343 L31.247,0.362 L31.247,0.362 Z" id="Shape" fill="#4C5655"></path>
                        <path d="M5.837,22.542 L-0.208,26.032 L5.837,29.523 L5.837,22.542 L5.837,22.542 Z" id="Shape" fill="#4C5655"></path>
                    </g>
                    <g id="Group" transform="translate(423.000000, 539.000000)">
                        <path d="M3.728,5.022 L3.728,11.999 C3.728,13.649 5.078,14.999 6.728,14.999 L218.34,14.999" id="Shape" stroke="#4C5655"></path>
                        <path d="M0.257,6.044 L3.747,-0.001 L7.237,6.044 L0.257,6.044 L0.257,6.044 Z" id="Shape" fill="#4C5655"></path>
                        <path d="M217.318,18.47 L223.363,14.979 L217.318,11.489 L217.318,18.47 L217.318,18.47 Z" id="Shape" fill="#4C5655"></path>
                    </g>
                </g>
            </g>
        </g>
    </g>
</svg>