<?xml version="1.0" encoding="UTF-8" standalone="no"?>
<svg width="882px" height="42px" viewBox="0 0 882 42" version="1.1" xmlns="http://www.w3.org/2000/svg" xmlns:xlink="http://www.w3.org/1999/xlink" xmlns:sketch="http://www.bohemiancoding.com/sketch/ns">
    <!-- Generator: Sketch 3.1 (8751) - http://www.bohemiancoding.com/sketch -->
    <title>Slice 2</title>
    <desc>Created with Sketch.</desc>
    <defs></defs>
    <g id="Page-1" stroke="none" stroke-width="1" fill="none" fill-rule="evenodd" sketch:type="MSPage">
        <g id="apparch" sketch:type="MSLayerGroup" transform="translate(504.000000, 7.000000)" fill="#FFFFFF">
            <path d="M30.785,0.493 L1.339,0.493 C0.787,0.493 0.342,0.94 0.342,1.49 L0.342,27.442 C0.342,27.995 0.787,28.44 1.339,28.44 L30.785,28.44 C31.336,28.44 31.782,27.995 31.782,27.442 L31.782,1.49 C31.782,0.94 31.336,0.493 30.785,0.493 L30.785,0.493 L30.785,0.493 Z M24.549,2.655 C25.283,2.655 25.878,3.25 25.878,3.986 C25.878,4.722 25.283,5.317 24.549,5.317 C23.813,5.317 23.216,4.722 23.216,3.986 C23.216,3.25 23.812,2.655 24.549,2.655 L24.549,2.655 L24.549,2.655 Z M20.638,2.655 C21.373,2.655 21.97,3.25 21.97,3.986 C21.97,4.722 21.373,5.317 20.638,5.317 C19.903,5.317 19.309,4.722 19.309,3.986 C19.309,3.25 19.902,2.655 20.638,2.655 L20.638,2.655 L20.638,2.655 Z M29.786,26.444 L2.337,26.444 L2.337,7.482 L29.786,7.482 L29.786,26.444 L29.786,26.444 Z M28.457,5.316 C27.72,5.316 27.124,4.721 27.124,3.985 C27.124,3.25 27.72,2.654 28.457,2.654 C29.191,2.654 29.786,3.249 29.786,3.985 C29.786,4.722 29.191,5.316 28.457,5.316 L28.457,5.316 L28.457,5.316 Z" id="Shape" sketch:type="MSShapeGroup"></path>
            <rect id="Rectangle-path" sketch:type="MSShapeGroup" x="5" y="10" width="22.626" height="4.215"></rect>
            <rect id="Rectangle-path" sketch:type="MSShapeGroup" x="5" y="16" width="7.155" height="7.599"></rect>
            <rect id="Rectangle-path" sketch:type="MSShapeGroup" x="13" y="16" width="7.652" height="0.999"></rect>
            <rect id="Rectangle-path" sketch:type="MSShapeGroup" x="13" y="19" width="7.652" height="0.997"></rect>
            <rect id="Rectangle-path" sketch:type="MSShapeGroup" x="13" y="22" width="7.652" height="0.998"></rect>
            <g id="Group" transform="translate(24.000000, 6.000000)" sketch:type="MSShapeGroup">
                <path d="M0.965,14.71 L0.896,14.932 L0.117,17.646 L2.82,16.864 L3.053,16.796 L0.965,14.71 L0.965,14.71 Z" id="Shape"></path>
                <path d="M16.009,5.896 L17.064,4.839 C17.435,4.468 17.435,3.866 17.064,3.496 L14.263,0.696 C13.893,0.325 13.292,0.325 12.921,0.696 L11.865,1.751 L16.009,5.896 L16.009,5.896 Z" id="Shape"></path>
                <path d="M11.418,2.232 C11.384,2.257 11.343,2.27 11.312,2.303 L2.756,10.862 C2.364,11.251 2.364,11.883 2.756,12.274 L2.843,12.36 C3.114,12.631 3.499,12.701 3.842,12.594 C3.737,12.938 3.805,13.323 4.079,13.594 L4.166,13.683 C4.437,13.954 4.821,14.026 5.166,13.916 C5.06,14.261 5.128,14.647 5.4,14.918 L5.49,15.006 C5.879,15.397 6.51,15.397 6.901,15.004 L15.459,6.449 C15.49,6.418 15.501,6.377 15.53,6.342 L11.418,2.232 L11.418,2.232 Z" id="Shape"></path>
            </g>
        </g>
        <g id="services" sketch:type="MSLayerGroup" transform="translate(445.000000, 6.000000)" fill="#FFFFFF">
            <path d="M21.012,26.659 L2.33,26.659 L2.33,7.52 L30.035,7.52 L30.035,20.234 L32.05,21.488 L32.05,1.473 C32.05,0.917 31.599,0.466 31.043,0.466 L1.324,0.466 C0.766,0.466 0.317,0.917 0.317,1.473 L0.317,27.666 C0.317,28.225 0.766,28.674 1.324,28.674 L24.032,28.674 L21.012,26.659 L21.012,26.659 Z M28.693,2.648 C29.434,2.648 30.035,3.249 30.035,3.992 C30.035,4.734 29.434,5.335 28.693,5.335 C27.949,5.335 27.348,4.734 27.348,3.992 C27.349,3.249 27.949,2.648 28.693,2.648 L28.693,2.648 L28.693,2.648 Z M24.748,2.648 C25.489,2.648 26.09,3.249 26.09,3.992 C26.09,4.734 25.489,5.335 24.748,5.335 C24.006,5.335 23.403,4.734 23.403,3.992 C23.403,3.249 24.006,2.648 24.748,2.648 L24.748,2.648 L24.748,2.648 Z M20.801,2.648 C21.544,2.648 22.146,3.249 22.146,3.992 C22.146,4.734 21.544,5.335 20.801,5.335 C20.059,5.335 19.46,4.734 19.46,3.992 C19.46,3.249 20.059,2.648 20.801,2.648 L20.801,2.648 L20.801,2.648 Z" id="Shape" sketch:type="MSShapeGroup"></path>
            <path d="M34.359,25.812 C34.331,25.315 33.93,24.745 33.593,24.538 C29.754,22.147 25.915,19.755 22.073,17.367 C22.111,15.346 21.14,13.352 19.317,12.178 C17.217,10.825 14.595,10.941 12.652,12.263 L16.612,14.813 C16.949,15.03 17.046,15.478 16.829,15.814 L15.065,18.553 C14.849,18.888 14.399,18.985 14.064,18.767 L10.104,16.216 C9.705,18.53 10.685,20.965 12.783,22.318 C14.605,23.494 16.821,23.555 18.646,22.685 C22.408,25.196 26.172,27.706 29.934,30.214 C30.264,30.435 30.948,30.563 31.411,30.384 C33.231,29.684 34.473,27.756 34.359,25.812 L34.359,25.812 L34.359,25.812 Z" id="Shape" sketch:type="MSShapeGroup"></path>
        </g>
        <g id="app" sketch:type="MSLayerGroup" transform="translate(384.000000, 6.000000)" fill="#FFFFFF">
            <path d="M15.434,0.467 C7.15,0.467 0.434,7.181 0.434,15.466 C0.434,23.751 7.15,30.466 15.434,30.466 C23.719,30.466 30.434,23.751 30.434,15.466 C30.434,7.182 23.719,0.467 15.434,0.467 L15.434,0.467 L15.434,0.467 Z M15.434,27.252 C8.925,27.252 3.649,21.975 3.649,15.466 C3.649,8.956 8.925,3.681 15.434,3.681 C21.944,3.681 27.219,8.956 27.219,15.466 C27.219,21.975 21.943,27.252 15.434,27.252 L15.434,27.252 L15.434,27.252 Z" id="Shape" sketch:type="MSShapeGroup"></path>
            <path d="M4.719,16.575 L9.815,16.575 L9.815,17.562 L4.719,17.562 L4.719,16.575 L4.719,16.575 Z M4.719,13.37 L4.719,14.356 L9.815,14.356 L9.815,13.37 L4.719,13.37 L4.719,13.37 Z M4.719,15.96 L9.815,15.96 L9.815,14.974 L4.719,14.974 L4.719,15.96 L4.719,15.96 Z M10.164,13.37 L10.164,14.356 L14.271,14.356 L14.271,16.575 L11.15,16.575 L11.15,15.96 L13.671,15.96 L13.671,14.974 L10.163,14.974 L10.163,17.563 L15.257,17.563 L15.257,13.371 L10.164,13.371 L10.164,13.37 L10.164,13.37 Z M20.703,13.37 L15.608,13.37 L15.608,17.562 L16.594,17.562 L16.594,14.356 L17.661,14.356 L17.661,17.562 L18.648,17.562 L18.648,14.356 L19.715,14.356 L19.715,17.562 L20.701,17.562 L20.701,13.37 L20.703,13.37 L20.703,13.37 Z M25.161,13.37 L25.161,14.974 L22.039,14.974 L22.039,13.37 L21.053,13.37 L21.053,15.96 L23.108,15.96 L23.108,17.563 L24.094,17.563 L24.094,15.96 L26.149,15.96 L26.149,13.37 L25.161,13.37 L25.161,13.37 Z" id="Shape" sketch:type="MSShapeGroup"></path>
        </g>
        <g id="platform" sketch:type="MSLayerGroup" transform="translate(321.000000, 6.000000)" fill="#FFFFFF">
            <path d="M14.935,0.467 C6.649,0.467 -0.066,7.181 -0.066,15.466 C-0.066,23.751 6.649,30.466 14.935,30.466 C23.219,30.466 29.934,23.751 29.934,15.466 C29.934,7.182 23.219,0.467 14.935,0.467 L14.935,0.467 L14.935,0.467 Z M14.935,27.252 C8.425,27.252 3.149,21.976 3.149,15.466 C3.149,8.956 8.425,3.681 14.935,3.681 C21.444,3.681 26.72,8.956 26.72,15.466 C26.72,21.976 21.443,27.252 14.935,27.252 L14.935,27.252 L14.935,27.252 Z" id="Shape" sketch:type="MSShapeGroup"></path>
            <g id="Group" transform="translate(8.000000, 7.000000)" sketch:type="MSShapeGroup">
                <path d="M6.934,12.711 C5.84,12.711 4.95,11.821 4.95,10.727 C4.95,9.633 5.841,8.742 6.934,8.742 C8.029,8.742 8.919,9.633 8.919,10.727 C8.919,11.821 8.028,12.711 6.934,12.711 L6.934,12.711 L6.934,12.711 Z M6.934,9.497 C6.256,9.497 5.705,10.049 5.705,10.726 C5.705,11.403 6.256,11.954 6.934,11.954 C7.612,11.954 8.163,11.403 8.163,10.726 C8.163,10.049 7.611,9.497 6.934,9.497 L6.934,9.497 L6.934,9.497 Z" id="Shape"></path>
                <path d="M1.713,8.19 C0.617,8.19 -0.272,7.3 -0.272,6.206 C-0.272,5.112 0.618,4.221 1.713,4.221 C2.807,4.221 3.697,5.113 3.697,6.206 C3.697,7.301 2.807,8.19 1.713,8.19 L1.713,8.19 L1.713,8.19 Z M1.713,4.977 C1.035,4.977 0.483,5.529 0.483,6.206 C0.483,6.883 1.036,7.435 1.713,7.435 C2.39,7.435 2.942,6.883 2.942,6.206 C2.942,5.529 2.39,4.977 1.713,4.977 L1.713,4.977 L1.713,4.977 Z" id="Shape"></path>
                <path d="M1.713,17.231 C0.617,17.231 -0.272,16.34 -0.272,15.246 C-0.272,14.152 0.618,13.261 1.713,13.261 C2.807,13.261 3.697,14.153 3.697,15.246 C3.697,16.341 2.807,17.231 1.713,17.231 L1.713,17.231 L1.713,17.231 Z M1.713,14.017 C1.035,14.017 0.483,14.57 0.483,15.246 C0.483,15.924 1.036,16.475 1.713,16.475 C2.39,16.475 2.942,15.923 2.942,15.246 C2.941,14.569 2.39,14.017 1.713,14.017 L1.713,14.017 L1.713,14.017 Z" id="Shape"></path>
                <path d="M12.156,8.19 C11.06,8.19 10.17,7.3 10.17,6.206 C10.17,5.112 11.061,4.221 12.156,4.221 C13.25,4.221 14.14,5.113 14.14,6.206 C14.141,7.301 13.25,8.19 12.156,8.19 L12.156,8.19 L12.156,8.19 Z M12.156,4.977 C11.478,4.977 10.926,5.529 10.926,6.206 C10.926,6.883 11.479,7.435 12.156,7.435 C12.833,7.435 13.385,6.883 13.385,6.206 C13.385,5.529 12.834,4.977 12.156,4.977 L12.156,4.977 L12.156,4.977 Z" id="Shape"></path>
                <path d="M12.156,3.671 C11.06,3.671 10.17,2.78 10.17,1.686 C10.17,0.592 11.061,-0.299 12.156,-0.299 C13.25,-0.299 14.14,0.593 14.14,1.686 C14.141,2.78 13.25,3.671 12.156,3.671 L12.156,3.671 L12.156,3.671 Z M12.156,0.456 C11.478,0.456 10.926,1.007 10.926,1.685 C10.926,2.363 11.479,2.914 12.156,2.914 C12.833,2.914 13.385,2.362 13.385,1.685 C13.385,1.007 12.834,0.456 12.156,0.456 L12.156,0.456 L12.156,0.456 Z" id="Shape"></path>
                <rect id="Rectangle-path" x="1" y="0" width="0.756" height="3.214"></rect>
                <rect id="Rectangle-path" x="1" y="9" width="0.756" height="3.214"></rect>
                <rect id="Rectangle-path" x="12" y="9" width="0.756" height="3.214"></rect>
                <rect id="Rectangle-path" x="7" y="14" width="0.755" height="3.215"></rect>
                <rect id="Rectangle-path" x="12" y="14" width="0.756" height="3.215"></rect>
                <rect id="Rectangle-path" x="7" y="5" width="0.755" height="3.214"></rect>
                <rect id="Rectangle-path" x="7" y="0" width="0.755" height="3.214"></rect>
            </g>
        </g>
        <g id="capability" sketch:type="MSLayerGroup" transform="translate(258.000000, 9.000000)" fill="#FFFFFF">
            <path d="M14.801,15.657 L16.152,14.772 L16.017,14.436 L15.452,13.028 L15.317,12.691 L13.731,12.987 C13.256,12.282 12.664,11.687 11.992,11.214 L12.322,9.631 L11.989,9.488 L10.593,8.892 L10.259,8.749 L9.344,10.082 C8.538,9.925 7.698,9.907 6.86,10.053 L5.977,8.701 L5.64,8.836 L4.232,9.402 L3.896,9.537 L4.191,11.124 C3.486,11.598 2.891,12.191 2.418,12.863 L0.835,12.533 L0.692,12.866 L0.096,14.262 L-0.046,14.596 L1.287,15.51 C1.129,16.317 1.112,17.157 1.257,17.993 L-0.094,18.878 L0.042,19.215 L0.606,20.622 L0.741,20.959 L2.327,20.663 C2.802,21.369 3.396,21.964 4.068,22.437 L3.736,24.021 L4.069,24.164 L5.465,24.76 L5.799,24.903 L6.714,23.568 C7.521,23.726 8.36,23.744 9.198,23.598 L10.081,24.95 L10.418,24.816 L11.826,24.25 L12.162,24.115 L11.866,22.528 C12.572,22.053 13.167,21.46 13.641,20.788 L15.226,21.119 L15.368,20.786 L15.964,19.391 L16.106,19.055 L14.773,18.141 C14.929,17.334 14.946,16.494 14.801,15.657 L14.801,15.657 L14.801,15.657 Z M8.933,19.079 C7.689,19.579 6.275,18.975 5.775,17.73 C5.274,16.485 5.879,15.071 7.124,14.572 C8.368,14.072 9.783,14.676 10.282,15.921 C10.781,17.166 10.176,18.58 8.933,19.079 L8.933,19.079 L8.933,19.079 Z" id="Shape" sketch:type="MSShapeGroup"></path>
            <path d="M22.96,6.19 L24.089,5.827 L24.059,5.562 L23.932,4.455 L23.902,4.19 L22.721,4.091 C22.522,3.498 22.217,2.962 21.833,2.496 L22.375,1.439 L22.167,1.273 L21.294,0.58 L21.085,0.414 L20.178,1.182 C19.636,0.912 19.046,0.737 18.424,0.677 L18.061,-0.451 L17.796,-0.422 L16.688,-0.294 L16.423,-0.265 L16.324,0.917 C15.732,1.117 15.195,1.421 14.73,1.805 L13.671,1.263 L13.505,1.471 L12.812,2.344 L12.645,2.554 L13.413,3.461 C13.143,4.001 12.967,4.592 12.909,5.213 L11.78,5.577 L11.811,5.843 L11.937,6.948 L11.968,7.215 L13.149,7.314 C13.348,7.906 13.653,8.442 14.036,8.909 L13.494,9.967 L13.702,10.132 L14.575,10.826 L14.785,10.992 L15.692,10.224 C16.232,10.492 16.824,10.667 17.446,10.727 L17.809,11.857 L18.074,11.827 L19.181,11.7 L19.445,11.67 L19.545,10.488 C20.137,10.29 20.674,9.985 21.14,9.6 L22.199,10.143 L22.365,9.934 L23.058,9.061 L23.224,8.852 L22.457,7.945 C22.724,7.403 22.9,6.812 22.96,6.19 L22.96,6.19 L22.96,6.19 Z M18.189,7.933 C16.959,8.074 15.846,7.189 15.706,5.957 C15.563,4.726 16.449,3.613 17.679,3.472 C18.911,3.331 20.024,4.216 20.165,5.448 C20.305,6.679 19.42,7.791 18.189,7.933 L18.189,7.933 L18.189,7.933 Z" id="Shape" sketch:type="MSShapeGroup"></path>
            <path d="M28.737,19.114 C28.805,18.415 28.739,17.724 28.559,17.07 L29.6,16.235 L29.462,15.969 L28.885,14.857 L28.747,14.591 L27.464,14.96 C27.032,14.436 26.506,13.984 25.896,13.638 L26.042,12.314 L25.756,12.223 L24.562,11.844 L24.276,11.755 L23.633,12.92 C22.934,12.854 22.244,12.92 21.588,13.1 L20.753,12.059 L20.488,12.198 L19.377,12.774 L19.11,12.912 L19.481,14.194 C18.956,14.626 18.505,15.153 18.159,15.761 L16.834,15.615 L16.744,15.901 L16.365,17.095 L16.274,17.38 L17.441,18.025 C17.373,18.722 17.44,19.413 17.619,20.068 L16.577,20.904 L16.715,21.17 L17.292,22.281 L17.43,22.547 L18.713,22.177 C19.145,22.701 19.671,23.153 20.281,23.499 L20.135,24.823 L20.421,24.914 L21.615,25.293 L21.901,25.383 L22.545,24.217 C23.243,24.284 23.934,24.218 24.589,24.037 L25.426,25.08 L25.691,24.942 L26.803,24.366 L27.069,24.227 L26.698,22.944 C27.223,22.511 27.674,21.986 28.02,21.376 L29.346,21.522 L29.437,21.236 L29.815,20.043 L29.905,19.758 L28.737,19.114 L28.737,19.114 Z M25.919,19.466 C25.424,21.028 23.756,21.894 22.193,21.4 C20.631,20.905 19.766,19.236 20.261,17.674 C20.755,16.111 22.423,15.247 23.985,15.741 C25.548,16.235 26.415,17.903 25.919,19.466 L25.919,19.466 L25.919,19.466 Z" id="Shape" sketch:type="MSShapeGroup"></path>
        </g>
        <path d="M221.69,25.455 L221.69,22.473 L210.877,22.473 L210.877,21.272 C214.141,20.84 216.669,18.046 216.669,14.668 C216.669,10.992 213.678,8 210.001,8 C206.324,8 203.332,10.992 203.332,14.668 C203.332,18.047 205.861,20.841 209.125,21.272 L209.125,22.473 L198.311,22.473 L198.311,25.455 C196.422,25.857 195,27.539 195,29.547 C195,31.855 196.878,33.734 199.187,33.734 C201.496,33.734 203.374,31.855 203.374,29.547 C203.374,27.539 201.952,25.858 200.063,25.455 L200.063,24.224 L209.125,24.224 L209.125,25.455 C207.236,25.857 205.815,27.539 205.815,29.547 C205.815,31.855 207.692,33.734 210.001,33.734 C212.309,33.734 214.187,31.855 214.187,29.547 C214.187,27.539 212.766,25.858 210.877,25.455 L210.877,24.224 L219.939,24.224 L219.939,25.455 C218.05,25.857 216.628,27.539 216.628,29.547 C216.628,31.855 218.506,33.734 220.814,33.734 C223.123,33.734 225,31.855 225,29.547 C225,27.539 223.58,25.857 221.69,25.455 L221.69,25.455 L221.69,25.455 Z M205.084,14.667 C205.084,11.957 207.289,9.75 210.001,9.75 C212.712,9.75 214.918,11.957 214.918,14.667 C214.918,17.379 212.712,19.584 210.001,19.584 C207.289,19.584 205.084,17.378 205.084,14.667 L205.084,14.667 L205.084,14.667 Z M201.621,29.546 C201.621,30.888 200.528,31.981 199.186,31.981 C197.844,31.981 196.751,30.888 196.751,29.546 C196.751,28.203 197.844,27.111 199.186,27.111 C200.528,27.111 201.621,28.204 201.621,29.546 L201.621,29.546 L201.621,29.546 Z M212.434,29.546 C212.434,30.888 211.343,31.981 210,31.981 C208.657,31.981 207.565,30.888 207.565,29.546 C207.565,28.203 208.657,27.111 210,27.111 C211.343,27.111 212.434,28.204 212.434,29.546 L212.434,29.546 L212.434,29.546 Z M220.814,31.981 C219.472,31.981 218.38,30.888 218.38,29.546 C218.38,28.203 219.472,27.111 220.814,27.111 C222.156,27.111 223.249,28.203 223.249,29.546 C223.249,30.888 222.156,31.981 220.814,31.981 L220.814,31.981 L220.814,31.981 Z" id="architec" fill="#FFFFFF" sketch:type="MSShapeGroup"></path>
        <path d="M160.219,11.353 L155.446,11.353 L155.446,10.777 C155.446,8.143 153.305,6 150.673,6 L144.018,6 C141.388,6 139.247,8.144 139.247,10.777 L139.247,11.353 L134.472,11.353 C132.555,11.353 131,12.911 131,14.825 L131,31.315 C131,33.104 132.36,34.561 134.099,34.753 C134.066,34.849 134.038,34.95 134.038,35.059 C134.038,35.577 134.457,36 134.976,36 L136.642,36 C137.16,36 137.583,35.576 137.583,35.059 C137.583,34.961 137.553,34.875 137.527,34.788 L157.165,34.788 C157.138,34.875 157.109,34.961 157.109,35.059 C157.109,35.577 157.534,36 158.048,36 L159.716,36 C160.232,36 160.653,35.576 160.653,35.059 C160.653,34.951 160.626,34.849 160.592,34.753 C162.33,34.562 163.691,33.105 163.691,31.315 L163.691,14.825 C163.691,12.911 162.137,11.353 160.219,11.353 L160.219,11.353 L160.219,11.353 Z M157.381,12.439 L159.007,12.439 L159.007,33.199 L157.381,33.199 L157.381,12.439 L157.381,12.439 Z M141.847,10.777 C141.847,9.58 142.822,8.607 144.017,8.607 L150.672,8.607 C151.868,8.607 152.843,9.58 152.843,10.777 L152.843,11.353 L141.846,11.353 L141.846,10.777 L141.847,10.777 L141.847,10.777 Z M135.682,12.439 L137.309,12.439 L137.309,33.199 L135.682,33.199 L135.682,12.439 L135.682,12.439 Z" id="buscase" fill="#FFFFFF" sketch:type="MSShapeGroup"></path>
        <g id="manifesto" sketch:type="MSLayerGroup" transform="translate(63.000000, 6.000000)" fill="#FFFFFF">
            <path d="M11.898,20.986 C11.399,20.885 10.905,20.769 10.422,20.625 L10.183,20.562 L9.988,20.562 C9.729,20.562 9.201,20.562 6.442,22.018 L7.385,19.365 L6.555,18.802 C3.98,17.048 2.561,14.702 2.561,12.198 C2.561,7.162 8.28,3.065 15.311,3.065 C19.133,3.065 22.559,4.283 24.898,6.196 C25.48,6.144 26.069,6.113 26.67,6.113 C27.282,6.113 27.884,6.147 28.478,6.201 C25.796,2.775 20.906,0.468 15.311,0.468 C6.848,0.468 -0.039,5.73 -0.039,12.198 C-0.039,15.25 1.522,18.176 4.275,20.351 L1.662,27.701 L4.711,25.947 C6.704,24.804 9.147,23.504 9.967,23.201 C11.108,23.523 12.292,23.73 13.498,23.838 C12.811,22.954 12.268,21.999 11.898,20.986 L11.898,20.986 L11.898,20.986 Z" id="Shape" sketch:type="MSShapeGroup"></path>
            <path d="M40.72,17.843 C40.72,12.083 34.435,7.41 26.672,7.41 C18.914,7.41 12.621,12.083 12.621,17.843 C12.621,23.603 18.914,28.275 26.672,28.275 C28.538,28.275 30.316,28.004 31.945,27.511 C32.487,27.345 37.916,30.467 37.916,30.467 L36.16,25.52 C38.958,23.614 40.72,20.886 40.72,17.843 L40.72,17.843 L40.72,17.843 Z" id="Shape" sketch:type="MSShapeGroup"></path>
        </g>
        <g id="motivation" sketch:type="MSLayerGroup" transform="translate(6.000000, 6.000000)" fill="#FFFFFF">
            <path d="M29.5,4.987 L26.192,4.216 L25.421,0.909 L21.321,5.01 L21.868,7.363 L14.251,14.98 C13.926,15.304 13.926,15.833 14.251,16.157 C14.576,16.483 15.104,16.483 15.429,16.157 L23.045,8.541 L25.398,9.089 L29.5,4.987 L29.5,4.987 Z" id="Shape" sketch:type="MSShapeGroup"></path>
            <path d="M28.302,8.862 L26.193,10.97 C26.764,12.406 27.053,13.917 27.053,15.466 C27.053,22.199 21.574,27.678 14.84,27.678 C8.107,27.678 2.629,22.199 2.629,15.466 C2.629,8.733 8.107,3.254 14.84,3.254 C16.447,3.254 18.008,3.563 19.484,4.171 L21.583,2.072 C19.501,1.02 17.177,0.466 14.841,0.466 C6.57,0.466 -0.158,7.195 -0.158,15.466 C-0.158,23.737 6.571,30.466 14.841,30.466 C23.112,30.466 29.842,23.737 29.842,15.466 C29.842,13.152 29.323,10.932 28.302,8.862 L28.302,8.862 L28.302,8.862 Z" id="Shape" sketch:type="MSShapeGroup"></path>
            <path d="M23.261,11.004 L21.157,13.108 C21.443,13.87 21.588,14.663 21.588,15.466 C21.588,19.187 18.562,22.212 14.841,22.212 C11.122,22.212 8.095,19.187 8.095,15.466 C8.095,11.746 11.121,8.72 14.841,8.72 C15.708,8.72 16.552,8.883 17.351,9.205 L19.437,7.117 C18.033,6.341 16.45,5.931 14.841,5.931 C9.585,5.931 5.308,10.208 5.308,15.465 C5.308,20.722 9.585,24.999 14.841,24.999 C20.098,24.999 24.375,20.722 24.375,15.465 C24.375,13.912 23.99,12.375 23.261,11.004 L23.261,11.004 L23.261,11.004 Z" id="Shape" sketch:type="MSShapeGroup"></path>
            <path d="M16.627,17.354 C16.149,17.832 15.516,18.094 14.84,18.094 C14.166,18.094 13.531,17.831 13.054,17.355 C12.07,16.37 12.07,14.767 13.053,13.782 L15.498,11.338 C15.283,11.305 15.064,11.282 14.839,11.282 C12.528,11.282 10.654,13.155 10.654,15.467 C10.654,17.779 12.528,19.654 14.839,19.654 C17.151,19.654 19.025,17.78 19.025,15.467 C19.025,15.305 19.013,15.145 18.995,14.986 L16.627,17.354 L16.627,17.354 Z" id="Shape" sketch:type="MSShapeGroup"></path>
        </g>
        <g id="Group" sketch:type="MSLayerGroup" transform="translate(568.000000, 3.000000)" fill="#F5F5F5">
            <path d="M39.4171429,32.38776 L21.7392857,1.07352 C20.71,-0.75168 19.0242857,-0.75168 17.9942857,1.07352 L0.316428571,32.38776 C-0.712857143,34.21152 0.147857143,35.70408 2.23071429,35.70408 L37.5042857,35.70408 C39.5864286,35.7048 40.4471429,34.21224 39.4171429,32.38776 L39.4171429,32.38776 Z M36.8985714,33.79608 L2.83571429,33.79608 C2.21071429,33.79608 1.95285714,33.34824 2.26071429,32.80104 L19.3042857,2.60856 C19.6142857,2.06136 20.1192857,2.06136 20.4278571,2.60856 L37.4721429,32.80104 C37.7814286,33.34824 37.5235714,33.79608 36.8985714,33.79608 L36.8985714,33.79608 Z" id="Shape" sketch:type="MSShapeGroup"></path>
            <ellipse id="Oval" sketch:type="MSShapeGroup" cx="20.0557143" cy="28.13616" rx="2.19857143" ry="2.21616"></ellipse>
            <path d="M19.8671429,11.98584 C18.6535714,11.98584 17.6685714,12.978 17.6685714,14.20128 C17.6685714,14.45904 17.715,14.70672 17.7957143,14.93712 L19.3621429,24.02928 L20.3721429,24.02928 L21.9385714,14.93712 C22.0185714,14.70672 22.0657143,14.45904 22.0657143,14.20128 C22.0657143,12.978 21.0807143,11.98584 19.8671429,11.98584 L19.8671429,11.98584 Z" id="Shape" sketch:type="MSShapeGroup"></path>
        </g>
        <path d="M646.350715,31.83244 L640.454196,30.62024 L639.749718,34.11472 C640.787222,33.9194 641.97165,33.81908 643.307521,33.81908 C644.302078,33.81908 645.185877,33.77728 645.973235,33.70204 L646.350715,31.83244 L646.350715,31.83244 Z M636.025403,39 L666,39 C666,39 664.088491,26.13472 657.922237,26.13472 C651.757489,26.13472 657.974978,35.2532 643.307521,35.2532 C635.175509,35.2532 636.025403,39 636.025403,39 L636.025403,39 Z M648.928276,29.26516 L639.10853,27.25116 L638.759682,28.98624 L648.578674,30.99796 L648.928276,29.26516 L648.928276,29.26516 Z M657.92299,24.69984 C659.706412,24.69984 661.174891,25.4796 662.379661,26.67356 C661.532027,21.65452 658.502395,17.378 654.316214,14.86924 C653.675026,15.40048 652.855269,15.72044 651.960168,15.72044 C649.910024,15.72044 648.249415,14.04616 648.249415,11.97744 C648.249415,10.01056 649.754059,8.4024 651.664061,8.2504 L651.94962,6.83528 C652.099557,6.08972 651.617347,5.35556 650.87821,5.20356 L646.626478,4.3326 C645.886588,4.18136 645.158,4.667 645.008063,5.41332 L642.028158,20.19684 C641.878221,20.9424 642.359678,21.67732 643.099568,21.82856 L643.739249,21.96004 L643.553146,26.24644 L645.225057,26.58996 L646.713879,22.56956 L647.355067,22.70104 C648.094957,22.85228 648.823546,22.36664 648.973483,21.61956 L649.891941,17.05728 C653.530363,18.30216 656.453005,21.11948 657.863468,24.70288 C657.883057,24.70212 657.901894,24.69984 657.92299,24.69984 L657.92299,24.69984 Z M650.606214,4.32652 L651.135891,1.69616 L647.745355,1 L647.215678,3.63188 L650.606214,4.32652 L650.606214,4.32652 Z M653.879965,11.97744 C653.879965,10.90812 653.019522,10.04248 651.960168,10.04248 C651.719063,10.04248 651.490014,10.0896 651.278294,10.17016 C650.556486,10.44832 650.041878,11.15132 650.041878,11.97744 C650.041878,13.04524 650.900814,13.91392 651.960168,13.91392 C652.101064,13.91392 652.236685,13.89796 652.369293,13.86832 C653.232749,13.67832 653.879965,12.90388 653.879965,11.97744 L653.879965,11.97744 Z" id="Shape" fill="#F5F5F5" sketch:type="MSShapeGroup"></path>
        <g id="Group" sketch:type="MSLayerGroup" transform="translate(694.000000, 2.000000)">
            <path d="M40.0928302,7.90096 L33.1886792,-0.0114 C32.8407547,-0.41116 32.2686792,-0.41116 31.9207547,-0.0114 L25.0150943,7.904 C24.6656604,8.30376 24.8128302,8.63132 25.3426415,8.63132 L28,8.63132 L28,36.72092 C28,37.25292 28.4332075,37.6884 28.9622642,37.6884 L36.1441509,37.6884 C36.6732075,37.6884 37.1049057,37.25292 37.1049057,36.72092 L37.1049057,8.6298 L39.765283,8.62904 C40.2950943,8.62828 40.4407547,8.30072 40.0928302,7.90096 L40.0928302,7.90096 Z" id="Shape" fill="#F5F5F5" sketch:type="MSShapeGroup"></path>
            <path d="M23.0973585,36.72016 C23.0973585,37.25216 22.6641509,37.68764 22.1366038,37.68764 L14.9532075,37.68764 C14.4241509,37.68764 13.9924528,37.25216 13.9924528,36.72016 L13.9924528,16.86364 C13.9924528,16.33164 14.4241509,15.8954 14.9532075,15.8954 L22.1366038,15.8954 C22.6641509,15.8954 23.0973585,16.33164 23.0973585,16.86364 L23.0973585,36.72016 L23.0973585,36.72016 Z" id="Shape" fill="#F2C5B7" sketch:type="MSShapeGroup"></path>
            <path d="M9.08754717,36.72016 C9.08754717,37.25216 8.65584906,37.68764 8.12679245,37.68764 L0.94490566,37.68764 C0.415849057,37.68764 -0.0173584906,37.25216 -0.0173584906,36.72016 L-0.0173584906,24.12772 C-0.0173584906,23.59496 0.415849057,23.16024 0.94490566,23.16024 L8.12679245,23.16024 C8.65584906,23.16024 9.08754717,23.59496 9.08754717,24.12772 L9.08754717,36.72016 L9.08754717,36.72016 Z" id="Shape" fill="#E58E72" sketch:type="MSShapeGroup"></path>
        </g>
        <g id="Group" sketch:type="MSLayerGroup" transform="translate(757.000000, 3.000000)" fill="#F5F5F5">
            <path d="M19.6421053,14.36904 C15.1726316,18.95184 15.0722807,26.27424 19.2526316,31.03776 L35.8863158,13.97232 C31.245614,9.6804 24.1115789,9.78336 19.6421053,14.36904 L19.6421053,14.36904 Z" id="Shape" sketch:type="MSShapeGroup"></path>
            <path d="M36.7501754,14.85792 L20.1164912,31.92336 C24.76,36.216 31.8968421,36.11016 36.3635088,31.5252 C40.8336842,26.93952 40.9361404,19.62216 36.7501754,14.85792 L36.7501754,14.85792 Z" id="Shape" sketch:type="MSShapeGroup"></path>
            <path d="M7.30666667,-0.2952 C3.46596491,-0.2952 0.341052632,2.91096 0.341052632,6.85368 L0.341052632,28.55664 C0.341052632,32.49936 3.46596491,35.70552 7.30666667,35.70552 C11.1487719,35.70552 14.2736842,32.49936 14.2736842,28.55664 L14.2736842,6.85368 C14.2736842,2.91096 11.1487719,-0.2952 7.30666667,-0.2952 L7.30666667,-0.2952 Z M1.56280702,7.53048 C1.56280702,6.70896 2.21122807,6.0444 3.01122807,6.0444 C3.81122807,6.0444 4.45964912,6.70968 4.45964912,7.53048 L4.45964912,16.29576 L1.56210526,16.29576 L1.56210526,7.53048 L1.56280702,7.53048 Z M13.0540351,28.55592 C13.0540351,31.80672 10.477193,34.452 7.30736842,34.452 C4.13964912,34.452 1.56280702,31.806 1.56280702,28.55592 L1.56280702,17.7048 L13.0540351,17.7048 L13.0540351,28.55592 L13.0540351,28.55592 Z" id="Shape" sketch:type="MSShapeGroup"></path>
        </g>
        <g id="mail" sketch:type="MSLayerGroup" transform="translate(821.000000, 1.000000)" fill="#CCCCCC">
            <g id="Group" sketch:type="MSShapeGroup">
                <path d="M41.62375,15.6286047 L41.62375,34.6321395 C41.62375,36.4110698 40.1835,37.8665581 38.42125,37.8665581 L3.579625,37.8665581 C1.8165,37.8665581 0.375375,36.4110698 0.375375,34.6321395 L0.375375,15.6286047 C0.375375,15.2141395 0.4585,14.82 0.602875,14.4550233 C4.767,17.4826512 12.635875,23.1879535 16.37125,25.7852093 C17.903375,26.8509767 19.4635,27.3935814 21.01225,27.3953488 C22.561875,27.3935814 24.06775,26.8925116 25.368,25.9469302 C31.35825,21.5990233 38.238375,16.3956744 41.232625,14.1183256 C41.47325,14.5707907 41.62375,15.0815814 41.62375,15.6286047 L41.62375,15.6286047 Z M14.31325,27.6887442 C14.350875,27.4342326 14.28875,27.1894419 14.137375,26.973814 C13.958875,26.736093 13.675375,26.5929302 13.381375,26.5929302 C13.174875,26.5929302 12.980625,26.660093 12.81525,26.7855814 L3.28475,33.7793488 C3.08525,33.9225116 2.949625,34.1505116 2.912875,34.4050233 C2.877,34.6613023 2.940875,34.9131628 3.094,35.1164186 C3.276,35.3594419 3.55075,35.4973023 3.85,35.4973023 C4.05475,35.4973023 4.249,35.431907 4.416125,35.3090698 L13.941375,28.3117674 C14.146125,28.1615349 14.28,27.9414884 14.31325,27.6887442 L14.31325,27.6887442 Z M39.206125,34.557907 C39.16675,34.3033953 39.03025,34.0762791 38.835125,33.9331163 L29.30375,26.9411163 C29.13925,26.8129767 28.94325,26.7466977 28.73675,26.7466977 C28.44275,26.7466977 28.161,26.8898605 27.979875,27.1284651 C27.825875,27.3423256 27.766375,27.5888837 27.80225,27.8425116 C27.841625,28.0952558 27.971125,28.316186 28.17675,28.4637674 L37.701125,35.4610698 C37.86825,35.5856744 38.065125,35.6510698 38.266375,35.6510698 C38.569125,35.6510698 38.845625,35.5132093 39.02325,35.2693023 C39.174625,35.067814 39.24025,34.814186 39.206125,34.557907 L39.206125,34.557907 Z" id="Shape"></path>
                <path d="M6.678,16.5167442 L1.05,12.7635814 C2.632,11.6403721 18.505375,0.73172093 18.514125,0.722 C19.151125,0.255395349 20.05325,-0.00618604651 20.9615,-0.00353488372 C21.868,-0.00618604651 22.766625,0.254511628 23.3975,0.714930233 L23.40975,0.722 C23.4185,0.73172093 40.371625,12.4604651 40.872125,12.8157209 L35.20825,16.5945116 L35.20825,13.5545116 C35.20825,12.2174419 34.12675,11.1242791 32.80025,11.1242791 L9.08425,11.1242791 C7.7595,11.1242791 6.678,12.2174419 6.678,13.5545116 L6.678,16.5167442 L6.678,16.5167442 Z" id="Shape"></path>
                <path d="M14.051625,17.0063256 L27.72175,17.0063256 C28.091,17.0063256 28.39025,16.6546047 28.39025,16.2153953 C28.39025,15.7779535 28.091,15.4226977 27.72175,15.4226977 L14.051625,15.4226977 C13.68325,15.4226977 13.384,15.7779535 13.384,16.2153953 C13.384,16.6537209 13.68325,17.0063256 14.051625,17.0063256 L14.051625,17.0063256 Z" id="Shape"></path>
                <path d="M14.051625,20.8434419 L27.72175,20.8434419 C28.091,20.8434419 28.39025,20.4917209 28.39025,20.0516279 C28.39025,19.6133023 28.091,19.2606977 27.72175,19.2606977 L14.051625,19.2606977 C13.68325,19.2606977 13.384,19.6133023 13.384,20.0516279 C13.384,20.4917209 13.68325,20.8434419 14.051625,20.8434419 L14.051625,20.8434419 Z" id="Shape"></path>
            </g>
        </g>
    </g>
</svg>