<?xml version="1.0" encoding="UTF-8" standalone="no"?>
<svg width="283px" height="70px" viewBox="0 0 283 70" version="1.1" xmlns="http://www.w3.org/2000/svg" xmlns:xlink="http://www.w3.org/1999/xlink" xmlns:sketch="http://www.bohemiancoding.com/sketch/ns">
    <!-- Generator: Sketch 3.1 (8751) - http://www.bohemiancoding.com/sketch -->
    <title>Group</title>
    <desc>Created with Sketch.</desc>
    <defs></defs>
    <g id="Page-1" stroke="none" stroke-width="1" fill="none" fill-rule="evenodd" sketch:type="MSPage">
        <g id="Group" sketch:type="MSLayerGroup" transform="translate(1.000000, 1.000000)" fill="#66AC4D">
            <path d="M-0.456,0.866 L8.186,0.866 L8.186,59.912 L36.481,59.912 L36.481,67.084 L-0.456,67.084 L-0.456,0.866 L-0.456,0.866 Z" id="Shape" sketch:type="MSShapeGroup"></path>
            <path d="M80.215,36.04 L54.573,36.04 L54.573,59.912 L83.263,59.912 L83.263,67.084 L45.931,67.084 L45.931,0.866 L81.786,0.866 L81.786,8.035 L54.572,8.035 L54.572,28.962 L80.214,28.962 L80.214,36.04 L80.215,36.04 Z" id="Shape" sketch:type="MSShapeGroup"></path>
            <path d="M109.801,67.084 L88.094,0.866 L97.426,0.866 L107.738,33.483 C110.492,42.424 112.945,50.579 114.816,58.244 L115.007,58.244 C116.878,50.578 119.531,42.229 122.576,33.582 L133.774,0.866 L142.912,0.866 L119.231,67.084 L109.801,67.084 L109.801,67.084 Z" id="Shape" sketch:type="MSShapeGroup"></path>
            <path d="M184.292,36.04 L158.649,36.04 L158.649,59.912 L187.341,59.912 L187.341,67.084 L150.007,67.084 L150.007,0.866 L185.864,0.866 L185.864,8.035 L158.648,8.035 L158.648,28.962 L184.291,28.962 L184.291,36.04 L184.292,36.04 Z" id="Shape" sketch:type="MSShapeGroup"></path>
            <path d="M198.359,0.866 L207.004,0.866 L207.004,59.912 L235.302,59.912 L235.302,67.084 L198.36,67.084 L198.36,0.866 L198.359,0.866 Z" id="Shape" sketch:type="MSShapeGroup"></path>
            <path d="M243.765,56.671 C247.595,59.028 253.096,60.896 258.993,60.896 C267.735,60.896 272.841,56.376 272.841,49.693 C272.841,43.504 269.307,39.87 260.367,36.531 C249.561,32.797 242.879,27.1 242.879,17.863 C242.879,7.545 251.423,-0.115 264.297,-0.115 C270.979,-0.115 275.985,1.457 278.84,3.029 L276.482,10.098 C274.415,8.822 270,6.954 264.003,6.954 C254.965,6.954 251.524,12.36 251.524,16.881 C251.524,22.97 255.55,26.017 264.693,29.553 C275.892,33.972 281.494,39.28 281.494,49.008 C281.494,59.125 274.023,68.067 258.405,68.067 C252.017,68.067 245.041,66.104 241.505,63.746 L243.765,56.671 L243.765,56.671 Z" id="Shape" sketch:type="MSShapeGroup"></path>
        </g>
    </g>
</svg>